<svg width="1280" height="850" viewBox="0 0 1280 850" fill="none" xmlns="http://www.w3.org/2000/svg">
<g clip-path="url(#clip0_293_1532)">
<rect width="1280" height="850" fill="#060606"/>
<rect width="1280" height="850" fill="url(#paint0_radial_293_1532)" fill-opacity="0.2"/>
<g filter="url(#filter0_f_293_1532)">
<ellipse cx="643.5" cy="397.5" rx="348.5" ry="245.5" fill="url(#paint1_radial_293_1532)" fill-opacity="0.75"/>
</g>
<g style="mix-blend-mode:color-dodge" opacity="0.5">
<path d="M152.297 498.586C152.498 498.137 152.065 497.703 151.618 497.905C151.521 497.95 151.446 498.025 151.401 498.122C151.192 498.572 151.633 499.006 152.08 498.804C152.177 498.759 152.252 498.684 152.297 498.586Z" fill="white" fill-opacity="0.1"/>
<path d="M511.489 524.586C511.691 524.137 511.257 523.703 510.808 523.905C510.711 523.95 510.636 524.025 510.591 524.122C510.389 524.572 510.823 525.006 511.272 524.804C511.369 524.759 511.444 524.684 511.489 524.586Z" fill="white" fill-opacity="0.1"/>
<path d="M433.949 481.732C434.151 481.283 433.718 480.849 433.27 481.051C433.173 481.096 433.098 481.171 433.054 481.268C432.845 481.717 433.285 482.151 433.733 481.949C433.83 481.904 433.904 481.829 433.949 481.732Z" fill="white" fill-opacity="0.1"/>
<path d="M328.632 275.826C328.841 275.377 328.401 274.943 327.953 275.145C327.856 275.19 327.781 275.264 327.736 275.362C327.535 275.811 327.968 276.245 328.416 276.043C328.513 275.998 328.587 275.923 328.632 275.826Z" fill="white" fill-opacity="0.1"/>
<path d="M393.581 264.3C393.79 263.852 393.35 263.411 392.902 263.62C392.805 263.665 392.73 263.74 392.686 263.837C392.484 264.285 392.917 264.718 393.365 264.516C393.462 264.471 393.536 264.397 393.581 264.3Z" fill="white" fill-opacity="0.1"/>
<path d="M1150.95 171.732C1151.15 171.283 1150.72 170.849 1150.27 171.051C1150.17 171.096 1150.1 171.171 1150.05 171.268C1149.85 171.717 1150.28 172.151 1150.73 171.949C1150.83 171.904 1150.9 171.829 1150.95 171.732Z" fill="white" fill-opacity="0.8"/>
<path d="M815.949 542.732C816.151 542.283 815.717 541.849 815.268 542.051C815.171 542.096 815.096 542.171 815.051 542.268C814.849 542.717 815.283 543.151 815.732 542.949C815.829 542.904 815.904 542.829 815.949 542.732Z" fill="white" fill-opacity="0.8"/>
<path d="M904.919 568.355C905.128 567.906 904.688 567.472 904.24 567.674C904.143 567.719 904.068 567.794 904.023 567.891C903.822 568.34 904.255 568.774 904.703 568.572C904.8 568.527 904.874 568.452 904.919 568.355Z" fill="white" fill-opacity="0.1"/>
<path d="M1088.65 466.125C1088.86 465.676 1088.42 465.242 1087.97 465.444C1087.87 465.489 1087.8 465.564 1087.75 465.661C1087.55 466.11 1087.98 466.544 1088.43 466.342C1088.53 466.297 1088.6 466.222 1088.65 466.125Z" fill="white" fill-opacity="0.1"/>
<path d="M1131.08 303.6C1131.29 303.151 1130.85 302.717 1130.4 302.919C1130.3 302.964 1130.23 303.038 1130.18 303.136C1129.98 303.585 1130.41 304.019 1130.86 303.817C1130.96 303.772 1131.03 303.697 1131.08 303.6Z" fill="white" fill-opacity="0.1"/>
<path d="M1087.74 180.962C1087.94 180.513 1087.51 180.079 1087.06 180.281C1086.96 180.326 1086.89 180.401 1086.84 180.498C1086.63 180.947 1087.07 181.382 1087.52 181.179C1087.62 181.135 1087.69 181.06 1087.74 180.962Z" fill="white" fill-opacity="0.1"/>
<path d="M1162.95 210.732C1163.15 210.283 1162.72 209.849 1162.27 210.051C1162.17 210.096 1162.1 210.171 1162.05 210.268C1161.85 210.717 1162.28 211.151 1162.73 210.949C1162.83 210.904 1162.9 210.829 1162.95 210.732Z" fill="white" fill-opacity="0.1"/>
<path d="M1080.95 234.732C1081.16 234.283 1080.72 233.849 1080.27 234.051C1080.17 234.096 1080.1 234.171 1080.05 234.268C1079.85 234.717 1080.28 235.151 1080.73 234.949C1080.83 234.904 1080.9 234.829 1080.95 234.732Z" fill="white" fill-opacity="0.1"/>
<path d="M1082.95 341.732C1083.16 341.283 1082.72 340.849 1082.27 341.051C1082.17 341.096 1082.1 341.171 1082.05 341.268C1081.85 341.717 1082.28 342.151 1082.73 341.949C1082.83 341.904 1082.9 341.829 1082.95 341.732Z" fill="white" fill-opacity="0.1"/>
<path d="M1240.95 358.732C1241.15 358.283 1240.72 357.849 1240.27 358.051C1240.17 358.096 1240.1 358.171 1240.05 358.268C1239.84 358.717 1240.28 359.151 1240.73 358.949C1240.83 358.904 1240.9 358.829 1240.95 358.732Z" fill="white" fill-opacity="0.1"/>
<path d="M401.949 367.732C402.151 367.283 401.718 366.849 401.27 367.051C401.173 367.096 401.098 367.171 401.054 367.268C400.845 367.717 401.285 368.151 401.733 367.949C401.83 367.904 401.904 367.829 401.949 367.732Z" fill="white" fill-opacity="0.1"/>
<path d="M654.949 516.732C655.151 516.283 654.717 515.849 654.268 516.051C654.171 516.096 654.096 516.171 654.051 516.268C653.849 516.717 654.283 517.151 654.732 516.949C654.829 516.904 654.904 516.829 654.949 516.732Z" fill="white" fill-opacity="0.1"/>
<path d="M519.325 477.774C519.534 477.324 519.094 476.89 518.646 477.092C518.549 477.137 518.475 477.212 518.43 477.31C518.228 477.759 518.661 478.193 519.109 477.991C519.206 477.946 519.281 477.871 519.325 477.774Z" fill="white" fill-opacity="0.1"/>
<path d="M264.801 537.509C265.002 537.06 264.569 536.626 264.122 536.828C264.024 536.873 263.95 536.948 263.905 537.045C263.696 537.494 264.136 537.928 264.584 537.726C264.681 537.681 264.756 537.607 264.801 537.509Z" fill="white" fill-opacity="0.1"/>
<path d="M866.946 173.732C867.155 173.283 866.715 172.849 866.267 173.051C866.17 173.096 866.096 173.171 866.051 173.268C865.849 173.717 866.282 174.151 866.73 173.949C866.827 173.904 866.902 173.829 866.946 173.732Z" fill="white" fill-opacity="0.8"/>
<path d="M403.949 570.732C404.151 570.283 403.718 569.849 403.27 570.051C403.173 570.096 403.098 570.171 403.054 570.268C402.845 570.717 403.285 571.151 403.733 570.949C403.83 570.904 403.904 570.829 403.949 570.732Z" fill="white" fill-opacity="0.8"/>
<path d="M271.946 219.732C272.155 219.283 271.715 218.849 271.267 219.051C271.17 219.096 271.096 219.171 271.051 219.268C270.849 219.717 271.282 220.151 271.73 219.949C271.827 219.904 271.902 219.829 271.946 219.732Z" fill="white" fill-opacity="0.1"/>
<path d="M394.949 182.732C395.151 182.283 394.718 181.849 394.27 182.051C394.173 182.096 394.098 182.171 394.054 182.268C393.845 182.717 394.285 183.151 394.733 182.949C394.83 182.904 394.904 182.829 394.949 182.732Z" fill="white" fill-opacity="0.8"/>
<path d="M105.949 443.732C106.151 443.283 105.717 442.849 105.268 443.051C105.171 443.096 105.096 443.171 105.051 443.268C104.849 443.717 105.283 444.151 105.732 443.949C105.829 443.904 105.904 443.829 105.949 443.732Z" fill="white" fill-opacity="0.8"/>
<path d="M165.568 423.878C165.777 423.429 165.336 422.995 164.888 423.197C164.791 423.242 164.717 423.317 164.672 423.414C164.47 423.864 164.903 424.298 165.351 424.096C165.448 424.051 165.523 423.976 165.568 423.878Z" fill="white" fill-opacity="0.1"/>
<path d="M173.949 307.732C174.151 307.283 173.717 306.849 173.268 307.051C173.171 307.096 173.096 307.171 173.051 307.268C172.849 307.717 173.283 308.151 173.732 307.949C173.829 307.904 173.904 307.829 173.949 307.732Z" fill="white" fill-opacity="0.1"/>
<path d="M166.949 360.732C167.151 360.283 166.718 359.849 166.27 360.051C166.173 360.096 166.098 360.171 166.054 360.268C165.845 360.717 166.285 361.151 166.733 360.949C166.83 360.904 166.904 360.829 166.949 360.732Z" fill="white" fill-opacity="0.1"/>
<path d="M256.849 574.91C257.05 574.461 256.617 574.027 256.169 574.229C256.072 574.274 255.998 574.348 255.953 574.446C255.744 574.895 256.184 575.329 256.632 575.127C256.729 575.082 256.804 575.007 256.849 574.91Z" fill="white" fill-opacity="0.8"/>
<path d="M393.238 425.462C393.44 425.013 393.006 424.579 392.557 424.781C392.46 424.826 392.385 424.901 392.34 424.998C392.138 425.447 392.572 425.881 393.021 425.679C393.118 425.634 393.193 425.559 393.238 425.462Z" fill="white" fill-opacity="0.1"/>
<path d="M359.631 385.359C359.833 384.91 359.399 384.476 358.95 384.678C358.852 384.723 358.778 384.798 358.733 384.895C358.531 385.344 358.965 385.779 359.414 385.576C359.511 385.532 359.586 385.457 359.631 385.359Z" fill="white" fill-opacity="0.8"/>
<path d="M226.268 311.949C226.717 312.151 227.151 311.718 226.949 311.27C226.904 311.173 226.829 311.098 226.732 311.054C226.283 310.845 225.849 311.285 226.051 311.733C226.096 311.83 226.171 311.904 226.268 311.949Z" fill="white" fill-opacity="0.8"/>
<path d="M268.342 462.273C268.543 461.823 268.11 461.389 267.663 461.591C267.565 461.636 267.491 461.711 267.446 461.809C267.237 462.258 267.677 462.692 268.125 462.49C268.222 462.445 268.297 462.37 268.342 462.273Z" fill="white" fill-opacity="0.1"/>
<path d="M583.949 505.732C584.151 505.283 583.718 504.849 583.27 505.051C583.173 505.096 583.098 505.171 583.054 505.268C582.845 505.717 583.285 506.151 583.733 505.949C583.83 505.904 583.904 505.829 583.949 505.732Z" fill="white" fill-opacity="0.1"/>
<path d="M722.949 582.73C723.151 582.282 722.718 581.849 722.27 582.051C722.173 582.096 722.098 582.17 722.054 582.267C721.845 582.715 722.285 583.155 722.733 582.946C722.83 582.902 722.904 582.827 722.949 582.73Z" fill="white" fill-opacity="0.1"/>
<path d="M654.949 551.732C655.151 551.283 654.717 550.849 654.268 551.051C654.171 551.096 654.096 551.171 654.051 551.268C653.849 551.717 654.283 552.151 654.732 551.949C654.829 551.904 654.904 551.829 654.949 551.732Z" fill="white" fill-opacity="0.8"/>
<path d="M957.404 412.695C957.606 412.246 957.173 411.812 956.725 412.014C956.628 412.059 956.553 412.134 956.509 412.231C956.3 412.68 956.74 413.114 957.188 412.912C957.285 412.867 957.359 412.792 957.404 412.695Z" fill="white" fill-opacity="0.8"/>
<path d="M386.398 253.522C386.6 253.073 386.167 252.638 385.719 252.841C385.622 252.885 385.548 252.96 385.503 253.058C385.294 253.507 385.734 253.941 386.182 253.739C386.279 253.694 386.354 253.619 386.398 253.522Z" fill="white" fill-opacity="0.1"/>
<path d="M1029.25 272.756C1029.45 272.307 1029.02 271.873 1028.57 272.075C1028.47 272.12 1028.4 272.195 1028.35 272.292C1028.15 272.741 1028.59 273.175 1029.03 272.973C1029.13 272.928 1029.21 272.853 1029.25 272.756Z" fill="white" fill-opacity="0.1"/>
<path d="M1043.97 190.167C1044.17 189.719 1043.74 189.286 1043.29 189.487C1043.2 189.532 1043.12 189.607 1043.08 189.704C1042.87 190.152 1043.31 190.592 1043.76 190.383C1043.85 190.338 1043.93 190.264 1043.97 190.167Z" fill="white" fill-opacity="0.1"/>
<path d="M975.048 372.22C975.249 371.771 974.816 371.337 974.369 371.539C974.272 371.584 974.197 371.659 974.152 371.756C973.943 372.205 974.384 372.639 974.831 372.437C974.928 372.392 975.003 372.317 975.048 372.22Z" fill="white" fill-opacity="0.1"/>
<path d="M103.949 173.73C104.151 173.282 103.718 172.849 103.27 173.051C103.173 173.096 103.098 173.17 103.054 173.267C102.845 173.715 103.285 174.155 103.733 173.946C103.83 173.902 103.904 173.827 103.949 173.73Z" fill="white" fill-opacity="0.1"/>
<path d="M1167.73 243.054C1167.28 242.845 1166.85 243.285 1167.05 243.733C1167.1 243.83 1167.17 243.904 1167.27 243.949C1167.72 244.151 1168.15 243.718 1167.95 243.27C1167.9 243.173 1167.83 243.098 1167.73 243.054Z" fill="white" fill-opacity="0.1"/>
<path d="M663.946 184.732C664.155 184.283 663.715 183.849 663.267 184.051C663.17 184.096 663.096 184.171 663.051 184.268C662.849 184.717 663.282 185.151 663.73 184.949C663.827 184.904 663.902 184.829 663.946 184.732Z" fill="white" fill-opacity="0.1"/>
<path d="M511.597 446.184C511.8 445.735 511.365 445.301 510.916 445.503C510.819 445.548 510.744 445.623 510.699 445.72C510.497 446.169 510.931 446.603 511.38 446.401C511.478 446.356 511.553 446.281 511.597 446.184Z" fill="white" fill-opacity="0.1"/>
<path d="M572.027 197.063C572.229 196.615 571.796 196.182 571.348 196.384C571.251 196.429 571.176 196.503 571.132 196.6C570.923 197.048 571.363 197.488 571.811 197.28C571.908 197.235 571.983 197.16 572.027 197.063Z" fill="white" fill-opacity="0.1"/>
<path d="M1001.95 477.732C1002.16 477.283 1001.72 476.849 1001.27 477.051C1001.17 477.096 1001.1 477.171 1001.05 477.268C1000.85 477.717 1001.28 478.151 1001.73 477.949C1001.83 477.904 1001.9 477.829 1001.95 477.732Z" fill="white" fill-opacity="0.8"/>
<path d="M151.109 211.883C151.318 211.434 150.877 211 150.429 211.202C150.332 211.247 150.258 211.322 150.213 211.419C150.011 211.868 150.444 212.302 150.892 212.1C150.989 212.055 151.064 211.98 151.109 211.883Z" fill="white" fill-opacity="0.8"/>
<path d="M7.94903 222.732C8.15109 222.283 7.71702 221.849 7.26799 222.051C7.1707 222.096 7.09588 222.171 7.05097 222.268C6.84891 222.717 7.28295 223.151 7.73199 222.949C7.82928 222.904 7.90412 222.829 7.94903 222.732Z" fill="white" fill-opacity="0.1"/>
<path d="M155.309 259.896C155.511 259.447 155.077 259.012 154.628 259.215C154.531 259.259 154.456 259.334 154.411 259.432C154.209 259.881 154.643 260.315 155.092 260.113C155.19 260.068 155.264 259.993 155.309 259.896Z" fill="white" fill-opacity="0.1"/>
<path d="M457.59 197.732C457.792 197.283 457.358 196.849 456.909 197.051C456.811 197.096 456.736 197.171 456.692 197.268C456.49 197.717 456.924 198.151 457.373 197.949C457.47 197.904 457.545 197.829 457.59 197.732Z" fill="white" fill-opacity="0.1"/>
<path d="M482.341 592.298C482.55 591.849 482.11 591.415 481.662 591.617C481.565 591.662 481.49 591.737 481.445 591.834C481.244 592.283 481.677 592.717 482.125 592.515C482.222 592.47 482.296 592.395 482.341 592.298Z" fill="white" fill-opacity="0.1"/>
<path d="M1122.95 578.732C1123.15 578.283 1122.72 577.849 1122.27 578.051C1122.17 578.096 1122.1 578.171 1122.05 578.268C1121.85 578.717 1122.28 579.151 1122.73 578.949C1122.83 578.904 1122.9 578.829 1122.95 578.732Z" fill="white" fill-opacity="0.1"/>
<path d="M806.633 233.18C806.834 232.731 806.401 232.297 805.954 232.499C805.857 232.544 805.782 232.619 805.737 232.716C805.528 233.165 805.968 233.599 806.416 233.397C806.513 233.352 806.588 233.278 806.633 233.18Z" fill="white" fill-opacity="0.1"/>
<path d="M847.021 203.36C847.23 202.911 846.789 202.477 846.342 202.679C846.244 202.724 846.17 202.799 846.125 202.896C845.924 203.345 846.356 203.779 846.804 203.577C846.901 203.532 846.976 203.457 847.021 203.36Z" fill="white" fill-opacity="0.1"/>
<path d="M189.949 397.732C190.151 397.283 189.718 396.849 189.27 397.051C189.173 397.096 189.098 397.171 189.054 397.268C188.845 397.717 189.285 398.151 189.733 397.949C189.83 397.904 189.904 397.829 189.949 397.732Z" fill="white" fill-opacity="0.1"/>
<path d="M438.581 251.627C438.783 251.178 438.349 250.744 437.9 250.946C437.803 250.991 437.728 251.066 437.683 251.163C437.481 251.612 437.915 252.046 438.364 251.844C438.461 251.799 438.536 251.724 438.581 251.627Z" fill="white" fill-opacity="0.1"/>
<path d="M901.751 479.203C901.96 478.754 901.52 478.32 901.072 478.522C900.975 478.567 900.9 478.642 900.856 478.739C900.654 479.188 901.087 479.622 901.535 479.42C901.632 479.375 901.706 479.3 901.751 479.203Z" fill="white" fill-opacity="0.1"/>
<path d="M1116.95 425.732C1117.16 425.283 1116.72 424.849 1116.27 425.051C1116.17 425.096 1116.1 425.171 1116.05 425.268C1115.85 425.717 1116.28 426.151 1116.73 425.949C1116.83 425.904 1116.9 425.829 1116.95 425.732Z" fill="white" fill-opacity="0.8"/>
<path d="M1129.02 368.243C1129.22 367.794 1128.79 367.36 1128.34 367.562C1128.24 367.607 1128.17 367.682 1128.12 367.779C1127.92 368.228 1128.35 368.662 1128.8 368.46C1128.9 368.415 1128.97 368.341 1129.02 368.243Z" fill="white" fill-opacity="0.1"/>
<path d="M368.051 332.732C367.849 332.283 368.283 331.849 368.732 332.051C368.829 332.096 368.904 332.171 368.949 332.268C369.151 332.717 368.717 333.151 368.268 332.949C368.171 332.904 368.096 332.829 368.051 332.732Z" fill="white" fill-opacity="0.1"/>
<path d="M687.051 538.732C686.849 538.283 687.283 537.849 687.732 538.051C687.829 538.096 687.904 538.171 687.949 538.268C688.151 538.717 687.717 539.151 687.268 538.949C687.171 538.904 687.096 538.829 687.051 538.732Z" fill="white" fill-opacity="0.1"/>
<path d="M309.051 523.709C308.849 523.26 309.282 522.825 309.73 523.028C309.827 523.072 309.902 523.147 309.946 523.245C310.155 523.694 309.715 524.128 309.267 523.926C309.17 523.881 309.096 523.806 309.051 523.709Z" fill="white" fill-opacity="0.1"/>
<path d="M593.051 540.732C592.849 540.283 593.283 539.849 593.732 540.051C593.829 540.096 593.904 540.171 593.949 540.268C594.151 540.717 593.717 541.151 593.268 540.949C593.171 540.904 593.096 540.829 593.051 540.732Z" fill="white" fill-opacity="0.1"/>
<path d="M722.051 554.73C721.849 554.282 722.282 553.849 722.73 554.051C722.827 554.096 722.902 554.17 722.946 554.267C723.155 554.715 722.715 555.155 722.267 554.946C722.17 554.902 722.096 554.827 722.051 554.73Z" fill="white" fill-opacity="0.1"/>
<path d="M266.957 437.795C266.756 437.346 267.188 436.912 267.636 437.114C267.733 437.159 267.808 437.234 267.853 437.331C268.062 437.78 267.621 438.214 267.174 438.012C267.077 437.967 267.002 437.892 266.957 437.795Z" fill="white" fill-opacity="0.1"/>
<path d="M210.268 275.054C210.717 274.845 211.151 275.285 210.949 275.733C210.904 275.83 210.829 275.904 210.732 275.949C210.283 276.151 209.849 275.718 210.051 275.27C210.096 275.173 210.171 275.098 210.268 275.054Z" fill="white" fill-opacity="0.1"/>
<path d="M121.051 425.975C120.849 425.526 121.282 425.092 121.73 425.294C121.827 425.339 121.902 425.413 121.946 425.511C122.155 425.96 121.715 426.394 121.267 426.192C121.17 426.147 121.096 426.072 121.051 425.975Z" fill="white" fill-opacity="0.1"/>
<path d="M926.339 196.899C926.13 196.45 926.57 196.016 927.018 196.218C927.115 196.263 927.19 196.338 927.234 196.435C927.436 196.884 927.003 197.318 926.555 197.116C926.458 197.071 926.383 196.996 926.339 196.899Z" fill="white" fill-opacity="0.8"/>
<path d="M1041.55 466.188C1041.35 465.74 1041.79 465.3 1042.23 465.509C1042.33 465.553 1042.41 465.628 1042.45 465.725C1042.65 466.173 1042.22 466.606 1041.77 466.404C1041.67 466.359 1041.6 466.285 1041.55 466.188Z" fill="white" fill-opacity="0.1"/>
<path d="M1078.33 510.701C1078.12 510.252 1078.56 509.818 1079.01 510.02C1079.11 510.065 1079.18 510.139 1079.23 510.237C1079.43 510.686 1079 511.12 1078.55 510.918C1078.45 510.873 1078.38 510.798 1078.33 510.701Z" fill="white" fill-opacity="0.8"/>
<path d="M1169.05 291.732C1168.85 291.283 1169.28 290.849 1169.73 291.051C1169.83 291.096 1169.9 291.171 1169.95 291.268C1170.16 291.717 1169.72 292.151 1169.27 291.949C1169.17 291.904 1169.1 291.829 1169.05 291.732Z" fill="white" fill-opacity="0.1"/>
<path d="M1145.49 263.403C1145.28 262.954 1145.72 262.52 1146.16 262.722C1146.26 262.767 1146.34 262.842 1146.38 262.939C1146.58 263.388 1146.15 263.822 1145.7 263.62C1145.6 263.576 1145.53 263.501 1145.49 263.403Z" fill="white" fill-opacity="0.8"/>
<path d="M1076.05 398.732C1075.84 398.283 1076.28 397.849 1076.73 398.051C1076.83 398.096 1076.9 398.171 1076.95 398.268C1077.15 398.717 1076.72 399.151 1076.27 398.949C1076.17 398.904 1076.1 398.829 1076.05 398.732Z" fill="white" fill-opacity="0.1"/>
<path d="M769.051 165.732C768.849 165.283 769.282 164.849 769.73 165.051C769.827 165.096 769.902 165.171 769.946 165.268C770.155 165.717 769.715 166.151 769.267 165.949C769.17 165.904 769.096 165.829 769.051 165.732Z" fill="white" fill-opacity="0.1"/>
<path d="M745.414 176.21C745.212 175.761 745.646 175.326 746.095 175.529C746.193 175.573 746.267 175.648 746.312 175.746C746.514 176.195 746.08 176.629 745.631 176.427C745.534 176.382 745.459 176.307 745.414 176.21Z" fill="white" fill-opacity="0.1"/>
<path d="M194.014 505.731C193.812 505.282 194.246 504.847 194.695 505.05C194.792 505.094 194.867 505.169 194.912 505.267C195.114 505.716 194.68 506.15 194.231 505.948C194.134 505.903 194.059 505.828 194.014 505.731Z" fill="white" fill-opacity="0.1"/>
<path d="M72.0535 382.733C71.8445 382.285 72.2849 381.845 72.7327 382.054C72.8297 382.098 72.9044 382.173 72.9492 382.27C73.1507 382.718 72.7178 383.151 72.27 382.949C72.1729 382.904 72.0983 382.83 72.0535 382.733Z" fill="white" fill-opacity="0.1"/>
<path d="M107.046 362.155C106.837 361.706 107.277 361.272 107.725 361.474C107.822 361.519 107.897 361.594 107.941 361.691C108.143 362.14 107.71 362.574 107.262 362.372C107.165 362.327 107.09 362.252 107.046 362.155Z" fill="white" fill-opacity="0.8"/>
<path d="M282.213 384.883C282.011 384.434 282.444 384 282.892 384.202C282.989 384.247 283.064 384.322 283.109 384.419C283.318 384.868 282.877 385.302 282.429 385.1C282.332 385.055 282.258 384.98 282.213 384.883Z" fill="white" fill-opacity="0.1"/>
<path d="M30.0508 277.732C29.8493 277.283 30.2822 276.849 30.7301 277.051C30.8271 277.096 30.9017 277.171 30.9465 277.268C31.1555 277.717 30.7151 278.151 30.2673 277.949C30.1703 277.904 30.0956 277.829 30.0508 277.732Z" fill="white" fill-opacity="0.1"/>
<path d="M1188.98 335.688C1188.78 335.239 1189.21 334.805 1189.66 335.007C1189.76 335.052 1189.83 335.127 1189.88 335.224C1190.08 335.673 1189.64 336.107 1189.2 335.905C1189.1 335.86 1189.02 335.785 1188.98 335.688Z" fill="white" fill-opacity="0.1"/>
<path d="M1234.07 301.181C1233.62 301.384 1233.19 300.949 1233.39 300.5C1233.44 300.403 1233.51 300.328 1233.61 300.283C1234.06 300.081 1234.49 300.515 1234.29 300.964C1234.24 301.062 1234.17 301.137 1234.07 301.181Z" fill="white" fill-opacity="0.8"/>
<path d="M1209.73 268.946C1209.28 269.155 1208.85 268.715 1209.05 268.267C1209.1 268.17 1209.17 268.096 1209.27 268.051C1209.72 267.849 1210.15 268.282 1209.95 268.73C1209.9 268.827 1209.83 268.902 1209.73 268.946Z" fill="white" fill-opacity="0.1"/>
<path d="M817.88 184.162C817.678 183.713 818.112 183.279 818.561 183.481C818.658 183.526 818.733 183.601 818.778 183.698C818.98 184.147 818.546 184.581 818.097 184.379C818 184.334 817.925 184.259 817.88 184.162Z" fill="white" fill-opacity="0.1"/>
<path d="M217.321 369.641C217.12 369.192 217.553 368.758 218.001 368.96C218.098 369.005 218.172 369.079 218.217 369.177C218.426 369.626 217.986 370.06 217.538 369.858C217.441 369.813 217.366 369.738 217.321 369.641Z" fill="white" fill-opacity="0.1"/>
<path d="M513.051 176.732C512.849 176.283 513.283 175.849 513.732 176.051C513.829 176.096 513.904 176.171 513.949 176.268C514.151 176.717 513.717 177.151 513.268 176.949C513.171 176.904 513.096 176.829 513.051 176.732Z" fill="white" fill-opacity="0.1"/>
<path d="M460.399 234.73C460.198 234.281 460.631 233.846 461.079 234.049C461.176 234.093 461.25 234.168 461.295 234.266C461.504 234.715 461.064 235.149 460.616 234.947C460.519 234.902 460.444 234.827 460.399 234.73Z" fill="white" fill-opacity="0.1"/>
<path d="M554.729 235.013C554.527 234.564 554.961 234.13 555.41 234.332C555.507 234.377 555.582 234.452 555.627 234.549C555.829 234.998 555.395 235.432 554.946 235.23C554.848 235.185 554.774 235.111 554.729 235.013Z" fill="white" fill-opacity="0.1"/>
<path d="M390.576 527.529C390.374 527.08 390.808 526.646 391.257 526.848C391.355 526.893 391.43 526.968 391.474 527.065C391.676 527.514 391.242 527.948 390.793 527.746C390.696 527.701 390.621 527.626 390.576 527.529Z" fill="white" fill-opacity="0.1"/>
<path d="M1071.56 532.714C1071.35 532.265 1071.79 531.831 1072.24 532.033C1072.33 532.078 1072.41 532.153 1072.45 532.25C1072.65 532.699 1072.22 533.134 1071.77 532.931C1071.68 532.887 1071.6 532.812 1071.56 532.714Z" fill="white" fill-opacity="0.8"/>
<path d="M561.051 551.732C560.849 551.283 561.283 550.849 561.732 551.051C561.829 551.096 561.904 551.171 561.949 551.268C562.151 551.717 561.717 552.151 561.268 551.949C561.171 551.904 561.096 551.829 561.051 551.732Z" fill="white" fill-opacity="0.1"/>
<path d="M629.051 580.732C628.849 580.283 629.283 579.849 629.732 580.051C629.829 580.096 629.904 580.171 629.949 580.268C630.151 580.717 629.717 581.151 629.268 580.949C629.171 580.904 629.096 580.829 629.051 580.732Z" fill="white" fill-opacity="0.8"/>
<path d="M750.633 512.493C750.431 512.044 750.865 511.61 751.314 511.812C751.411 511.857 751.486 511.931 751.531 512.029C751.733 512.478 751.299 512.912 750.85 512.71C750.753 512.665 750.678 512.59 750.633 512.493Z" fill="white" fill-opacity="0.8"/>
<path d="M509.051 556.732C508.849 556.283 509.283 555.849 509.732 556.051C509.829 556.096 509.904 556.171 509.949 556.268C510.151 556.717 509.717 557.151 509.268 556.949C509.171 556.904 509.096 556.829 509.051 556.732Z" fill="white" fill-opacity="0.8"/>
<path d="M550.051 591.732C549.849 591.283 550.282 590.849 550.73 591.051C550.827 591.096 550.902 591.171 550.946 591.268C551.155 591.717 550.715 592.151 550.267 591.949C550.17 591.904 550.096 591.829 550.051 591.732Z" fill="white" fill-opacity="0.1"/>
<path d="M276.051 249.732C275.849 249.283 276.282 248.849 276.73 249.051C276.827 249.096 276.902 249.171 276.946 249.268C277.155 249.717 276.715 250.151 276.267 249.949C276.17 249.904 276.096 249.829 276.051 249.732Z" fill="white" fill-opacity="0.1"/>
<path d="M864.39 518.715C864.188 518.266 864.621 517.832 865.069 518.034C865.166 518.079 865.241 518.154 865.285 518.251C865.494 518.7 865.054 519.134 864.606 518.932C864.509 518.888 864.434 518.813 864.39 518.715Z" fill="white" fill-opacity="0.1"/>
<path d="M829.944 505.969C829.735 505.52 830.176 505.086 830.623 505.288C830.72 505.333 830.795 505.408 830.84 505.505C831.041 505.954 830.608 506.388 830.161 506.186C830.064 506.141 829.989 506.067 829.944 505.969Z" fill="white" fill-opacity="0.1"/>
<path d="M1005.05 325.733C1004.84 325.285 1005.28 324.845 1005.73 325.054C1005.83 325.098 1005.9 325.173 1005.95 325.27C1006.15 325.718 1005.72 326.151 1005.27 325.949C1005.17 325.904 1005.1 325.83 1005.05 325.733Z" fill="white" fill-opacity="0.1"/>
<path d="M936.69 223.24C936.488 222.791 936.922 222.357 937.371 222.559C937.468 222.604 937.543 222.679 937.588 222.776C937.79 223.225 937.356 223.659 936.907 223.457C936.809 223.412 936.735 223.337 936.69 223.24Z" fill="white" fill-opacity="0.8"/>
<path d="M884.051 236.732C883.849 236.283 884.282 235.849 884.73 236.051C884.827 236.096 884.902 236.171 884.946 236.268C885.155 236.717 884.715 237.151 884.267 236.949C884.17 236.904 884.096 236.829 884.051 236.732Z" fill="white" fill-opacity="0.1"/>
<path d="M955.894 518.397C955.692 517.948 956.126 517.514 956.575 517.716C956.672 517.761 956.747 517.836 956.792 517.933C956.994 518.382 956.56 518.816 956.111 518.614C956.013 518.569 955.939 518.494 955.894 518.397Z" fill="white" fill-opacity="0.1"/>
<path d="M942.47 258.59C942.261 258.141 942.701 257.707 943.149 257.909C943.246 257.954 943.32 258.029 943.365 258.126C943.567 258.575 943.134 259.009 942.686 258.807C942.589 258.763 942.514 258.688 942.47 258.59Z" fill="white" fill-opacity="0.1"/>
<path d="M999.051 219.73C998.849 219.282 999.282 218.849 999.73 219.051C999.827 219.096 999.902 219.17 999.946 219.267C1000.16 219.715 999.715 220.155 999.267 219.946C999.17 219.902 999.096 219.827 999.051 219.73Z" fill="white" fill-opacity="0.1"/>
<path d="M1045.6 408.996C1045.4 408.547 1045.83 408.113 1046.28 408.315C1046.38 408.36 1046.45 408.435 1046.5 408.532C1046.71 408.981 1046.27 409.415 1045.82 409.213C1045.72 409.168 1045.65 409.093 1045.6 408.996Z" fill="white" fill-opacity="0.1"/>
<path d="M1019.81 361.254C1019.61 360.805 1020.04 360.371 1020.49 360.573C1020.59 360.618 1020.66 360.693 1020.71 360.79C1020.91 361.239 1020.47 361.673 1020.03 361.471C1019.93 361.426 1019.85 361.351 1019.81 361.254Z" fill="white" fill-opacity="0.1"/>
<path d="M1133.05 475.732C1132.84 475.283 1133.28 474.849 1133.73 475.051C1133.83 475.096 1133.9 475.171 1133.95 475.268C1134.15 475.717 1133.72 476.151 1133.27 475.949C1133.17 475.904 1133.1 475.829 1133.05 475.732Z" fill="white" fill-opacity="0.1"/>
<path d="M997.051 436.732C996.849 436.283 997.282 435.849 997.73 436.051C997.827 436.096 997.902 436.171 997.946 436.268C998.155 436.717 997.715 437.151 997.267 436.949C997.17 436.904 997.096 436.829 997.051 436.732Z" fill="white" fill-opacity="0.1"/>
<path d="M1163.76 444.412C1163.56 443.963 1163.99 443.529 1164.44 443.731C1164.53 443.776 1164.61 443.85 1164.65 443.948C1164.86 444.397 1164.42 444.831 1163.97 444.629C1163.88 444.584 1163.8 444.509 1163.76 444.412Z" fill="white" fill-opacity="0.1"/>
<path d="M212.898 444.488C212.697 444.039 213.13 443.605 213.578 443.807C213.675 443.852 213.749 443.927 213.794 444.024C214.003 444.473 213.563 444.907 213.115 444.705C213.018 444.66 212.943 444.586 212.898 444.488Z" fill="white" fill-opacity="0.1"/>
<path d="M1006.22 522.774C1006.02 522.324 1006.45 521.89 1006.9 522.092C1007 522.137 1007.07 522.212 1007.12 522.31C1007.32 522.759 1006.89 523.193 1006.44 522.991C1006.34 522.946 1006.26 522.871 1006.22 522.774Z" fill="white" fill-opacity="0.1"/>
<path d="M767.051 551.732C766.849 551.283 767.283 550.849 767.732 551.051C767.829 551.096 767.904 551.171 767.949 551.268C768.151 551.717 767.717 552.151 767.268 551.949C767.171 551.904 767.096 551.829 767.051 551.732Z" fill="white" fill-opacity="0.1"/>
<path d="M990.905 570.91C990.696 570.461 991.136 570.027 991.584 570.229C991.681 570.274 991.756 570.348 991.801 570.446C992.002 570.895 991.569 571.329 991.122 571.127C991.024 571.082 990.95 571.007 990.905 570.91Z" fill="white" fill-opacity="0.8"/>
<path d="M861.095 268.732C861.304 268.283 860.864 267.849 860.416 268.051C860.319 268.096 860.244 268.171 860.199 268.268C859.998 268.717 860.431 269.151 860.878 268.949C860.976 268.904 861.05 268.829 861.095 268.732Z" fill="white" fill-opacity="0.8"/>
<path d="M982.097 369.732C982.3 369.283 981.865 368.849 981.416 369.051C981.319 369.096 981.244 369.171 981.199 369.268C980.997 369.717 981.431 370.151 981.88 369.949C981.978 369.904 982.053 369.829 982.097 369.732Z" fill="white" fill-opacity="0.1"/>
<path d="M937.48 301.701C937.271 301.252 937.712 300.818 938.159 301.02C938.257 301.065 938.331 301.139 938.376 301.237C938.577 301.686 938.145 302.12 937.697 301.918C937.6 301.873 937.525 301.798 937.48 301.701Z" fill="white" fill-opacity="0.8"/>
<path d="M930.706 323.714C930.497 323.265 930.937 322.831 931.385 323.033C931.482 323.078 931.557 323.153 931.602 323.25C931.803 323.699 931.37 324.134 930.922 323.931C930.825 323.887 930.751 323.812 930.706 323.714Z" fill="white" fill-opacity="0.8"/>
<path d="M992.202 266.732C991.993 266.283 992.433 265.849 992.881 266.051C992.978 266.096 993.053 266.171 993.098 266.268C993.299 266.717 992.866 267.151 992.418 266.949C992.321 266.904 992.247 266.829 992.202 266.732Z" fill="white" fill-opacity="0.1"/>
<path d="M865.367 313.774C865.165 313.324 865.599 312.89 866.048 313.092C866.146 313.137 866.221 313.212 866.265 313.31C866.467 313.759 866.033 314.193 865.584 313.991C865.487 313.946 865.412 313.871 865.367 313.774Z" fill="white" fill-opacity="0.1"/>
<path d="M850.054 361.91C849.845 361.461 850.285 361.027 850.733 361.229C850.83 361.274 850.904 361.348 850.949 361.446C851.151 361.895 850.718 362.329 850.27 362.127C850.173 362.082 850.098 362.007 850.054 361.91Z" fill="white" fill-opacity="0.8"/>
<path d="M935.232 456.744C935.023 456.295 935.464 455.861 935.911 456.063C936.008 456.108 936.083 456.182 936.128 456.28C936.329 456.729 935.897 457.163 935.449 456.961C935.352 456.916 935.277 456.841 935.232 456.744Z" fill="white" fill-opacity="0.1"/>
<path d="M1191.87 399.99C1191.67 399.541 1192.1 399.107 1192.55 399.309C1192.65 399.354 1192.72 399.429 1192.76 399.526C1192.97 399.975 1192.53 400.409 1192.09 400.207C1191.99 400.162 1191.91 400.087 1191.87 399.99Z" fill="white" fill-opacity="0.1"/>
<path d="M1272.73 241.946C1272.28 242.155 1271.85 241.715 1272.05 241.267C1272.1 241.17 1272.17 241.096 1272.27 241.051C1272.72 240.849 1273.15 241.282 1272.95 241.73C1272.9 241.827 1272.83 241.902 1272.73 241.946Z" fill="white" fill-opacity="0.1"/>
<path d="M783.265 305.732C783.467 305.283 783.033 304.849 782.584 305.051C782.487 305.096 782.412 305.171 782.367 305.268C782.165 305.717 782.599 306.151 783.048 305.949C783.146 305.904 783.221 305.829 783.265 305.732Z" fill="white" fill-opacity="0.8"/>
<path d="M763.393 437.6C763.602 437.151 763.161 436.717 762.714 436.919C762.617 436.964 762.542 437.038 762.497 437.136C762.296 437.585 762.729 438.019 763.176 437.817C763.273 437.772 763.348 437.697 763.393 437.6Z" fill="white" fill-opacity="0.1"/>
<path d="M720.054 314.962C720.255 314.513 719.822 314.079 719.374 314.281C719.277 314.326 719.203 314.401 719.158 314.498C718.949 314.947 719.389 315.382 719.837 315.179C719.934 315.135 720.009 315.06 720.054 314.962Z" fill="white" fill-opacity="0.1"/>
<path d="M795.265 344.732C795.467 344.283 795.033 343.849 794.584 344.051C794.487 344.096 794.412 344.171 794.367 344.268C794.165 344.717 794.599 345.151 795.048 344.949C795.146 344.904 795.221 344.829 795.265 344.732Z" fill="white" fill-opacity="0.1"/>
<path d="M545.946 403.732C546.155 403.283 545.715 402.849 545.267 403.051C545.17 403.096 545.096 403.171 545.051 403.268C544.849 403.717 545.282 404.151 545.73 403.949C545.827 403.904 545.902 403.829 545.946 403.732Z" fill="white" fill-opacity="0.1"/>
<path d="M715.263 475.732C715.472 475.283 715.032 474.849 714.584 475.051C714.487 475.096 714.412 475.171 714.367 475.268C714.166 475.717 714.599 476.151 715.046 475.949C715.143 475.904 715.218 475.829 715.263 475.732Z" fill="white" fill-opacity="0.1"/>
<path d="M873.266 492.732C873.467 492.283 873.034 491.849 872.586 492.051C872.489 492.096 872.415 492.171 872.37 492.268C872.161 492.717 872.601 493.151 873.049 492.949C873.146 492.904 873.221 492.829 873.266 492.732Z" fill="white" fill-opacity="0.1"/>
<path d="M499.263 307.732C499.472 307.283 499.032 306.849 498.584 307.051C498.487 307.096 498.412 307.171 498.367 307.268C498.166 307.717 498.599 308.151 499.046 307.949C499.143 307.904 499.218 307.829 499.263 307.732Z" fill="white" fill-opacity="0.8"/>
<path d="M494.25 441.756C494.451 441.307 494.019 440.873 493.571 441.075C493.474 441.12 493.399 441.195 493.354 441.292C493.145 441.741 493.586 442.175 494.033 441.973C494.131 441.928 494.205 441.853 494.25 441.756Z" fill="white" fill-opacity="0.1"/>
<path d="M676.289 324.167C676.491 323.719 676.058 323.286 675.61 323.487C675.513 323.532 675.438 323.607 675.393 323.704C675.184 324.152 675.625 324.592 676.073 324.383C676.17 324.338 676.244 324.264 676.289 324.167Z" fill="white" fill-opacity="0.1"/>
<path d="M607.363 506.22C607.565 505.771 607.132 505.337 606.684 505.539C606.587 505.584 606.512 505.659 606.468 505.756C606.259 506.205 606.699 506.639 607.147 506.437C607.244 506.392 607.318 506.317 607.363 506.22Z" fill="white" fill-opacity="0.1"/>
<path d="M800.048 377.054C799.599 376.845 799.165 377.285 799.367 377.733C799.412 377.83 799.487 377.904 799.584 377.949C800.033 378.151 800.467 377.718 800.265 377.27C800.221 377.173 800.146 377.098 800.048 377.054Z" fill="white" fill-opacity="0.1"/>
<path d="M438.949 367.18C439.151 366.731 438.718 366.297 438.27 366.499C438.173 366.544 438.098 366.619 438.054 366.716C437.845 367.165 438.285 367.599 438.733 367.397C438.83 367.352 438.904 367.278 438.949 367.18Z" fill="white" fill-opacity="0.1"/>
<path d="M479.337 337.36C479.546 336.911 479.106 336.477 478.658 336.679C478.561 336.724 478.486 336.799 478.441 336.896C478.24 337.345 478.673 337.779 479.121 337.577C479.218 337.532 479.292 337.457 479.337 337.36Z" fill="white" fill-opacity="0.1"/>
<path d="M761.334 502.243C761.536 501.794 761.102 501.36 760.653 501.562C760.555 501.607 760.481 501.682 760.436 501.779C760.234 502.228 760.668 502.662 761.117 502.46C761.214 502.415 761.289 502.341 761.334 502.243Z" fill="white" fill-opacity="0.1"/>
<path d="M558.654 330.899C558.445 330.45 558.885 330.016 559.333 330.218C559.43 330.263 559.505 330.338 559.55 330.435C559.751 330.884 559.318 331.318 558.871 331.116C558.774 331.071 558.699 330.996 558.654 330.899Z" fill="white" fill-opacity="0.8"/>
<path d="M801.367 425.732C801.166 425.283 801.599 424.849 802.046 425.051C802.143 425.096 802.218 425.171 802.263 425.268C802.472 425.717 802.032 426.151 801.584 425.949C801.487 425.904 801.412 425.829 801.367 425.732Z" fill="white" fill-opacity="0.1"/>
<path d="M777.802 397.403C777.593 396.954 778.033 396.52 778.481 396.722C778.578 396.767 778.652 396.842 778.697 396.939C778.899 397.388 778.466 397.822 778.018 397.62C777.921 397.576 777.846 397.501 777.802 397.403Z" fill="white" fill-opacity="0.8"/>
<path d="M821.295 469.688C821.093 469.239 821.526 468.805 821.974 469.007C822.071 469.052 822.146 469.127 822.191 469.224C822.4 469.673 821.959 470.107 821.511 469.905C821.414 469.86 821.34 469.785 821.295 469.688Z" fill="white" fill-opacity="0.1"/>
<path d="M866.387 435.181C865.938 435.384 865.504 434.949 865.706 434.5C865.751 434.403 865.826 434.328 865.923 434.283C866.372 434.081 866.806 434.515 866.604 434.964C866.559 435.062 866.485 435.137 866.387 435.181Z" fill="white" fill-opacity="0.8"/>
<path d="M842.048 402.946C841.599 403.155 841.165 402.715 841.367 402.267C841.412 402.17 841.487 402.096 841.584 402.051C842.033 401.849 842.467 402.282 842.265 402.73C842.221 402.827 842.146 402.902 842.048 402.946Z" fill="white" fill-opacity="0.1"/>
<path d="M450.196 318.162C449.993 317.713 450.428 317.279 450.877 317.481C450.974 317.526 451.049 317.601 451.094 317.698C451.296 318.147 450.862 318.581 450.413 318.379C450.315 318.334 450.24 318.259 450.196 318.162Z" fill="white" fill-opacity="0.1"/>
<path d="M637.37 459.733C637.161 459.285 637.601 458.845 638.049 459.054C638.146 459.098 638.221 459.173 638.266 459.27C638.467 459.718 638.034 460.151 637.586 459.949C637.489 459.904 637.415 459.83 637.37 459.733Z" fill="white" fill-opacity="0.1"/>
<path d="M569.006 357.24C568.804 356.791 569.238 356.357 569.687 356.559C569.784 356.604 569.859 356.679 569.904 356.776C570.106 357.225 569.672 357.659 569.223 357.457C569.126 357.412 569.051 357.337 569.006 357.24Z" fill="white" fill-opacity="0.8"/>
<path d="M516.367 370.732C516.166 370.283 516.599 369.849 517.046 370.051C517.143 370.096 517.218 370.171 517.263 370.268C517.472 370.717 517.032 371.151 516.584 370.949C516.487 370.904 516.412 370.829 516.367 370.732Z" fill="white" fill-opacity="0.1"/>
<path d="M574.786 392.59C574.577 392.141 575.017 391.707 575.465 391.909C575.562 391.954 575.637 392.029 575.682 392.126C575.883 392.575 575.45 393.009 575.002 392.807C574.905 392.763 574.831 392.688 574.786 392.59Z" fill="white" fill-opacity="0.1"/>
<path d="M464.051 388.73C463.849 388.282 464.282 387.849 464.73 388.051C464.827 388.096 464.902 388.17 464.946 388.267C465.155 388.715 464.715 389.155 464.267 388.946C464.17 388.902 464.096 388.827 464.051 388.73Z" fill="white" fill-opacity="0.1"/>
<path d="M652.125 495.254C651.923 494.805 652.357 494.371 652.806 494.573C652.904 494.618 652.978 494.693 653.023 494.79C653.225 495.239 652.791 495.673 652.342 495.471C652.245 495.426 652.17 495.351 652.125 495.254Z" fill="white" fill-opacity="0.1"/>
<path d="M905.048 375.946C904.599 376.155 904.165 375.715 904.367 375.267C904.412 375.17 904.487 375.096 904.584 375.051C905.033 374.849 905.467 375.282 905.265 375.73C905.221 375.827 905.146 375.902 905.048 375.946Z" fill="white" fill-opacity="0.1"/>
<path d="M235.054 409.732C234.845 409.283 235.285 408.849 235.733 409.051C235.83 409.096 235.904 409.171 235.949 409.268C236.151 409.717 235.718 410.151 235.27 409.949C235.173 409.904 235.098 409.829 235.054 409.732Z" fill="white" fill-opacity="0.1"/>
<path d="M440.054 555.732C439.845 555.283 440.285 554.849 440.733 555.051C440.83 555.096 440.904 555.171 440.949 555.268C441.151 555.717 440.718 556.151 440.27 555.949C440.173 555.904 440.098 555.829 440.054 555.732Z" fill="white" fill-opacity="0.1"/>
<path d="M343.054 550.732C342.845 550.283 343.285 549.849 343.733 550.051C343.83 550.096 343.904 550.171 343.949 550.268C344.151 550.717 343.718 551.151 343.27 550.949C343.173 550.904 343.098 550.829 343.054 550.732Z" fill="white" fill-opacity="0.8"/>
<path d="M436.054 518.732C435.845 518.283 436.285 517.849 436.733 518.051C436.83 518.096 436.904 518.171 436.949 518.268C437.151 518.717 436.718 519.151 436.27 518.949C436.173 518.904 436.098 518.829 436.054 518.732Z" fill="white" fill-opacity="0.1"/>
<path d="M319.216 438.883C319.007 438.434 319.447 438 319.895 438.202C319.992 438.247 320.066 438.322 320.111 438.419C320.313 438.868 319.88 439.302 319.432 439.1C319.335 439.055 319.26 438.98 319.216 438.883Z" fill="white" fill-opacity="0.1"/>
<path d="M434.929 436.8C434.72 436.351 435.16 435.917 435.608 436.119C435.705 436.164 435.779 436.239 435.824 436.336C436.026 436.785 435.593 437.219 435.145 437.017C435.048 436.972 434.973 436.898 434.929 436.8Z" fill="white" fill-opacity="0.1"/>
<path d="M367.584 497.126C367.382 496.677 367.816 496.243 368.265 496.445C368.362 496.49 368.437 496.565 368.482 496.662C368.684 497.111 368.25 497.545 367.801 497.343C367.704 497.298 367.629 497.223 367.584 497.126Z" fill="white" fill-opacity="0.1"/>
<path d="M729.949 207.732C730.151 207.283 729.718 206.849 729.27 207.051C729.173 207.096 729.098 207.171 729.054 207.268C728.845 207.717 729.285 208.151 729.733 207.949C729.83 207.904 729.904 207.829 729.949 207.732Z" fill="white" fill-opacity="0.1"/>
<path d="M699.949 296.732C700.151 296.283 699.718 295.849 699.27 296.051C699.173 296.096 699.098 296.171 699.054 296.268C698.845 296.717 699.285 297.151 699.733 296.949C699.83 296.904 699.904 296.829 699.949 296.732Z" fill="white" fill-opacity="0.8"/>
<path d="M605.051 249.709C604.849 249.26 605.282 248.825 605.73 249.028C605.827 249.072 605.902 249.147 605.946 249.245C606.155 249.694 605.715 250.128 605.267 249.926C605.17 249.881 605.096 249.806 605.051 249.709Z" fill="white" fill-opacity="0.1"/>
<path d="M686.576 253.529C686.374 253.08 686.808 252.646 687.257 252.848C687.355 252.893 687.43 252.968 687.474 253.065C687.676 253.514 687.242 253.948 686.793 253.746C686.696 253.701 686.621 253.626 686.576 253.529Z" fill="white" fill-opacity="0.1"/>
<path d="M736.054 281.732C735.845 281.283 736.285 280.849 736.733 281.051C736.83 281.096 736.904 281.171 736.949 281.268C737.151 281.717 736.718 282.151 736.27 281.949C736.173 281.904 736.098 281.829 736.054 281.732Z" fill="white" fill-opacity="0.1"/>
<path d="M639.054 276.732C638.845 276.283 639.285 275.849 639.733 276.051C639.83 276.096 639.904 276.171 639.949 276.268C640.151 276.717 639.718 277.151 639.27 276.949C639.173 276.904 639.098 276.829 639.054 276.732Z" fill="white" fill-opacity="0.8"/>
<path d="M732.054 244.732C731.845 244.283 732.285 243.849 732.733 244.051C732.83 244.096 732.904 244.171 732.949 244.268C733.151 244.717 732.718 245.151 732.27 244.949C732.173 244.904 732.098 244.829 732.054 244.732Z" fill="white" fill-opacity="0.1"/>
<path d="M663.584 223.126C663.382 222.677 663.816 222.243 664.265 222.445C664.362 222.49 664.437 222.565 664.482 222.662C664.684 223.111 664.25 223.545 663.801 223.343C663.704 223.298 663.629 223.223 663.584 223.126Z" fill="white" fill-opacity="0.1"/>
<path d="M206.315 479.265C206.113 478.816 206.547 478.382 206.996 478.584C207.093 478.629 207.168 478.704 207.213 478.801C207.415 479.25 206.981 479.684 206.532 479.482C206.434 479.437 206.36 479.362 206.315 479.265Z" fill="white" fill-opacity="0.8"/>
<path d="M90.051 242.732C89.8489 242.283 90.283 241.849 90.732 242.051C90.8293 242.096 90.9041 242.171 90.949 242.268C91.1511 242.717 90.717 243.151 90.268 242.949C90.1707 242.904 90.0959 242.829 90.051 242.732Z" fill="white" fill-opacity="0.1"/>
<path d="M332.838 192.713C332.636 192.266 333.069 191.833 333.517 192.034C333.614 192.079 333.689 192.154 333.734 192.251C333.943 192.699 333.502 193.139 333.054 192.93C332.957 192.885 332.883 192.81 332.838 192.713Z" fill="white" fill-opacity="0.1"/>
<path d="M225.48 174.16C225.278 173.711 225.712 173.277 226.161 173.479C226.258 173.524 226.333 173.599 226.378 173.696C226.58 174.145 226.146 174.579 225.697 174.377C225.599 174.332 225.525 174.258 225.48 174.16Z" fill="white" fill-opacity="0.1"/>
<path d="M225.054 213.732C224.845 213.283 225.285 212.849 225.733 213.051C225.83 213.096 225.904 213.171 225.949 213.268C226.151 213.717 225.718 214.151 225.27 213.949C225.173 213.904 225.098 213.829 225.054 213.732Z" fill="white" fill-opacity="0.1"/>
<path d="M391.054 220.732C390.845 220.283 391.285 219.849 391.733 220.051C391.83 220.096 391.904 220.171 391.949 220.268C392.151 220.717 391.718 221.151 391.27 220.949C391.173 220.904 391.098 220.829 391.054 220.732Z" fill="white" fill-opacity="0.1"/>
<path d="M134.051 309.732C133.849 309.283 134.283 308.849 134.732 309.051C134.829 309.096 134.904 309.171 134.949 309.268C135.151 309.717 134.717 310.151 134.268 309.949C134.171 309.904 134.096 309.829 134.051 309.732Z" fill="white" fill-opacity="0.1"/>
<path d="M81.7696 297.17C81.5681 296.721 82.001 296.287 82.4488 296.489C82.5458 296.534 82.6205 296.609 82.6652 296.706C82.8742 297.155 82.4339 297.589 81.986 297.387C81.889 297.342 81.8144 297.267 81.7696 297.17Z" fill="white" fill-opacity="0.1"/>
</g>
</g>
<defs>
<filter id="filter0_f_293_1532" x="-212.157" y="-355.157" width="1711.31" height="1505.31" filterUnits="userSpaceOnUse" color-interpolation-filters="sRGB">
<feFlood flood-opacity="0" result="BackgroundImageFix"/>
<feBlend mode="normal" in="SourceGraphic" in2="BackgroundImageFix" result="shape"/>
<feGaussianBlur stdDeviation="253.579" result="effect1_foregroundBlur_293_1532"/>
</filter>
<radialGradient id="paint0_radial_293_1532" cx="0" cy="0" r="1" gradientUnits="userSpaceOnUse" gradientTransform="translate(640) rotate(90) scale(516.5 777.788)">
<stop stop-color="white" stop-opacity="0.05"/>
<stop offset="1" stop-color="white" stop-opacity="0"/>
</radialGradient>
<radialGradient id="paint1_radial_293_1532" cx="0" cy="0" r="1" gradientUnits="userSpaceOnUse" gradientTransform="translate(651.536 363.716) scale(471.575 1186.54)">
<stop stop-color="#5E5D87"/>
<stop offset="1" stop-color="#24233B" stop-opacity="0"/>
</radialGradient>
<clipPath id="clip0_293_1532">
<rect width="1280" height="850" fill="white"/>
</clipPath>
</defs>
</svg>
