<svg width="129" height="130" viewBox="0 0 129 130" fill="none" xmlns="http://www.w3.org/2000/svg">
<g filter="url(#filter0_b_296_2138)">
<rect y="0.142883" width="129" height="129" rx="64.5" fill="#F8F8F8" fill-opacity="0.01"/>
<rect y="0.142883" width="129" height="129" rx="64.5" fill="#121212" fill-opacity="0.3"/>
<rect x="1.51339" y="1.65628" width="125.973" height="125.973" rx="62.9866" stroke="url(#paint0_linear_296_2138)" stroke-opacity="0.25" stroke-width="3.02679"/>
<path fill-rule="evenodd" clip-rule="evenodd" d="M40.0625 65.1119C40.0625 77.5406 50.138 87.6161 62.5667 87.6161V74.6418C58.5401 74.6418 55.2758 71.3775 55.2758 67.3509V41.6891H40.0625V65.1119ZM87.9996 64.1937C87.9996 51.765 77.9241 41.6895 65.4953 41.6895V54.6639C69.522 54.6639 72.7862 57.9281 72.7862 61.9548V87.6165H87.9996V64.1937Z" fill="url(#paint1_linear_296_2138)"/>
</g>
<defs>
<filter id="filter0_b_296_2138" x="-24.2143" y="-24.0714" width="177.429" height="177.429" filterUnits="userSpaceOnUse" color-interpolation-filters="sRGB">
<feFlood flood-opacity="0" result="BackgroundImageFix"/>
<feGaussianBlur in="BackgroundImageFix" stdDeviation="12.1071"/>
<feComposite in2="SourceAlpha" operator="in" result="effect1_backgroundBlur_296_2138"/>
<feBlend mode="normal" in="SourceGraphic" in2="effect1_backgroundBlur_296_2138" result="shape"/>
</filter>
<linearGradient id="paint0_linear_296_2138" x1="64.5" y1="0.142882" x2="120.618" y2="141.801" gradientUnits="userSpaceOnUse">
<stop stop-color="white" stop-opacity="0.4"/>
<stop offset="0.4" stop-color="white" stop-opacity="0.01"/>
<stop offset="0.6" stop-color="white" stop-opacity="0.01"/>
<stop offset="1" stop-color="white" stop-opacity="0.1"/>
</linearGradient>
<linearGradient id="paint1_linear_296_2138" x1="64.031" y1="41.6891" x2="64.031" y2="87.6165" gradientUnits="userSpaceOnUse">
<stop stop-color="#F8F8F8" stop-opacity="0.9"/>
<stop offset="1" stop-color="#F8F8F8" stop-opacity="0.3"/>
</linearGradient>
</defs>
</svg>
