<svg width="34" height="33" viewBox="0 0 34 33" fill="none" xmlns="http://www.w3.org/2000/svg">
<path d="M16.8008 32.8496C7.82591 32.8496 0.550781 25.5745 0.550781 16.5996C0.550781 7.62473 7.82591 0.349609 16.8008 0.349609C25.7757 0.349609 33.0508 7.62473 33.0508 16.5996C33.0508 25.5745 25.7757 32.8496 16.8008 32.8496ZM16.8008 29.5996C20.2486 29.5996 23.5552 28.23 25.9932 25.792C28.4311 23.354 29.8008 20.0474 29.8008 16.5996C29.8008 13.1518 28.4311 9.84519 25.9932 7.40722C23.5552 4.96925 20.2486 3.59961 16.8008 3.59961C13.353 3.59961 10.0464 4.96925 7.60839 7.40722C5.17042 9.84519 3.80078 13.1518 3.80078 16.5996C3.80078 20.0474 5.17042 23.354 7.60839 25.792C10.0464 28.23 13.353 29.5996 16.8008 29.5996ZM8.67578 18.2246H23.3008V21.4746H16.8008V26.3496L8.67578 18.2246ZM16.8008 11.7246V6.84961L24.9258 14.9746H10.3008V11.7246H16.8008Z" fill="white"/>
</svg>
