<svg width="30" height="30" viewBox="0 0 30 30" fill="none" xmlns="http://www.w3.org/2000/svg">
<path d="M16.4258 14.7998C16.4258 13.9023 17.1533 13.1748 18.0508 13.1748H26.1758C27.0733 13.1748 27.8008 13.9023 27.8008 14.7998V26.1748C27.8008 27.0723 27.0733 27.7998 26.1758 27.7998H18.0508C17.1533 27.7998 16.4258 27.0723 16.4258 26.1748V14.7998Z" stroke="white" stroke-width="3.25" stroke-linecap="round"/>
<path d="M1.80078 3.4248C1.80078 2.52735 2.52833 1.7998 3.42578 1.7998H9.92578C10.8232 1.7998 11.5508 2.52735 11.5508 3.4248V14.7998C11.5508 15.6973 10.8232 16.4248 9.92578 16.4248H3.42578C2.52833 16.4248 1.80078 15.6973 1.80078 14.7998V3.4248Z" stroke="white" stroke-width="3.25" stroke-linecap="round"/>
<path d="M1.80078 22.9248C1.80078 22.0273 2.52833 21.2998 3.42578 21.2998H9.92578C10.8232 21.2998 11.5508 22.0273 11.5508 22.9248V26.1748C11.5508 27.0723 10.8232 27.7998 9.92578 27.7998H3.42578C2.52833 27.7998 1.80078 27.0723 1.80078 26.1748V22.9248Z" stroke="white" stroke-width="3.25" stroke-linecap="round"/>
<path d="M16.4258 3.4248C16.4258 2.52735 17.1533 1.7998 18.0508 1.7998H26.1758C27.0733 1.7998 27.8008 2.52735 27.8008 3.4248V6.6748C27.8008 7.57226 27.0733 8.2998 26.1758 8.2998H18.0508C17.1533 8.2998 16.4258 7.57226 16.4258 6.6748V3.4248Z" stroke="white" stroke-width="3.25" stroke-linecap="round"/>
</svg>
