<svg width="30" height="30" viewBox="0 0 30 30" fill="none" xmlns="http://www.w3.org/2000/svg">
<path d="M8.73372 21.0663L20.8671 8.93294M28.4504 14.9996C28.4504 22.5384 22.3391 28.6496 14.8004 28.6496C7.26171 28.6496 1.15039 22.5384 1.15039 14.9996C1.15039 7.46093 7.26171 1.34961 14.8004 1.34961C22.3391 1.34961 28.4504 7.46093 28.4504 14.9996ZM22.3837 19.5496C22.3837 21.2249 21.0257 22.5829 19.3504 22.5829C17.6751 22.5829 16.3171 21.2249 16.3171 19.5496C16.3171 17.8743 17.6751 16.5163 19.3504 16.5163C21.0257 16.5163 22.3837 17.8743 22.3837 19.5496ZM13.2837 10.4496C13.2837 12.1249 11.9257 13.4829 10.2504 13.4829C8.57513 13.4829 7.21706 12.1249 7.21706 10.4496C7.21706 8.77434 8.57513 7.41628 10.2504 7.41628C11.9257 7.41628 13.2837 8.77434 13.2837 10.4496Z" stroke="white" stroke-width="2.275" stroke-linecap="round" stroke-linejoin="round"/>
</svg>
