<svg width="32" height="32" viewBox="0 0 32 32" fill="none" xmlns="http://www.w3.org/2000/svg">
<path d="M14.6664 5.32129C14.6664 14.6975 8.0309 13.1108 8.17517 19.4578C8.2392 22.2739 10.1157 24.144 12.5595 25.0092C13.2567 25.256 13.8906 24.5094 13.5475 23.8542C12.5403 21.9304 11.8736 18.8017 15.8204 16.1401C15.9986 19.7493 18.9938 20.3233 18.9938 22.9198C18.9938 23.2476 18.9731 23.5431 18.9369 23.8092C18.85 24.4493 19.515 24.9297 20.0985 24.6527C22.1525 23.6777 23.7344 21.9113 24.0425 19.3136C25.0523 10.8029 14.6664 5.32129 14.6664 5.32129Z" fill="white"/>
<path d="M15.7763 0C7.06327 0 0 7.06327 0 15.7763C0 24.4894 7.06327 31.5527 15.7763 31.5527C24.4894 31.5527 31.5527 24.4894 31.5527 15.7763C31.5527 7.06327 24.4893 0 15.7763 0ZM15.7763 2.85643C18.8295 2.85643 21.6348 3.91615 23.8459 5.68698L5.68692 23.8458C3.91609 21.6347 2.85637 18.8295 2.85637 15.7763C2.85643 8.64084 8.64084 2.85643 15.7763 2.85643ZM15.7763 28.6962C12.7231 28.6962 9.91792 27.6365 7.70677 25.8656L25.8657 7.70671C27.6365 9.91779 28.6962 12.7231 28.6962 15.7763C28.6962 22.9117 22.9117 28.6962 15.7763 28.6962Z" fill="white"/>
</svg>
