<svg width="33" height="33" viewBox="0 0 33 33" fill="none" xmlns="http://www.w3.org/2000/svg">
<g clip-path="url(#clip0_622_4940)">
<g clip-path="url(#clip1_622_4940)">
<path d="M15.6293 5.77148C15.6293 15.1476 8.99379 13.561 9.13806 19.908C9.20209 22.7241 11.0786 24.5942 13.5224 25.4594C14.2196 25.7062 14.8534 24.9596 14.5104 24.3044C13.5032 22.3806 12.8365 19.2519 16.7833 16.5903C16.9615 20.1995 19.9567 20.7735 19.9567 23.37C19.9567 23.6978 19.936 23.9933 19.8998 24.2594C19.8129 24.8995 20.4779 25.3799 21.0614 25.1029C23.1154 24.1279 24.6973 22.3615 25.0054 19.7637C26.0152 11.2531 15.6293 5.77148 15.6293 5.77148Z" fill="white"/>
<path d="M16.7392 0.450195C8.02616 0.450195 0.962891 7.51347 0.962891 16.2265C0.962891 24.9396 8.02616 32.0029 16.7392 32.0029C25.4523 32.0029 32.5156 24.9396 32.5156 16.2265C32.5156 7.51347 25.4522 0.450195 16.7392 0.450195ZM16.7392 3.30663C19.7924 3.30663 22.5977 4.36635 24.8088 6.13717L6.64981 24.296C4.87898 22.0849 3.81926 19.2797 3.81926 16.2265C3.81932 9.09103 9.60373 3.30663 16.7392 3.30663ZM16.7392 29.1464C13.686 29.1464 10.8808 28.0867 8.66966 26.3158L26.8286 8.15691C28.5994 10.368 29.6591 13.1733 29.6591 16.2265C29.6591 23.3619 23.8746 29.1464 16.7392 29.1464Z" fill="white"/>
</g>
</g>
<defs>
<clipPath id="clip0_622_4940">
<rect width="31.8378" height="31.8378" fill="white" transform="translate(0.5625 0.421875)"/>
</clipPath>
<clipPath id="clip1_622_4940">
<rect width="31.5526" height="31.5526" fill="white" transform="translate(0.962891 0.450195)"/>
</clipPath>
</defs>
</svg>
