<svg width="41" height="40" viewBox="0 0 41 40" fill="none" xmlns="http://www.w3.org/2000/svg">
<g clip-path="url(#clip0_622_4928)">
<path d="M20.8612 16.1541L17.2197 19.7969L20.8625 23.4383L24.5039 19.7956L20.8612 16.1541Z" fill="white"/>
<path fill-rule="evenodd" clip-rule="evenodd" d="M32.5647 19.7795L32.4244 19.8997L24.8686 27.4755L22.7442 25.3711L28.3559 19.7795L16.9121 8.3357V4.12695L17.0524 4.26725L32.5647 19.7795Z" fill="white"/>
<path fill-rule="evenodd" clip-rule="evenodd" d="M16.9123 8.3357L5.48856 19.7795L19.0167 33.3277L16.9123 35.432L16.7921 35.2917L1.25977 19.7795L16.9123 4.12695V8.3357Z" fill="white"/>
<path fill-rule="evenodd" clip-rule="evenodd" d="M24.6877 31.2238V35.4325L24.5674 35.2922L9.03516 19.8L16.7312 12.084L18.8556 14.2084L13.2439 19.8L24.6877 31.2238Z" fill="white"/>
<path d="M24.6884 31.2233L36.1121 19.7995L22.584 6.25137L24.6884 4.12695L24.8086 4.26725L40.3409 19.7995L40.2006 19.9198L24.6884 35.432V31.2233Z" fill="white"/>
</g>
<defs>
<clipPath id="clip0_622_4928">
<rect width="39.3525" height="39.3525" fill="white" transform="translate(0.804688 0.46582)"/>
</clipPath>
</defs>
</svg>
