<svg width="37" height="37" viewBox="0 0 37 37" fill="none" xmlns="http://www.w3.org/2000/svg">
<path fill-rule="evenodd" clip-rule="evenodd" d="M18.5538 36.6076C28.6233 36.6076 36.7863 28.4446 36.7863 18.3751C36.7863 8.30555 28.6233 0.142578 18.5538 0.142578C8.48426 0.142578 0.321289 8.30555 0.321289 18.3751C0.321289 28.4446 8.48426 36.6076 18.5538 36.6076ZM23.2229 19.0681L19.8102 15.6554C19.6008 15.446 19.2612 15.446 19.0518 15.6554C18.8424 15.8648 18.8424 16.2044 19.0518 16.4138L21.549 18.911H14.2637C13.9675 18.911 13.7274 19.1511 13.7274 19.4473C13.7274 19.7434 13.9675 19.9835 14.2637 19.9835H21.549L19.0518 22.4808C18.8424 22.6902 18.8424 23.0297 19.0518 23.2391C19.2612 23.4485 19.6008 23.4485 19.8102 23.2391L23.2229 19.8265C23.4323 19.617 23.4323 19.2775 23.2229 19.0681Z" fill="white"/>
</svg>
