<svg width="28" height="29" viewBox="0 0 28 29" fill="none" xmlns="http://www.w3.org/2000/svg">
<g clip-path="url(#clip0_591_5737)">
<path d="M13.2969 4.4006L8.47249 3.09821C7.38399 2.8036 6.26263 3.44816 5.9686 4.53724L4.77344 8.96272C6.73135 6.59489 9.77488 4.90507 13.2969 4.4006Z" fill="white"/>
<path d="M26.228 8.96252L25.0334 4.53704C24.7394 3.44796 23.618 2.80397 22.5289 3.09801L17.7051 4.4004C21.2266 4.90487 24.2701 6.59469 26.228 8.96252Z" fill="white"/>
<path d="M26.5329 10.3579C24.598 7.30917 20.884 5.15696 16.5444 4.85659C16.2002 4.83295 15.8532 4.81738 15.5003 4.81738C15.1492 4.81738 14.8021 4.83237 14.4574 4.85659C10.2539 5.14716 6.6384 7.17599 4.65455 10.0742C4.60958 10.0454 4.55999 10.0235 4.50638 10.0091C4.48562 10.0033 4.46659 9.99467 4.44526 9.99179C4.44526 9.99179 4.41528 9.98717 4.3657 9.98025C4.35302 9.97852 4.33053 9.97507 4.31497 9.97276C4.31208 10.0033 4.30862 10.0339 4.30632 10.0662C4.29421 10.2161 4.28614 10.3821 4.28095 10.5493C4.2798 10.5868 4.2798 10.6237 4.27922 10.6611C4.27519 10.8675 4.27461 11.0728 4.27691 11.2498C4.28153 11.56 4.18236 11.5848 4.05437 11.3011C4.03708 11.2625 4.01747 11.2163 3.99903 11.1748C3.95117 11.0664 3.90274 10.9529 3.85259 10.8324C3.82549 10.7666 3.79781 10.7027 3.77072 10.6352C3.75111 10.5862 3.7344 10.5378 3.71537 10.4888C3.64215 10.2985 3.57815 10.1146 3.52569 9.93759C3.39943 9.94739 3.25472 9.95719 3.10424 9.97852C3.07311 9.9866 3.03506 9.99697 3.00277 10.0056C2.99643 10.0097 2.99182 10.016 2.98548 10.02C2.9555 10.2172 2.93762 10.4928 2.93013 10.7713C2.92263 11.0157 2.92321 11.2625 2.92609 11.4723C2.93071 11.7825 2.83154 11.8073 2.70355 11.5236C2.61592 11.3288 2.51502 11.0958 2.4199 10.8577C2.33976 10.6565 2.26884 10.4582 2.20715 10.2662C2.01517 10.351 1.82491 10.4513 1.64734 10.5827C1.6433 10.585 1.63984 10.5885 1.63581 10.5914C1.61563 10.7736 1.60352 10.9967 1.59718 11.221C1.58968 11.4654 1.59026 11.7122 1.59314 11.922C1.59776 12.2322 1.49859 12.257 1.3706 11.9733C1.28297 11.7785 1.18207 11.5455 1.08695 11.3074C1.06216 11.2457 1.0414 11.1852 1.01776 11.1235C0.926093 11.2244 0.833847 11.3276 0.75025 11.4406C0.471783 11.7825 0.290175 12.2016 0.188705 12.6531C0.125286 13.1126 0.160454 13.6038 0.297093 14.084C0.406635 14.5643 0.584784 15.0272 0.692596 15.4775C0.841919 15.9243 0.970486 16.3625 1.1838 16.7632C1.35907 17.1731 1.62197 17.5369 1.84567 17.8805C1.89755 17.9416 1.94368 17.9993 1.99326 18.0592C2.20427 18.3181 2.40145 18.5683 2.63552 18.7684C2.77101 18.8923 2.90303 19.0128 3.03102 19.1299C3.16824 19.2331 3.30026 19.3328 3.42768 19.4285C3.45766 19.4521 3.49052 19.4694 3.52108 19.4919C3.68539 19.6107 3.85201 19.7122 4.01286 19.8015C4.0636 19.8298 4.11837 19.8615 4.16564 19.8874C4.27692 19.9474 4.38069 20.0027 4.47697 20.0541C4.49254 20.0598 4.50465 20.0633 4.51964 20.0685C4.59689 20.095 4.67184 20.1209 4.73757 20.1434C5.05062 20.2518 5.23627 20.3077 5.23627 20.3077C5.28297 20.3216 5.33255 20.3204 5.38271 20.3123C5.47495 20.3602 5.56893 20.4098 5.66002 20.4542C5.98576 20.5943 6.29306 20.7315 6.57556 20.8635C6.85576 21.0019 7.12096 21.1103 7.3608 21.1956C7.59891 21.2844 7.80646 21.3662 7.97596 21.44C8.3167 21.5801 8.51099 21.6707 8.51099 21.6707C8.52598 21.6764 8.53347 21.6931 8.52828 21.7076C8.52367 21.7197 8.50983 21.7266 8.49715 21.726C8.49715 21.726 8.28729 21.6995 7.92177 21.6349C7.73785 21.6061 7.51589 21.5634 7.26221 21.5098C7.00738 21.4591 6.71739 21.4066 6.41701 21.2959C6.1126 21.1985 5.78282 21.0872 5.43575 20.9638C5.30199 20.9142 5.16824 20.8485 5.03448 20.7839C7.25818 23.6315 11.1175 25.5219 15.4997 25.5219C17.9097 25.5219 20.1605 24.9494 22.0694 23.963C21.7148 23.7347 21.4075 23.4377 21.1688 23.0907C21.1901 23.0878 21.2115 23.0855 21.234 23.082C21.4928 23.0445 21.7494 22.9978 21.9639 22.9558C22.2763 22.8952 22.2763 22.7805 21.9679 22.7015C21.7592 22.6485 21.5147 22.5822 21.2743 22.5078C21.1054 22.4559 20.9394 22.4 20.7912 22.3458C20.7082 22.1111 20.6488 21.8655 20.6234 21.6095C20.8206 21.594 21.0247 21.5726 21.2345 21.5409C21.4934 21.5029 21.75 21.4568 21.9644 21.4147C22.2769 21.3541 22.2769 21.2388 21.9685 21.1604C21.7598 21.1068 21.5153 21.0411 21.2749 20.9667C21.0524 20.8981 20.8315 20.8237 20.6563 20.7517C20.6972 20.5066 20.7641 20.2697 20.8581 20.0466C20.9826 20.0333 21.1077 20.0177 21.2351 19.9993C21.494 19.9612 21.7505 19.9151 21.965 19.873C22.2775 19.8119 22.2775 19.6972 21.969 19.6188C21.7603 19.5651 21.5159 19.4988 21.2755 19.4245C21.2582 19.4193 21.2409 19.4135 21.2242 19.4083C21.8042 18.6167 22.7376 18.0996 23.7944 18.0996H25.3712C26.0624 18.0996 26.7007 18.3221 27.2224 18.6963C27.7044 17.5951 27.9679 16.4069 27.9679 15.1696C27.9667 13.4343 27.4473 11.7969 26.5329 10.3579ZM19.1486 11.3178C19.509 10.6248 20.1172 10.114 20.8609 9.87936C21.6041 9.64529 22.3951 9.71389 23.0887 10.0748C23.2294 10.148 23.2847 10.3221 23.2103 10.4634C23.1371 10.6046 22.9624 10.6588 22.8217 10.5862C21.6756 9.99006 20.2567 10.438 19.66 11.5836C19.6081 11.6828 19.5078 11.7393 19.404 11.7393C19.3596 11.7393 19.3135 11.7283 19.272 11.7064C19.1302 11.6332 19.0754 11.4591 19.1486 11.3178ZM23.065 12.6144C23.0691 12.6237 23.0662 12.6346 23.0581 12.6404C23.0581 12.6404 22.8292 12.8133 22.5075 13.0457C22.2971 13.1979 22.0475 13.3743 21.7938 13.5473C21.6358 13.6609 21.4807 13.7802 21.3274 13.8771C21.1677 13.9635 21.0137 14.035 20.8725 14.0806C20.7295 14.1232 20.6113 14.1601 20.5202 14.1722C20.432 14.189 20.3772 14.1918 20.3772 14.1918C20.3645 14.1924 20.3524 14.182 20.3524 14.1688C20.3524 14.163 20.3536 14.1578 20.3565 14.1538C20.3565 14.1538 20.3859 14.1082 20.4435 14.0402C20.5 13.9676 20.5911 13.8834 20.6984 13.7808C20.8079 13.6805 20.9468 13.5824 21.1014 13.4873C21.2017 13.4343 21.3147 13.3864 21.4254 13.3374C21.4911 13.308 21.5528 13.2775 21.6202 13.2475C22.3184 12.9079 23.0356 12.6029 23.0356 12.6029C23.0472 12.5983 23.0598 12.6035 23.065 12.6144ZM8.03592 10.0748C8.72834 9.71447 9.5205 9.64529 10.2637 9.87936C11.0074 10.114 11.6156 10.6248 11.976 11.3178C12.0492 11.4591 11.9944 11.6332 11.8537 11.7064C11.8111 11.7283 11.7655 11.7393 11.7211 11.7393C11.6168 11.7393 11.5165 11.6828 11.4652 11.5836C10.8679 10.4369 9.44901 9.99006 8.30286 10.5862C8.16103 10.6594 7.98749 10.6046 7.91427 10.4634C7.8399 10.3221 7.89467 10.148 8.03592 10.0748ZM10.7675 14.1532C10.775 14.1647 10.7716 14.1797 10.7601 14.1867C10.7554 14.1895 10.7508 14.1907 10.7456 14.1907C10.7456 14.1907 10.6914 14.1878 10.6032 14.1711C10.5121 14.159 10.394 14.1221 10.251 14.0794C10.1097 14.0344 9.95521 13.963 9.79551 13.8759C9.64215 13.779 9.48764 13.6597 9.32967 13.5461C9.10482 13.3933 8.88343 13.2371 8.68971 13.0976C8.32996 12.8387 8.0659 12.6398 8.0659 12.6398C8.0561 12.6323 8.05437 12.6191 8.06187 12.6093C8.06821 12.6012 8.07859 12.5983 8.08781 12.6023C8.08781 12.6023 8.8056 12.9079 9.50378 13.2469C9.62889 13.3034 9.74938 13.3593 9.86988 13.4164C9.91946 13.44 9.97481 13.4619 10.0221 13.4867C10.1766 13.5819 10.3155 13.6799 10.4251 13.7802C10.5335 13.8828 10.6246 13.967 10.6799 14.0396C10.7387 14.1077 10.7675 14.1532 10.7675 14.1532ZM7.80761 15.7917C7.79551 15.7935 7.78455 15.7848 7.78282 15.7733C7.78167 15.7623 7.78744 15.7537 7.79608 15.7502C7.79608 15.7502 8.51964 15.4585 9.25299 15.2054C9.43517 15.1368 9.61563 15.0613 9.78917 15.0076C9.96559 14.9656 10.1334 14.9367 10.2815 14.9304C10.4309 14.9263 10.5548 14.9217 10.6453 14.9338C10.7347 14.9408 10.7877 14.9523 10.7877 14.9523C10.801 14.9552 10.8091 14.9673 10.8062 14.9811C10.805 14.9869 10.8021 14.9915 10.7987 14.9932C10.7987 14.9932 10.7583 15.0295 10.6839 15.0803C10.6113 15.1362 10.5012 15.1933 10.3697 15.2642C10.2377 15.3317 10.078 15.391 9.9039 15.4423C9.7269 15.4821 9.53319 15.5075 9.3412 15.5392C8.58017 15.6839 7.80761 15.7917 7.80761 15.7917ZM11.4686 15.2965C11.4565 15.3876 11.4196 15.5058 11.3769 15.6487C11.332 15.7906 11.2605 15.9445 11.1734 16.1042C11.0766 16.2576 10.9572 16.4121 10.8436 16.5701C10.4072 17.2117 9.93676 17.8344 9.93676 17.8344C9.92926 17.8442 9.916 17.8459 9.9062 17.8384C9.89813 17.8321 9.89525 17.8223 9.89928 17.8125C9.89928 17.8125 10.2048 17.0947 10.5439 16.3965C10.624 16.2195 10.6989 16.0391 10.7837 15.8788C10.8788 15.7237 10.9768 15.5848 11.0771 15.4758C11.1798 15.3674 11.2639 15.2763 11.3366 15.221C11.4046 15.1627 11.4502 15.1339 11.4502 15.1339C11.4617 15.1258 11.4767 15.1293 11.4836 15.1408C11.4865 15.146 11.4876 15.1506 11.4876 15.1552C11.4876 15.1552 11.4853 15.2083 11.4686 15.2965ZM17.5078 15.9284C16.6684 15.9284 15.9437 15.4568 15.562 14.7701C15.1809 15.4573 14.4562 15.9284 13.6162 15.9284C12.4268 15.9284 11.4605 14.9915 11.3948 13.8177C11.3925 13.7756 11.3821 13.7364 11.3821 13.6937C11.3821 13.5346 11.5113 13.4054 11.6704 13.4054C11.8295 13.4054 11.9587 13.5346 11.9587 13.6937C11.9587 13.7502 11.9696 13.8033 11.9754 13.858C12.0596 14.694 12.7583 15.3513 13.6162 15.3513C14.4435 15.3513 15.1256 14.7396 15.2484 13.9457C15.027 13.8909 14.8166 13.7813 14.6436 13.6084C14.1362 13.101 14.4603 12.69 15.366 12.69H15.7586C16.6649 12.69 16.9884 13.101 16.4816 13.6084C16.308 13.7813 16.0976 13.8903 15.8768 13.9457C15.9996 14.739 16.6811 15.3513 17.5084 15.3513C18.3645 15.3513 19.0627 14.6957 19.1492 13.8621C19.155 13.8056 19.1659 13.7508 19.1659 13.6931C19.1659 13.534 19.2957 13.4049 19.4542 13.4049C19.6133 13.4049 19.7425 13.534 19.7425 13.6931C19.7425 13.7277 19.7338 13.76 19.7321 13.794C19.6779 14.9788 18.7053 15.9284 17.5078 15.9284ZM21.2132 17.8413C21.204 17.8459 21.193 17.8425 21.1873 17.8344C21.1873 17.8344 20.7174 17.2123 20.281 16.5701C20.1674 16.4127 20.048 16.2576 19.9512 16.1042C19.8647 15.9445 19.7938 15.7906 19.7471 15.6487C19.7044 15.5058 19.6675 15.3876 19.656 15.2965C19.6393 15.2089 19.6364 15.1547 19.6364 15.1547C19.6358 15.1414 19.6462 15.1293 19.6594 15.1287C19.6646 15.1287 19.6698 15.1299 19.6739 15.1333C19.6739 15.1333 19.7188 15.1627 19.7869 15.2204C19.8595 15.2763 19.9437 15.3674 20.0463 15.4752C20.1466 15.5842 20.2446 15.7237 20.3398 15.8782C20.4245 16.0385 20.4995 16.2184 20.5796 16.3959C20.9192 17.0941 21.2242 17.8119 21.2242 17.8119C21.2294 17.8234 21.2247 17.8367 21.2132 17.8413ZM23.317 15.7917C23.317 15.7917 22.5444 15.6845 21.7817 15.5386C21.5897 15.5075 21.396 15.4821 21.2184 15.4429C21.0449 15.3905 20.8852 15.3328 20.7531 15.2642C20.6211 15.1933 20.5121 15.1351 20.4389 15.0803C20.364 15.0301 20.3242 14.9938 20.3242 14.9938C20.3138 14.984 20.3127 14.969 20.3219 14.9586C20.3253 14.9546 20.3305 14.9523 20.3346 14.9511C20.3346 14.9511 20.3876 14.9396 20.477 14.9327C20.5681 14.9206 20.6914 14.9258 20.8408 14.9292C20.9889 14.9361 21.1567 14.965 21.3331 15.0065C21.5072 15.0601 21.6871 15.1356 21.8693 15.2042C22.6021 15.4573 23.3262 15.7491 23.3262 15.7491C23.3372 15.7537 23.3424 15.7664 23.3383 15.7773C23.336 15.7871 23.3268 15.7929 23.317 15.7917Z" fill="white"/>
</g>
<defs>
<clipPath id="clip0_591_5737">
<rect width="27.8097" height="27.8097" fill="white" transform="translate(0.158203 0.369629)"/>
</clipPath>
</defs>
</svg>
