<svg width="32" height="32" viewBox="0 0 32 32" fill="none" xmlns="http://www.w3.org/2000/svg">
<g clip-path="url(#clip0_591_5714)">
<path d="M29.1178 6.92139H11.3484C10.2346 6.92139 9.32422 7.78794 9.32422 8.85567V10.6978H27.0936V11.2036V15.8432V16.1961H9.32422V18.2697C9.32422 19.3375 10.2346 20.2051 11.3484 20.2051H29.1178C30.2372 20.2051 31.142 19.3386 31.142 18.2697V8.85567C31.142 7.78794 30.2372 6.92139 29.1178 6.92139Z" fill="white"/>
<path d="M4.05284 20.8211V20.3513V15.714V15.3228H21.8199V13.3672C21.8199 12.2972 20.9152 11.4307 19.7957 11.4307H2.02864C0.912577 11.4307 0.0078125 12.2961 0.0078125 13.3661V22.7779C0.0078125 23.8479 0.912577 24.7144 2.02864 24.7144H19.7957C20.9152 24.7144 21.8199 23.8479 21.8199 22.7779V20.8211H4.05284Z" fill="white"/>
</g>
<defs>
<clipPath id="clip0_591_5714">
<rect width="31.1329" height="31.1329" fill="white" transform="translate(0.00585938 0.250977)"/>
</clipPath>
</defs>
</svg>
