<svg width="128" height="128" viewBox="0 0 128 128" fill="none" xmlns="http://www.w3.org/2000/svg">
<g clip-path="url(#clip0_2001_2453)">
<g filter="url(#filter0_i_2001_2453)">
<path d="M128 64C128 28.6538 99.3462 0 64 0C28.6538 0 0 28.6538 0 64C0 99.3462 28.6538 128 64 128C99.3462 128 128 99.3462 128 64Z" fill="#F8F8F8" fill-opacity="0.01"/>
<path d="M128 64C128 28.6538 99.3462 0 64 0C28.6538 0 0 28.6538 0 64C0 99.3462 28.6538 128 64 128C99.3462 128 128 99.3462 128 64Z" fill="#121212" fill-opacity="0.3"/>
<path d="M126.487 63.9997C126.487 29.4893 98.5105 1.51318 64.0002 1.51318C29.4898 1.51318 1.51367 29.4893 1.51367 63.9997C1.51367 98.51 29.4898 126.486 64.0002 126.486C98.5105 126.486 126.487 98.51 126.487 63.9997Z" stroke="url(#paint0_linear_2001_2453)" stroke-opacity="0.25" stroke-width="3.02679"/>
</g>
<path fill-rule="evenodd" clip-rule="evenodd" d="M48.3111 47.4267C48.5939 47.1572 48.9673 47 49.3519 47H85.2623C85.9185 47 86.2466 47.786 85.7828 48.2464L78.6889 55.2869C78.4174 55.5564 78.044 55.7136 77.6481 55.7136H41.7377C41.0815 55.7136 40.7534 54.9276 41.2172 54.4672L48.3111 47.4267ZM48.3111 73.7131C48.5826 73.4436 48.956 73.2864 49.3519 73.2864H85.2623C85.9185 73.2864 86.2466 74.0724 85.7828 74.5328L78.6889 81.5733C78.4174 81.8428 78.044 82 77.6481 82H41.7377C41.0815 82 40.7534 81.214 41.2172 80.7536L48.3111 73.7131ZM77.6481 60.0588C78.044 60.0588 78.4174 60.216 78.6889 60.4855L85.7828 67.526C86.2466 67.9864 85.9185 68.7724 85.2623 68.7724H49.3519C48.956 68.7724 48.5826 68.6152 48.3111 68.3457L41.2172 61.3052C40.7534 60.8448 41.0815 60.0588 41.7377 60.0588H77.6481Z" fill="url(#paint1_linear_2001_2453)"/>
</g>
<defs>
<filter id="filter0_i_2001_2453" x="0" y="0" width="128" height="128" filterUnits="userSpaceOnUse" color-interpolation-filters="sRGB">
<feFlood flood-opacity="0" result="BackgroundImageFix"/>
<feBlend mode="normal" in="SourceGraphic" in2="BackgroundImageFix" result="shape"/>
<feColorMatrix in="SourceAlpha" type="matrix" values="0 0 0 0 0 0 0 0 0 0 0 0 0 0 0 0 0 0 127 0" result="hardAlpha"/>
<feOffset/>
<feGaussianBlur stdDeviation="8.07143"/>
<feComposite in2="hardAlpha" operator="arithmetic" k2="-1" k3="1"/>
<feColorMatrix type="matrix" values="0 0 0 0 0.972549 0 0 0 0 0.972549 0 0 0 0 0.972549 0 0 0 0.25 0"/>
<feBlend mode="normal" in2="shape" result="effect1_innerShadow_2001_2453"/>
</filter>
<linearGradient id="paint0_linear_2001_2453" x1="64.0003" y1="-0.000208346" x2="119.683" y2="140.56" gradientUnits="userSpaceOnUse">
<stop stop-color="white" stop-opacity="0.4"/>
<stop offset="0.4" stop-color="white" stop-opacity="0.01"/>
<stop offset="0.6" stop-color="white" stop-opacity="0.01"/>
<stop offset="1" stop-color="white" stop-opacity="0.1"/>
</linearGradient>
<linearGradient id="paint1_linear_2001_2453" x1="63.5" y1="47" x2="63.5" y2="82" gradientUnits="userSpaceOnUse">
<stop stop-color="white"/>
<stop offset="1" stop-color="#666666"/>
</linearGradient>
<clipPath id="clip0_2001_2453">
<rect width="128" height="128" fill="white"/>
</clipPath>
</defs>
</svg>
