<svg width="128" height="128" viewBox="0 0 128 128" fill="none" xmlns="http://www.w3.org/2000/svg">
<g filter="url(#filter0_i_4001_1694)">
<rect width="128" height="128" rx="64" fill="#F8F8F8" fill-opacity="0.01"/>
<rect width="128" height="128" rx="64" fill="#121212" fill-opacity="0.3"/>
<rect x="1.51339" y="1.51339" width="124.973" height="124.973" rx="62.4866" stroke="url(#paint0_linear_4001_1694)" stroke-opacity="0.25" stroke-width="3.02679"/>
<path fill-rule="evenodd" clip-rule="evenodd" d="M39.063 63.969C39.063 76.3978 49.1385 86.4732 61.5672 86.4732V73.4989C57.5406 73.4989 54.2763 70.2346 54.2763 66.208V40.5463H39.063V63.969ZM87 63.0509C87 50.6221 76.9246 40.5466 64.4958 40.5466V53.521C68.5225 53.521 71.7867 56.7852 71.7867 60.8119V86.4736H87V63.0509Z" fill="url(#paint1_linear_4001_1694)"/>
</g>
<defs>
<filter id="filter0_i_4001_1694" x="-24.2143" y="-24.2143" width="176.429" height="176.429" filterUnits="userSpaceOnUse" color-interpolation-filters="sRGB">
<feFlood flood-opacity="0" result="BackgroundImageFix"/>
<feBlend mode="normal" in="SourceGraphic" in2="BackgroundImageFix" result="shape"/>
<feColorMatrix in="SourceAlpha" type="matrix" values="0 0 0 0 0 0 0 0 0 0 0 0 0 0 0 0 0 0 127 0" result="hardAlpha"/>
<feOffset/>
<feGaussianBlur stdDeviation="8.07143"/>
<feComposite in2="hardAlpha" operator="arithmetic" k2="-1" k3="1"/>
<feColorMatrix type="matrix" values="0 0 0 0 0.972549 0 0 0 0 0.972549 0 0 0 0 0.972549 0 0 0 0.25 0"/>
<feBlend mode="normal" in2="shape" result="effect1_innerShadow_4001_1694"/>
</filter>
<linearGradient id="paint0_linear_4001_1694" x1="64" y1="-1.45251e-06" x2="119.683" y2="140.56" gradientUnits="userSpaceOnUse">
<stop stop-color="white" stop-opacity="0.4"/>
<stop offset="0.4" stop-color="white" stop-opacity="0.01"/>
<stop offset="0.6" stop-color="white" stop-opacity="0.01"/>
<stop offset="1" stop-color="white" stop-opacity="0.1"/>
</linearGradient>
<linearGradient id="paint1_linear_4001_1694" x1="63.0315" y1="40.5463" x2="63.0315" y2="86.4736" gradientUnits="userSpaceOnUse">
<stop stop-color="#F8F8F8" stop-opacity="0.9"/>
<stop offset="1" stop-color="#F8F8F8" stop-opacity="0.3"/>
</linearGradient>
</defs>
</svg>
