<svg width="165" height="165" viewBox="0 0 165 165" fill="none" xmlns="http://www.w3.org/2000/svg">
<g filter="url(#filter0_i_2024_2477)">
<rect x="2.05357" y="2.05357" width="160.179" height="160.179" rx="80.0893" stroke="#F8F8F8" stroke-opacity="0.4" stroke-width="4.10714"/>
<g filter="url(#filter1_i_2024_2477)">
<rect x="10.9521" y="10.9521" width="142.381" height="142.381" rx="71.1905" fill="#181818"/>
<rect x="13.0057" y="13.0057" width="138.274" height="138.274" rx="69.1369" stroke="url(#paint0_linear_2024_2477)" stroke-width="4.10714"/>
</g>
</g>
<path d="M80.8047 107.369V107.369C66.101 107.369 54.1812 95.4494 54.1812 80.7457V53.0355H72.1792V83.3944C72.1792 88.1582 76.041 92.0199 80.8047 92.0199V92.0199V107.369Z" fill="white"/>
<path d="M84.2676 53.0352V53.0352C98.9713 53.0352 110.891 64.9549 110.891 79.6586V107.369H92.893V77.0098C92.893 72.2461 89.0313 68.3844 84.2676 68.3844V68.3844V53.0352Z" fill="white"/>
<defs>
<filter id="filter0_i_2024_2477" x="0" y="0" width="164.286" height="164.286" filterUnits="userSpaceOnUse" color-interpolation-filters="sRGB">
<feFlood flood-opacity="0" result="BackgroundImageFix"/>
<feBlend mode="normal" in="SourceGraphic" in2="BackgroundImageFix" result="shape"/>
<feColorMatrix in="SourceAlpha" type="matrix" values="0 0 0 0 0 0 0 0 0 0 0 0 0 0 0 0 0 0 127 0" result="hardAlpha"/>
<feOffset/>
<feGaussianBlur stdDeviation="10.9524"/>
<feComposite in2="hardAlpha" operator="arithmetic" k2="-1" k3="1"/>
<feColorMatrix type="matrix" values="0 0 0 0 0.972549 0 0 0 0 0.972549 0 0 0 0 0.972549 0 0 0 0.25 0"/>
<feBlend mode="normal" in2="shape" result="effect1_innerShadow_2024_2477"/>
</filter>
<filter id="filter1_i_2024_2477" x="10.9521" y="10.9521" width="142.381" height="142.381" filterUnits="userSpaceOnUse" color-interpolation-filters="sRGB">
<feFlood flood-opacity="0" result="BackgroundImageFix"/>
<feBlend mode="normal" in="SourceGraphic" in2="BackgroundImageFix" result="shape"/>
<feColorMatrix in="SourceAlpha" type="matrix" values="0 0 0 0 0 0 0 0 0 0 0 0 0 0 0 0 0 0 127 0" result="hardAlpha"/>
<feOffset/>
<feGaussianBlur stdDeviation="10.9524"/>
<feComposite in2="hardAlpha" operator="arithmetic" k2="-1" k3="1"/>
<feColorMatrix type="matrix" values="0 0 0 0 0.972549 0 0 0 0 0.972549 0 0 0 0 0.972549 0 0 0 0.05 0"/>
<feBlend mode="normal" in2="shape" result="effect1_innerShadow_2024_2477"/>
</filter>
<linearGradient id="paint0_linear_2024_2477" x1="82.1426" y1="10.9521" x2="144.081" y2="167.304" gradientUnits="userSpaceOnUse">
<stop stop-color="#383838"/>
<stop offset="1"/>
</linearGradient>
</defs>
</svg>
