<svg width="6234" height="1796" viewBox="0 0 6234 1796" fill="none" xmlns="http://www.w3.org/2000/svg">
<path d="M3117 1796C3537.29 1796 3878 1455.29 3878 1035C3878 614.711 3537.29 274 3117 274C2696.71 274 2356 614.711 2356 1035C2356 1455.29 2696.71 1796 3117 1796Z" fill="url(#paint0_radial_2036_2463)" fill-opacity="0.6"/>
<path d="M3117 1467C3355.59 1467 3549 1273.59 3549 1035C3549 796.413 3355.59 603 3117 603C2878.41 603 2685 796.413 2685 1035C2685 1273.59 2878.41 1467 3117 1467Z" fill="#3F3B52" fill-opacity="0.6"/>
<path d="M3117 1463C3353.38 1463 3545 1271.38 3545 1035C3545 798.622 3353.38 607 3117 607C2880.62 607 2689 798.622 2689 1035C2689 1271.38 2880.62 1463 3117 1463Z" stroke="#635D80" stroke-opacity="0.52" stroke-width="8"/>
<path fill-rule="evenodd" clip-rule="evenodd" d="M3117 1542C3397.01 1542 3624 1315.01 3624 1035C3624 754.99 3397.01 528 3117 528C2836.99 528 2610 754.99 2610 1035C2610 1315.01 2836.99 1542 3117 1542ZM3117 1550C3401.43 1550 3632 1319.43 3632 1035C3632 750.57 3401.43 520 3117 520C2832.57 520 2602 750.57 2602 1035C2602 1319.43 2832.57 1550 3117 1550Z" fill="#7A73A3" fill-opacity="0.5"/>
<mask id="mask0_2036_2463" style="mask-type:alpha" maskUnits="userSpaceOnUse" x="2486" y="404" width="1262" height="1262">
<path fill-rule="evenodd" clip-rule="evenodd" d="M3117 1658C3461.07 1658 3740 1379.07 3740 1035C3740 690.93 3461.07 412 3117 412C2772.93 412 2494 690.93 2494 1035C2494 1379.07 2772.93 1658 3117 1658ZM3117 1666C3465.49 1666 3748 1383.49 3748 1035C3748 686.51 3465.49 404 3117 404C2768.51 404 2486 686.51 2486 1035C2486 1383.49 2768.51 1666 3117 1666Z" fill="#7A73A3" fill-opacity="0.5"/>
</mask>
<g mask="url(#mask0_2036_2463)">
<path d="M3649.5 843C3738.14 843 3810 770.694 3810 681.5C3810 592.306 3738.14 520 3649.5 520C3560.86 520 3489 592.306 3489 681.5C3489 770.694 3560.86 843 3649.5 843Z" fill="#7A73A3"/>
<path d="M2602.5 843C2691.14 843 2763 770.694 2763 681.5C2763 592.306 2691.14 520 2602.5 520C2513.86 520 2442 592.306 2442 681.5C2442 770.694 2513.86 843 2602.5 843Z" fill="#7A73A3"/>
<path d="M3649.5 1550C3738.14 1550 3810 1477.69 3810 1388.5C3810 1299.31 3738.14 1227 3649.5 1227C3560.86 1227 3489 1299.31 3489 1388.5C3489 1477.69 3560.86 1550 3649.5 1550Z" fill="#7A73A3"/>
<path d="M2602.5 1550C2691.14 1550 2763 1477.69 2763 1388.5C2763 1299.31 2691.14 1227 2602.5 1227C2513.86 1227 2442 1299.31 2442 1388.5C2442 1477.69 2513.86 1550 2602.5 1550Z" fill="#7A73A3"/>
</g>
<path d="M3117 1350C3290.97 1350 3432 1208.97 3432 1035C3432 861.03 3290.97 720 3117 720C2943.03 720 2802 861.03 2802 1035C2802 1208.97 2943.03 1350 3117 1350Z" fill="url(#paint1_radial_2036_2463)" fill-opacity="0.37" stroke="#7A73A3" stroke-width="8"/>
<mask id="mask1_2036_2463" style="mask-type:alpha" maskUnits="userSpaceOnUse" x="-3" y="136" width="2605" height="1488">
<path d="M382.5 909.5L281.074 808.07C269.821 796.82 254.56 790.5 238.647 790.5H157.853C141.94 790.5 126.679 784.18 115.426 772.93L1.5 659" stroke="#7A73A3" stroke-opacity="0.5" stroke-width="9"/>
<path d="M2202.5 1051C2087.87 1165.63 2035.04 1218.46 2011.56 1241.94C2000.31 1253.19 1985.06 1259.5 1969.15 1259.5H1852" stroke="#7A73A3" stroke-opacity="0.5" stroke-width="9"/>
<path d="M1 1052.5H261.5M261.5 1052.5H635.5M261.5 1052.5L1 792M2602 1052.5H1850.5M1850.5 1052.5L1629.07 1273.93C1617.82 1285.18 1602.56 1291.5 1586.65 1291.5H1428.25M1850.5 1052.5H1048.5M1428.25 1291.5H1245M1428.25 1291.5L1221.5 1498.25M1048.5 1052.5L947.574 1153.43C936.321 1164.68 921.06 1171 905.147 1171H840.853C824.94 1171 809.679 1177.32 798.426 1188.57L721 1266M1048.5 1052.5H635.5M1221.5 1498.25L1118.32 1601.43C1107.07 1612.68 1091.81 1619 1075.9 1619H646.5M1221.5 1498.25L1118.32 1395.07C1107.07 1383.82 1091.81 1377.5 1075.9 1377.5H501.5M635.5 1052.5L422.074 1265.93C410.821 1277.18 395.56 1283.5 379.647 1283.5H128M128 1283.5H1M128 1283.5L1 1410.5" stroke="#716B97" stroke-opacity="0.5" stroke-width="9"/>
<path d="M2099 1053C1892.77 846.74 1890.27 815.5 1861.53 815.5C1840.68 815.5 1765.82 815.5 1726.32 815.5C1710.41 815.5 1695.18 809.18 1683.93 797.93L1468.5 582.5M1468.5 582.5L1253.07 367.074C1241.82 355.821 1226.56 349.5 1210.65 349.5H645.5M1468.5 582.5L1356.25 694.75M0.5 349.5H645.5M645.5 349.5L507.574 211.574C496.321 200.321 481.06 194 465.147 194H0.5M1356.25 694.75L1261.57 789.43C1250.32 800.68 1235.06 807 1219.15 807H625.5M1356.25 694.75L1185.57 524.07C1174.32 512.82 1159.06 506.5 1143.15 506.5H829M829 506.5H490M829 506.5L717.074 618.43C705.821 629.68 690.56 636 674.647 636H278" stroke="#7A73A3" stroke-opacity="0.5" stroke-width="9"/>
<path d="M805 141H946.647C962.56 141 977.821 147.321 989.074 158.574L1045.93 215.426C1057.18 226.679 1072.44 233 1088.35 233H1247" stroke="#7A73A3" stroke-opacity="0.5" stroke-width="9"/>
<path d="M1689.5 483L1831.93 625.43C1843.18 636.68 1858.44 643 1874.35 643H1903.15C1919.06 643 1934.32 649.32 1945.57 660.57L2011.5 726.5" stroke="#7A73A3" stroke-opacity="0.5" stroke-width="9"/>
<path d="M2527.5 843C2537.16 843 2545 835.165 2545 825.5C2545 815.835 2537.16 808 2527.5 808C2517.84 808 2510 815.835 2510 825.5C2510 835.165 2517.84 843 2527.5 843Z" fill="#D9D9D9"/>
<path d="M2527.5 1266C2537.16 1266 2545 1258.16 2545 1248.5C2545 1238.84 2537.16 1231 2527.5 1231C2517.84 1231 2510 1238.84 2510 1248.5C2510 1258.16 2517.84 1266 2527.5 1266Z" fill="#7A72A2"/>
</mask>
<g mask="url(#mask1_2036_2463)">
<path d="M2685 52H0V1858H2685V52Z" fill="url(#paint2_linear_2036_2463)"/>
</g>
<mask id="mask2_2036_2463" style="mask-type:alpha" maskUnits="userSpaceOnUse" x="258" y="124" width="1771" height="1512">
<path d="M1689.5 501C1699.16 501 1707 493.165 1707 483.5C1707 473.835 1699.16 466 1689.5 466C1679.84 466 1672 473.835 1672 483.5C1672 493.165 1679.84 501 1689.5 501Z" fill="#7A73A3"/>
<path d="M2011.5 744C2021.16 744 2029 736.165 2029 726.5C2029 716.835 2021.16 709 2011.5 709C2001.84 709 1994 716.835 1994 726.5C1994 736.165 2001.84 744 2011.5 744Z" fill="#7A73A3"/>
<path d="M1247.5 251C1257.16 251 1265 243.165 1265 233.5C1265 223.835 1257.16 216 1247.5 216C1237.84 216 1230 223.835 1230 233.5C1230 243.165 1237.84 251 1247.5 251Z" fill="#7A73A3"/>
<path d="M275.5 653C285.165 653 293 645.165 293 635.5C293 625.835 285.165 618 275.5 618C265.835 618 258 625.835 258 635.5C258 645.165 265.835 653 275.5 653Z" fill="#7A73A3"/>
<path d="M494.5 525C504.165 525 512 517.165 512 507.5C512 497.835 504.165 490 494.5 490C484.835 490 477 497.835 477 507.5C477 517.165 484.835 525 494.5 525Z" fill="#7A73A3"/>
<path d="M805.5 159C815.165 159 823 151.165 823 141.5C823 131.835 815.165 124 805.5 124C795.835 124 788 131.835 788 141.5C788 151.165 795.835 159 805.5 159Z" fill="#7A73A3"/>
<path d="M1852.5 1277C1862.16 1277 1870 1269.16 1870 1259.5C1870 1249.84 1862.16 1242 1852.5 1242C1842.84 1242 1835 1249.84 1835 1259.5C1835 1269.16 1842.84 1277 1852.5 1277Z" fill="#7A73A3"/>
<path d="M643.5 1636C653.165 1636 661 1628.16 661 1618.5C661 1608.84 653.165 1601 643.5 1601C633.835 1601 626 1608.84 626 1618.5C626 1628.16 633.835 1636 643.5 1636Z" fill="#7A73A3"/>
<path d="M494.5 1395C504.165 1395 512 1387.16 512 1377.5C512 1367.84 504.165 1360 494.5 1360C484.835 1360 477 1367.84 477 1377.5C477 1387.16 484.835 1395 494.5 1395Z" fill="#7A73A3"/>
<path d="M1242.5 1309C1252.16 1309 1260 1301.16 1260 1291.5C1260 1281.84 1252.16 1274 1242.5 1274C1232.84 1274 1225 1281.84 1225 1291.5C1225 1301.16 1232.84 1309 1242.5 1309Z" fill="#7A73A3"/>
<path d="M723.5 1284C733.165 1284 741 1276.16 741 1266.5C741 1256.84 733.165 1249 723.5 1249C713.835 1249 706 1256.84 706 1266.5C706 1276.16 713.835 1284 723.5 1284Z" fill="#7A73A3"/>
<path d="M382.5 927C392.165 927 400 919.165 400 909.5C400 899.835 392.165 892 382.5 892C372.835 892 365 899.835 365 909.5C365 919.165 372.835 927 382.5 927Z" fill="#7A73A3"/>
<path d="M626.5 825C636.165 825 644 817.165 644 807.5C644 797.835 636.165 790 626.5 790C616.835 790 609 797.835 609 807.5C609 817.165 616.835 825 626.5 825Z" fill="#7A73A3"/>
</mask>
<g mask="url(#mask2_2036_2463)">
<path d="M2319 0H125V1890H2319V0Z" fill="url(#paint3_linear_2036_2463)"/>
</g>
<path d="M2708.5 579C2718.16 579 2726 571.165 2726 561.5C2726 551.835 2718.16 544 2708.5 544C2698.84 544 2691 551.835 2691 561.5C2691 571.165 2698.84 579 2708.5 579Z" fill="#7A72A2"/>
<path d="M3542.5 586C3552.16 586 3560 578.165 3560 568.5C3560 558.835 3552.16 551 3542.5 551C3532.84 551 3525 558.835 3525 568.5C3525 578.165 3532.84 586 3542.5 586Z" fill="#7A72A2"/>
<mask id="mask3_2036_2463" style="mask-type:alpha" maskUnits="userSpaceOnUse" x="3632" y="136" width="2605" height="1488">
<path d="M5851.5 909.5L5952.93 808.07C5964.18 796.82 5979.44 790.5 5995.35 790.5H6076.15C6092.06 790.5 6107.32 784.18 6118.57 772.93L6232.5 659" stroke="#7A73A3" stroke-opacity="0.5" stroke-width="9"/>
<path d="M4031.5 1051C4146.13 1165.63 4198.96 1218.46 4222.44 1241.94C4233.69 1253.19 4248.94 1259.5 4264.85 1259.5H4382" stroke="#7A73A3" stroke-opacity="0.5" stroke-width="9"/>
<path d="M6233 1052.5H5972.5M5972.5 1052.5H5598.5M5972.5 1052.5L6233 792M3632 1052.5H4383.5M4383.5 1052.5L4604.93 1273.93C4616.18 1285.18 4631.44 1291.5 4647.35 1291.5H4805.75M4383.5 1052.5H5185.5M4805.75 1291.5H4989M4805.75 1291.5L5012.5 1498.25M5185.5 1052.5L5286.43 1153.43C5297.68 1164.68 5312.94 1171 5328.85 1171H5393.15C5409.06 1171 5424.32 1177.32 5435.57 1188.57L5513 1266M5185.5 1052.5H5598.5M5012.5 1498.25L5115.68 1601.43C5126.93 1612.68 5142.19 1619 5158.1 1619H5587.5M5012.5 1498.25L5115.68 1395.07C5126.93 1383.82 5142.19 1377.5 5158.1 1377.5H5732.5M5598.5 1052.5L5811.93 1265.93C5823.18 1277.18 5838.44 1283.5 5854.35 1283.5H6106M6106 1283.5H6233M6106 1283.5L6233 1410.5" stroke="#716B97" stroke-opacity="0.5" stroke-width="9"/>
<path d="M4135 1053C4341.23 846.74 4343.73 815.5 4372.47 815.5C4393.32 815.5 4468.18 815.5 4507.68 815.5C4523.59 815.5 4538.82 809.18 4550.07 797.93L4765.5 582.5M4765.5 582.5L4980.93 367.074C4992.18 355.821 5007.44 349.5 5023.35 349.5H5588.5M4765.5 582.5L4877.75 694.75M6233.5 349.5H5588.5M5588.5 349.5L5726.43 211.574C5737.68 200.321 5752.94 194 5768.85 194H6233.5M4877.75 694.75L4972.43 789.43C4983.68 800.68 4998.94 807 5014.85 807H5608.5M4877.75 694.75L5048.43 524.07C5059.68 512.82 5074.94 506.5 5090.85 506.5H5405M5405 506.5H5744M5405 506.5L5516.93 618.43C5528.18 629.68 5543.44 636 5559.35 636H5956" stroke="#7A73A3" stroke-opacity="0.5" stroke-width="9"/>
<path d="M5429 141H5287.35C5271.44 141 5256.18 147.321 5244.93 158.574L5188.07 215.426C5176.82 226.679 5161.56 233 5145.65 233H4987" stroke="#7A73A3" stroke-opacity="0.5" stroke-width="9"/>
<path d="M4544.5 483L4402.07 625.43C4390.82 636.68 4375.56 643 4359.65 643H4330.85C4314.94 643 4299.68 649.32 4288.43 660.57L4222.5 726.5" stroke="#7A73A3" stroke-opacity="0.5" stroke-width="9"/>
<path d="M3713.5 850C3723.16 850 3731 842.165 3731 832.5C3731 822.835 3723.16 815 3713.5 815C3703.84 815 3696 822.835 3696 832.5C3696 842.165 3703.84 850 3713.5 850Z" fill="#7A72A2"/>
<path d="M3713.5 1259C3723.16 1259 3731 1251.16 3731 1241.5C3731 1231.84 3723.16 1224 3713.5 1224C3703.84 1224 3696 1231.84 3696 1241.5C3696 1251.16 3703.84 1259 3713.5 1259Z" fill="#7A72A2"/>
</mask>
<g mask="url(#mask3_2036_2463)">
<path d="M3549 52H6234V1858H3549V52Z" fill="url(#paint4_linear_2036_2463)"/>
</g>
<path d="M3542.5 1523C3552.16 1523 3560 1515.16 3560 1505.5C3560 1495.84 3552.16 1488 3542.5 1488C3532.84 1488 3525 1495.84 3525 1505.5C3525 1515.16 3532.84 1523 3542.5 1523Z" fill="#7A72A2"/>
<path d="M2702.5 1523C2712.16 1523 2720 1515.16 2720 1505.5C2720 1495.84 2712.16 1488 2702.5 1488C2692.84 1488 2685 1495.84 2685 1505.5C2685 1515.16 2692.84 1523 2702.5 1523Z" fill="#7A72A2"/>
<mask id="mask4_2036_2463" style="mask-type:alpha" maskUnits="userSpaceOnUse" x="4205" y="124" width="1771" height="1512">
<path d="M4544.5 501C4534.84 501 4527 493.165 4527 483.5C4527 473.835 4534.84 466 4544.5 466C4554.16 466 4562 473.835 4562 483.5C4562 493.165 4554.16 501 4544.5 501Z" fill="#7A73A3"/>
<path d="M4222.5 744C4212.84 744 4205 736.165 4205 726.5C4205 716.835 4212.84 709 4222.5 709C4232.16 709 4240 716.835 4240 726.5C4240 736.165 4232.16 744 4222.5 744Z" fill="#7A73A3"/>
<path d="M4986.5 251C4976.84 251 4969 243.165 4969 233.5C4969 223.835 4976.84 216 4986.5 216C4996.16 216 5004 223.835 5004 233.5C5004 243.165 4996.16 251 4986.5 251Z" fill="#7A73A3"/>
<path d="M5958.5 653C5948.84 653 5941 645.165 5941 635.5C5941 625.835 5948.84 618 5958.5 618C5968.16 618 5976 625.835 5976 635.5C5976 645.165 5968.16 653 5958.5 653Z" fill="#7A73A3"/>
<path d="M5739.5 525C5729.84 525 5722 517.165 5722 507.5C5722 497.835 5729.84 490 5739.5 490C5749.16 490 5757 497.835 5757 507.5C5757 517.165 5749.16 525 5739.5 525Z" fill="#7A73A3"/>

<path d="M5428.5 159C5418.84 159 5411 151.165 5411 141.5C5411 131.835 5418.84 124 5428.5 124C5438.16 124 5446 131.835 5446 141.5C5446 151.165 5438.16 159 5428.5 159Z" fill="#7A73A3"/>
<path d="M4381.5 1277C4371.84 1277 4364 1269.16 4364 1259.5C4364 1249.84 4371.84 1242 4381.5 1242C4391.16 1242 4399 1249.84 4399 1259.5C4399 1269.16 4391.16 1277 4381.5 1277Z" fill="#7A73A3"/>
<path d="M5590.5 1636C5580.84 1636 5573 1628.16 5573 1618.5C5573 1608.84 5580.84 1601 5590.5 1601C5600.16 1601 5608 1608.84 5608 1618.5C5608 1628.16 5600.16 1636 5590.5 1636Z" fill="#7A73A3"/>
<path d="M5739.5 1395C5729.84 1395 5722 1387.16 5722 1377.5C5722 1367.84 5729.84 1360 5739.5 1360C5749.16 1360 5757 1367.84 5757 1377.5C5757 1387.16 5749.16 1395 5739.5 1395Z" fill="#7A73A3"/>
<path d="M4991.5 1309C4981.84 1309 4974 1301.16 4974 1291.5C4974 1281.84 4981.84 1274 4991.5 1274C5001.16 1274 5009 1281.84 5009 1291.5C5009 1301.16 5001.16 1309 4991.5 1309Z" fill="#7A73A3"/>
<path d="M5510.5 1284C5500.84 1284 5493 1276.16 5493 1266.5C5493 1256.84 5500.84 1249 5510.5 1249C5520.16 1249 5528 1256.84 5528 1266.5C5528 1276.16 5520.16 1284 5510.5 1284Z" fill="#7A73A3"/>
<path d="M5851.5 927C5841.84 927 5834 919.165 5834 909.5C5834 899.835 5841.84 892 5851.5 892C5861.16 892 5869 899.835 5869 909.5C5869 919.165 5861.16 927 5851.5 927Z" fill="#7A73A3"/>
<path d="M5607.5 825C5597.84 825 5590 817.165 5590 807.5C5590 797.835 5597.84 790 5607.5 790C5617.16 790 5625 797.835 5625 807.5C5625 817.165 5617.16 825 5607.5 825Z" fill="#7A73A3"/>

</mask>
<path d="M3079.54 964.656V986.875H3153.46V964.656C3153.46 944.196 3136.92 927.625 3116.5 927.625C3096.08 927.625 3079.54 944.196 3079.54 964.656ZM3049.96 986.875V964.656C3049.96 927.856 3079.77 898 3116.5 898C3153.23 898 3183.04 927.856 3183.04 964.656V986.875H3190.43C3206.74 986.875 3220 1000.16 3220 1016.5V1105.38C3220 1121.72 3206.74 1135 3190.43 1135H3042.57C3026.26 1135 3013 1121.72 3013 1105.38V1016.5C3013 1000.16 3026.26 986.875 3042.57 986.875H3049.96Z" fill="white">
<animate 
      attributeName="opacity" 
      values="1;0.5;1" 
      dur="2s" 
      repeatCount="indefinite" 
      calcMode="spline" 
      keySplines="0.42 0 0.58 1; 0.42 0 0.58 1" />
</path>
<g mask="url(#mask4_2036_2463)">
<path d="M3915 0H6109V1890H3915V0Z" fill="url(#paint5_linear_2036_2463)"/>
</g>
<defs>
<radialGradient id="paint0_radial_2036_2463" cx="0" cy="0" r="1" gradientUnits="userSpaceOnUse" gradientTransform="translate(3117 1035) rotate(90) scale(761)">
<stop offset="0.175" stop-color="#7A73A3" stop-opacity="0.21"/>
<stop offset="1" stop-color="#3B3E52" stop-opacity="0"/>
</radialGradient>
<radialGradient id="paint1_radial_2036_2463" cx="0" cy="0" r="1" gradientUnits="userSpaceOnUse" gradientTransform="translate(3117 1035) rotate(90) scale(319)">
<stop offset="0.21" stop-color="#2E2B3D" stop-opacity="0.1"/>
<stop offset="1" stop-color="#7A73A3"/>
</radialGradient>
<linearGradient  id="paint2_linear_2036_2463" x1="2897.5" y1="1858" x2="-53.5001" y2="1858" gradientUnits="userSpaceOnUse">
<stop offset="0.2384" stop-color="#7A73A3"/>
<stop offset="0.757645" stop-color="#7A73A300" stop-opacity="0.22"/>
      <animateTransform 
        attributeName="gradientTransform" 
        type="translate" 
        values="0,0; 500,0; 0,0" 
        dur="10s" 
        repeatCount="indefinite" 
        calcMode="spline" 
        keySplines="0.42 0 0.58 1; 0.42 0 0.58 1" />
</linearGradient>
<linearGradient id="paint3_linear_2036_2463" x1="2770.5" y1="1890" x2="-16" y2="1890" gradientUnits="userSpaceOnUse">
<stop stop-color="#756E9C"/>
<stop offset="1" stop-color="#0B0A1100"/>
      <animateTransform 
        attributeName="gradientTransform" 
        type="translate" 
        values="0,0; 500,0; 0,0" 
        dur="10s" 
        repeatCount="indefinite" 
        calcMode="spline" 
        keySplines="0.42 0 0.58 1; 0.42 0 0.58 1" />
</linearGradient>
<linearGradient id="paint4_linear_2036_2463" x1="3336.5" y1="1858" x2="6287.5" y2="1858" gradientUnits="userSpaceOnUse">
<stop offset="0.2384" stop-color="#7A73A3"/>
<stop offset="0.757645" stop-color="#7A73A300" stop-opacity="0.22"/>
      <animateTransform 
        attributeName="gradientTransform" 
        type="translate" 
        values="0,0; -500,0; 0,0" 
        dur="10s" 
        repeatCount="indefinite" 
        calcMode="spline" 
        keySplines="0.42 0 0.58 1; 0.42 0 0.58 1" />
</linearGradient>
<linearGradient id="paint5_linear_2036_2463" x1="3463.5" y1="1890" x2="6250" y2="1890" gradientUnits="userSpaceOnUse">
<stop stop-color="#756E9C"/>
<stop offset="1" stop-color="#0B0A1100"/>
      <animateTransform 
        attributeName="gradientTransform" 
        type="translate" 
        values="0,0; -500,0; 0,0" 
        dur="10s" 
        repeatCount="indefinite" 
        calcMode="spline" 
        keySplines="0.42 0 0.58 1; 0.42 0 0.58 1" />
</linearGradient>
</defs>
</svg>
