<svg width="128" height="128" viewBox="0 0 128 128" fill="none" xmlns="http://www.w3.org/2000/svg">
<g clip-path="url(#clip0_2001_2453)">
<g filter="url(#filter0_i_2001_2453)">
<path d="M128 64C128 28.6538 99.3462 0 64 0C28.6538 0 0 28.6538 0 64C0 99.3462 28.6538 128 64 128C99.3462 128 128 99.3462 128 64Z" fill="#F8F8F8" fill-opacity="0.01"/>
<path d="M128 64C128 28.6538 99.3462 0 64 0C28.6538 0 0 28.6538 0 64C0 99.3462 28.6538 128 64 128C99.3462 128 128 99.3462 128 64Z" fill="#121212" fill-opacity="0.3"/>
<path d="M126.487 63.9997C126.487 29.4893 98.5105 1.51318 64.0002 1.51318C29.4898 1.51318 1.51367 29.4893 1.51367 63.9997C1.51367 98.51 29.4898 126.486 64.0002 126.486C98.5105 126.486 126.487 98.51 126.487 63.9997Z" stroke="url(#paint0_linear_2001_2453)" stroke-opacity="0.25" stroke-width="3.02679"/>
</g>
<path fill-rule="evenodd" clip-rule="evenodd" d="M55.6418 60.7459L64.3053 52.0828L72.9734 60.7505L78.0144 55.7095L64.3053 42L50.6008 55.7049L55.6418 60.7459ZM52.0821 64.3051L47.0412 59.2642L42 64.3053L47.0409 69.3463L52.0821 64.3051ZM64.3049 76.5282L55.6414 67.8651L50.5929 72.8994L50.6 72.9064L64.3049 86.611L78.014 72.9019L78.0165 72.899L72.9726 67.8608L64.3049 76.5282ZM81.5703 69.3483L86.6115 64.3071L81.5706 59.2662L76.5294 64.3074L81.5703 69.3483ZM69.4209 64.3029H69.4188L69.4234 64.3053L69.4209 64.3082L64.3055 69.4235L59.1947 64.3127L59.1877 64.3053L59.1947 64.2983L60.0907 63.4023L60.5248 62.9678H60.5252L64.3055 59.1875L69.4209 64.3029Z" fill="url(#paint1_linear_2001_2453)"/>
</g>
<defs>
<filter id="filter0_i_2001_2453" x="0" y="0" width="128" height="128" filterUnits="userSpaceOnUse" color-interpolation-filters="sRGB">
<feFlood flood-opacity="0" result="BackgroundImageFix"/>
<feBlend mode="normal" in="SourceGraphic" in2="BackgroundImageFix" result="shape"/>
<feColorMatrix in="SourceAlpha" type="matrix" values="0 0 0 0 0 0 0 0 0 0 0 0 0 0 0 0 0 0 127 0" result="hardAlpha"/>
<feOffset/>
<feGaussianBlur stdDeviation="8.07143"/>
<feComposite in2="hardAlpha" operator="arithmetic" k2="-1" k3="1"/>
<feColorMatrix type="matrix" values="0 0 0 0 0.972549 0 0 0 0 0.972549 0 0 0 0 0.972549 0 0 0 0.25 0"/>
<feBlend mode="normal" in2="shape" result="effect1_innerShadow_2001_2453"/>
</filter>
<linearGradient id="paint0_linear_2001_2453" x1="64.0003" y1="-0.000208346" x2="119.683" y2="140.56" gradientUnits="userSpaceOnUse">
<stop stop-color="white" stop-opacity="0.4"/>
<stop offset="0.4" stop-color="white" stop-opacity="0.01"/>
<stop offset="0.6" stop-color="white" stop-opacity="0.01"/>
<stop offset="1" stop-color="white" stop-opacity="0.1"/>
</linearGradient>
<linearGradient id="paint1_linear_2001_2453" x1="64.3058" y1="42" x2="64.3058" y2="86.611" gradientUnits="userSpaceOnUse">
<stop stop-color="white"/>
<stop offset="1" stop-color="#666666"/>
</linearGradient>
<clipPath id="clip0_2001_2453">
<rect width="128" height="128" fill="white"/>
</clipPath>
</defs>
</svg>
