<svg width="35" height="35" viewBox="0 0 35 35" fill="none" xmlns="http://www.w3.org/2000/svg">
<g clip-path="url(#clip0_591_5687)">
<path d="M13.2194 23.5C16.0971 20.1575 16.3619 20.1057 16.5435 19.9468C16.95 19.5943 17.3121 19.1944 17.6937 18.816L34.8665 1.63672C34.4817 3.81386 34.153 5.69372 33.7974 7.70871L17.8872 23.6254C17.7488 23.6081 17.5888 23.5984 17.4267 23.5984C16.5911 23.5984 15.8182 23.8621 15.1847 24.3118L15.1966 24.3043L13.5167 26.3095L15.5901 28.3829C14.0594 28.2726 13.0324 27.0262 11.4531 27.317L6.85015 31.907L5.95508 31.0281C7.12148 30.0595 7.86737 28.7061 9.317 28.024C9.90074 27.7235 10.3288 27.1884 10.4802 26.5474L10.4834 26.5322C10.6737 25.8188 11.2552 25.2145 11.8238 24.6653C12.9611 23.5995 14.0529 22.4817 15.1317 21.3575C15.403 21.0764 15.5706 20.6948 13.2162 23.4989C10.6001 27.0522 10.6099 27.2814 10.6326 27.7462L11.1688 27.077C10.9331 26.9452 10.7872 26.8511 13.2194 23.4978V23.5ZM16.3878 22.8211H16.4754L16.5046 22.4752H16.3597C16.3608 22.5984 16.4041 22.7109 16.4765 22.7995L16.4754 22.7984H16.3878L16.3587 23.1444H16.5035C16.5024 23.0211 16.4592 22.9087 16.3868 22.8201L16.3878 22.8211ZM19.4017 19.4008H19.8633L20.2254 20.431C21.0556 19.51 21.9118 18.8517 22.5766 17.9177L22.1215 17.6853C21.2751 18.202 20.914 19.2452 19.8611 19.4008C19.8384 19.3998 19.8125 19.3987 19.7854 19.3987C19.6514 19.3987 19.5217 19.416 19.3984 19.4484L19.4092 19.4462V19.3587L19.0633 19.3295V19.4744C19.1866 19.4711 19.3022 19.4441 19.4082 19.3976L19.4017 19.4008ZM12.9611 25.3345H13.0519L13.0778 24.9885H12.9362C12.9362 24.9896 12.9362 24.9918 12.9362 24.9929C12.9362 25.115 12.9805 25.2264 13.0529 25.3118L13.0519 25.3107H12.9611L12.9351 25.6566H13.0767C13.0767 25.5334 13.0324 25.4199 12.96 25.3323L12.9611 25.3345ZM23.7235 16.8172L31.9013 8.6427L31.523 8.26111L23.3452 16.4389L23.7235 16.8172ZM32.4829 7.31523C32.5964 6.78554 32.6861 6.4007 32.7575 6.02343C32.7575 5.95857 32.7023 5.88182 32.6569 5.77156L31.7911 6.63744L32.4829 7.31523ZM11.4044 25.635L11.2206 25.8577L11.9017 26.3679L12.0055 26.2382L11.4044 25.635ZM14.3793 23.1281L14.1956 23.3346L14.6604 23.6351L14.7577 23.5054L14.3793 23.1281ZM13.5394 24.3399L13.614 24.2654L13.3881 24.0362L13.3102 24.114L13.5394 24.3399ZM15.2128 23.1217L15.1382 23.1995L15.3674 23.4287L15.442 23.3508L15.2128 23.1217ZM12.6292 26.3193L12.707 26.3971L12.933 26.1679L12.8713 26.0933L12.6292 26.3193ZM13.5426 25.4058L13.6172 25.4836L13.8464 25.2545L13.7718 25.1799L13.5426 25.4058Z" fill="white"/>
<path d="M5.89469 33.2211L4.8418 32.1682L5.67849 31.3315L7.02542 32.6817C6.86435 32.8428 6.74436 33.0471 6.57032 33.1174C6.36925 33.1779 6.13792 33.2146 5.89794 33.2211H5.89469Z" fill="white"/>
<path d="M29.2531 33.2211L30.3125 32.1682L29.4758 31.3315L28.1289 32.6817C28.29 32.8428 28.41 33.0471 28.584 33.1174C28.7829 33.1768 29.0121 33.2146 29.2488 33.2211H29.2531Z" fill="white"/>
<path d="M23.6859 26.0382L23.7216 26.009L23.58 25.7993L23.5508 25.8285L23.6859 26.0382Z" fill="white"/>
<path d="M25.8164 28.025C25.2327 27.7245 24.8046 27.1894 24.6532 26.5484L24.65 26.5332C24.4727 25.8198 23.9041 25.209 23.3225 24.6664C22.5507 23.9399 21.7983 23.1908 21.0621 22.4341L21.0427 22.4535C21.2881 22.7378 21.5821 23.1 21.9313 23.5C22.6707 24.5042 23.2036 25.2436 23.582 25.7992L23.7463 25.6349L23.93 25.8576L23.7236 26.009C24.5408 27.2229 24.5311 27.4305 24.5214 27.7461L23.9819 27.077C24.1235 26.9927 24.2371 26.9257 23.6847 26.0371L23.2425 26.3603L23.1388 26.2306L23.5485 25.8209C23.2252 25.3074 22.7053 24.568 21.9334 23.4924L21.0319 22.4557L19.4688 24.0221C19.6363 24.1064 19.792 24.1994 19.9563 24.2967L21.6491 26.3019L19.5758 28.3753C21.1065 28.265 22.1334 27.0186 23.7128 27.3094L28.2962 31.9058L29.1913 31.027C28.0249 30.0584 27.279 28.705 25.8164 28.0229V28.025ZM20.4871 23.6351L20.3898 23.5054L20.7681 23.127L20.9519 23.3335L20.4871 23.6351ZM21.5335 25.4825L21.3043 25.2533L21.3789 25.1788L21.6081 25.4047L21.5335 25.4825ZM21.6081 24.3399L21.5335 24.2653L21.7594 24.0361L21.8372 24.114L21.6081 24.3399ZM22.1864 25.3279C22.1864 25.4447 22.2059 25.5571 22.2123 25.6739H22.0707V25.6728C22.0707 25.5495 22.115 25.4371 22.1875 25.3495L22.1864 25.3506H22.0956L22.0696 25.0047H22.2113V25.009C22.2113 25.1312 22.1669 25.2425 22.0945 25.3279L22.0956 25.3268L22.1864 25.3279ZM22.4448 26.397L22.2188 26.1679L22.2934 26.0933L22.5226 26.3192L22.4448 26.397Z" fill="white"/>
<path d="M14.4355 19.9078C13.7641 19.2949 13.1545 18.6409 12.5977 17.9426L12.5718 17.908L13.0269 17.6756C13.7955 18.1436 14.1674 19.0452 15.017 19.3263L16.4894 17.8507L0.275391 1.63672C0.660228 3.81386 0.988853 5.69372 1.3445 7.70871L13.989 20.3694L14.4355 19.9078ZM2.39091 6.01911C2.39091 5.95425 2.44604 5.87749 2.49145 5.76723C2.78872 6.06451 3.06654 6.33908 3.35733 6.63312L2.66657 7.31415C2.55306 6.78446 2.46334 6.39962 2.39199 6.01262L2.39091 6.01911ZM11.4249 16.8172C8.68884 14.0845 5.97552 11.3679 3.24707 8.6427L3.62542 8.26111L11.8032 16.4389L11.4249 16.8172Z" fill="white"/>
</g>
<defs>
<clipPath id="clip0_591_5687">
<rect width="34.5921" height="34.5921" fill="white" transform="translate(0.275391 0.132812)"/>
</clipPath>
</defs>
</svg>
