<svg width="128" height="128" viewBox="0 0 128 128" fill="none" xmlns="http://www.w3.org/2000/svg">
<g filter="url(#filter0_i_4001_1718)">
<rect width="128" height="128" rx="64" fill="#F8F8F8" fill-opacity="0.01"/>
<rect width="128" height="128" rx="64" fill="#121212" fill-opacity="0.3"/>
<rect x="1.51339" y="1.51339" width="124.973" height="124.973" rx="62.4866" stroke="url(#paint0_linear_4001_1718)" stroke-opacity="0.25" stroke-width="3.02679"/>
<path d="M76.0693 53.7783C74.6284 53.2532 73.1054 52.9898 71.572 53.0003C66.6128 53.0003 63.1104 55.4985 63.0856 59.0845C63.0546 61.7191 65.5745 63.2037 67.4807 64.084C69.4364 64.989 70.0904 65.5593 70.0842 66.3683C70.0718 67.5988 68.5221 68.1567 67.0808 68.1567C65.1003 68.1567 64.0186 67.8808 62.3542 67.1896L61.7374 66.9014L61.0338 71.0299C62.2395 71.532 64.4122 71.9628 66.6562 72C71.9284 72 75.375 69.5173 75.4153 65.7019C75.4587 63.5974 74.0949 62.0073 71.2248 60.6932C69.4798 59.8408 68.3981 59.2705 68.3981 58.4058C68.3981 57.6402 69.3248 56.8219 71.262 56.8219C72.5513 56.7907 73.8325 57.0326 75.0217 57.5317L75.4866 57.7394L76.1901 53.7504L76.0693 53.7783ZM88.9382 53.335H85.0639C83.8582 53.335 82.9501 53.6667 82.4232 54.8631L74.9721 71.7427H80.2442L81.2981 68.9749L87.7326 68.9811C87.8844 69.6289 88.3493 71.7427 88.3493 71.7427H92.9985L88.9382 53.335ZM55.9538 53.1801H60.978L57.8351 71.5971H52.8171L55.9538 53.1739V53.1801ZM43.1995 63.3308L43.7202 65.8879L48.6297 53.335H53.9515L46.0448 71.7179H40.7354L36.3962 56.1525C36.3259 55.8958 36.1608 55.6754 35.9343 55.5357C34.3704 54.7277 32.7132 54.1146 31 53.7101L31.0682 53.3226H39.1547C40.2519 53.366 41.1352 53.7101 41.4297 54.8817L43.1964 63.3401L43.1995 63.3308ZM82.7393 65.2091L84.7416 60.0578C84.7168 60.1136 85.1538 58.9947 85.408 58.3035L85.752 59.8935L86.9143 65.206H82.7362L82.7393 65.2091Z" fill="url(#paint1_linear_4001_1718)"/>
</g>
<defs>
<filter id="filter0_i_4001_1718" x="-24.2143" y="-24.2143" width="176.429" height="176.429" filterUnits="userSpaceOnUse" color-interpolation-filters="sRGB">
<feFlood flood-opacity="0" result="BackgroundImageFix"/>
<feBlend mode="normal" in="SourceGraphic" in2="BackgroundImageFix" result="shape"/>
<feColorMatrix in="SourceAlpha" type="matrix" values="0 0 0 0 0 0 0 0 0 0 0 0 0 0 0 0 0 0 127 0" result="hardAlpha"/>
<feOffset/>
<feGaussianBlur stdDeviation="8.07143"/>
<feComposite in2="hardAlpha" operator="arithmetic" k2="-1" k3="1"/>
<feColorMatrix type="matrix" values="0 0 0 0 0.972549 0 0 0 0 0.972549 0 0 0 0 0.972549 0 0 0 0.25 0"/>
<feBlend mode="normal" in2="shape" result="effect1_innerShadow_4001_1718"/>
</filter>
<linearGradient id="paint0_linear_4001_1718" x1="64" y1="-1.45251e-06" x2="119.683" y2="140.56" gradientUnits="userSpaceOnUse">
<stop stop-color="white" stop-opacity="0.4"/>
<stop offset="0.4" stop-color="white" stop-opacity="0.01"/>
<stop offset="0.6" stop-color="white" stop-opacity="0.01"/>
<stop offset="1" stop-color="white" stop-opacity="0.1"/>
</linearGradient>
<linearGradient id="paint1_linear_4001_1718" x1="61.9993" y1="53" x2="61.9993" y2="72" gradientUnits="userSpaceOnUse">
<stop stop-color="#F8F8F8" stop-opacity="0.9"/>
<stop offset="1" stop-color="#F8F8F8" stop-opacity="0.3"/>
</linearGradient>
</defs>
</svg>
