<svg width="128" height="128" viewBox="0 0 128 128" fill="none" xmlns="http://www.w3.org/2000/svg">
<g clip-path="url(#clip0_2001_2453)">
<g filter="url(#filter0_i_2001_2453)">
<path d="M128 64C128 28.6538 99.3462 0 64 0C28.6538 0 0 28.6538 0 64C0 99.3462 28.6538 128 64 128C99.3462 128 128 99.3462 128 64Z" fill="#F8F8F8" fill-opacity="0.01"/>
<path d="M128 64C128 28.6538 99.3462 0 64 0C28.6538 0 0 28.6538 0 64C0 99.3462 28.6538 128 64 128C99.3462 128 128 99.3462 128 64Z" fill="#121212" fill-opacity="0.3"/>
<path d="M126.487 63.9997C126.487 29.4893 98.5105 1.51318 64.0002 1.51318C29.4898 1.51318 1.51367 29.4893 1.51367 63.9997C1.51367 98.51 29.4898 126.486 64.0002 126.486C98.5105 126.486 126.487 98.51 126.487 63.9997Z" stroke="url(#paint0_linear_2001_2453)" stroke-opacity="0.25" stroke-width="3.02679"/>
</g>
<path d="M63.7804 78.9085L45 67.8007L63.769 94.318L82.559 67.8007L63.769 78.9085H63.7804ZM64.0596 33L45.2868 64.2271L64.0596 75.3541L82.84 64.2386L64.0596 33Z" fill="url(#paint1_linear_2001_2453)"/>
</g>
<defs>
<filter id="filter0_i_2001_2453" x="0" y="0" width="128" height="128" filterUnits="userSpaceOnUse" color-interpolation-filters="sRGB">
<feFlood flood-opacity="0" result="BackgroundImageFix"/>
<feBlend mode="normal" in="SourceGraphic" in2="BackgroundImageFix" result="shape"/>
<feColorMatrix in="SourceAlpha" type="matrix" values="0 0 0 0 0 0 0 0 0 0 0 0 0 0 0 0 0 0 127 0" result="hardAlpha"/>
<feOffset/>
<feGaussianBlur stdDeviation="8.07143"/>
<feComposite in2="hardAlpha" operator="arithmetic" k2="-1" k3="1"/>
<feColorMatrix type="matrix" values="0 0 0 0 0.972549 0 0 0 0 0.972549 0 0 0 0 0.972549 0 0 0 0.25 0"/>
<feBlend mode="normal" in2="shape" result="effect1_innerShadow_2001_2453"/>
</filter>
<linearGradient id="paint0_linear_2001_2453" x1="64.0003" y1="-0.000208346" x2="119.683" y2="140.56" gradientUnits="userSpaceOnUse">
<stop stop-color="white" stop-opacity="0.4"/>
<stop offset="0.4" stop-color="white" stop-opacity="0.01"/>
<stop offset="0.6" stop-color="white" stop-opacity="0.01"/>
<stop offset="1" stop-color="white" stop-opacity="0.1"/>
</linearGradient>
<linearGradient id="paint1_linear_2001_2453" x1="63.92" y1="33" x2="63.92" y2="94.318" gradientUnits="userSpaceOnUse">
<stop stop-color="white"/>
<stop offset="1" stop-color="#666666"/>
</linearGradient>
<clipPath id="clip0_2001_2453">
<rect width="128" height="128" fill="white"/>
</clipPath>
</defs>
</svg>
