<svg width="128" height="128" viewBox="0 0 128 128" fill="none" xmlns="http://www.w3.org/2000/svg">
<g filter="url(#filter0_i_4001_1702)">
<rect width="128" height="128" rx="64" fill="#F8F8F8" fill-opacity="0.01"/>
<rect width="128" height="128" rx="64" fill="#121212" fill-opacity="0.3"/>
<rect x="1.51339" y="1.51339" width="124.973" height="124.973" rx="62.4866" stroke="url(#paint0_linear_4001_1702)" stroke-opacity="0.25" stroke-width="3.02679"/>
<g clip-path="url(#clip0_4001_1702)">
<path d="M89.9937 70.4263C89.64 69.4042 89.02 68.207 88.2001 66.9638L78.4687 52.2052L74.3923 54.8931L81.6142 65.8461L51.7852 44.2166L54.0676 41.0687L41.478 39.7578L46.6363 51.3171L48.9187 48.1693L85.0899 74.3974C86.0307 75.0794 86.844 75.3066 87.5091 75.3066C88.5242 75.3066 89.1955 74.7784 89.4504 74.5343C89.8945 74.1095 90.4105 73.3404 90.3475 72.0877C90.3221 71.5854 90.2063 71.0421 89.9932 70.4263H89.9937Z" fill="url(#paint1_linear_4001_1702)"/>
<path d="M76.2014 76.6953L42.6823 53.1136C40.4202 51.5223 38.9036 52.6856 38.4925 53.0802C37.5136 54.0196 37.3316 55.4303 37.9515 57.2733C38.3156 58.3557 38.9483 59.6125 39.7823 60.9075L49.3943 75.8363L53.4999 73.1932L45.8503 61.3125L73.3922 80.6889L71.1551 83.8687L83.762 85L78.4391 73.5154L76.2019 76.6953H76.2014Z" fill="url(#paint2_linear_4001_1702)"/>
</g>
</g>
<defs>
<filter id="filter0_i_4001_1702" x="-24.2143" y="-24.2143" width="176.429" height="176.429" filterUnits="userSpaceOnUse" color-interpolation-filters="sRGB">
<feFlood flood-opacity="0" result="BackgroundImageFix"/>
<feBlend mode="normal" in="SourceGraphic" in2="BackgroundImageFix" result="shape"/>
<feColorMatrix in="SourceAlpha" type="matrix" values="0 0 0 0 0 0 0 0 0 0 0 0 0 0 0 0 0 0 127 0" result="hardAlpha"/>
<feOffset/>
<feGaussianBlur stdDeviation="8.07143"/>
<feComposite in2="hardAlpha" operator="arithmetic" k2="-1" k3="1"/>
<feColorMatrix type="matrix" values="0 0 0 0 0.972549 0 0 0 0 0.972549 0 0 0 0 0.972549 0 0 0 0.25 0"/>
<feBlend mode="normal" in2="shape" result="effect1_innerShadow_4001_1702"/>
</filter>
<linearGradient id="paint0_linear_4001_1702" x1="64" y1="-1.45251e-06" x2="119.683" y2="140.56" gradientUnits="userSpaceOnUse">
<stop stop-color="white" stop-opacity="0.4"/>
<stop offset="0.4" stop-color="white" stop-opacity="0.01"/>
<stop offset="0.6" stop-color="white" stop-opacity="0.01"/>
<stop offset="1" stop-color="white" stop-opacity="0.1"/>
</linearGradient>
<linearGradient id="paint1_linear_4001_1702" x1="65.9154" y1="39.7578" x2="65.9154" y2="75.3066" gradientUnits="userSpaceOnUse">
<stop stop-color="#F8F8F8" stop-opacity="0.9"/>
<stop offset="1" stop-color="#F8F8F8" stop-opacity="0.3"/>
</linearGradient>
<linearGradient id="paint2_linear_4001_1702" x1="60.6769" y1="52.2994" x2="60.6769" y2="85" gradientUnits="userSpaceOnUse">
<stop stop-color="#F8F8F8" stop-opacity="0.9"/>
<stop offset="1" stop-color="#F8F8F8" stop-opacity="0.3"/>
</linearGradient>
<clipPath id="clip0_4001_1702">
<rect width="52.761" height="45.2422" fill="white" transform="translate(37.5923 39.7578)"/>
</clipPath>
</defs>
</svg>
