<svg width="225" height="225" viewBox="0 0 225 225" fill="none" xmlns="http://www.w3.org/2000/svg">
<g filter="url(#filter0_i_4013_2573)">
<rect x="82.1426" width="164.286" height="164.286" rx="82.1429" transform="rotate(30 82.1426 0)" fill="#F8F8F8" fill-opacity="0.01"/>
<rect x="82.8942" y="2.80523" width="160.179" height="160.179" rx="80.0893" transform="rotate(30 82.8942 2.80523)" stroke="#F8F8F8" stroke-opacity="0.1" stroke-width="4.10714"/>
<path d="M102.636 133.885H90.5608C90.1137 133.885 89.6744 133.768 89.2865 133.545C88.8987 133.323 88.5758 133.003 88.3502 132.617C88.1245 132.231 88.0038 131.793 88.0001 131.346C87.9964 130.899 88.1099 130.458 88.3292 130.069L109.621 92.3012C109.844 91.9063 110.168 91.5777 110.559 91.3491C110.951 91.1205 111.397 91 111.85 91C112.304 91 112.749 91.1205 113.141 91.3491C113.532 91.5777 113.856 91.9063 114.079 92.3012L120.46 103.565C120.686 103.955 120.804 104.397 120.804 104.848C120.804 105.298 120.686 105.74 120.46 106.13L104.853 132.624C104.627 133.01 104.303 133.33 103.913 133.551C103.524 133.772 103.084 133.887 102.636 133.885ZM116.393 130.059L123.566 117.264C123.789 116.869 124.114 116.541 124.506 116.312C124.898 116.084 125.344 115.963 125.797 115.963C126.251 115.963 126.697 116.084 127.089 116.312C127.481 116.541 127.805 116.869 128.029 117.264L135.274 130.054C135.495 130.444 135.611 130.885 135.608 131.333C135.606 131.782 135.486 132.221 135.261 132.609C135.036 132.996 134.713 133.318 134.324 133.542C133.936 133.766 133.496 133.884 133.048 133.885H118.629C118.181 133.885 117.74 133.768 117.351 133.545C116.962 133.322 116.639 133.001 116.412 132.614C116.186 132.227 116.065 131.788 116.062 131.339C116.058 130.891 116.173 130.45 116.393 130.059Z" fill="white"/>
</g>
<defs>
<filter id="filter0_i_4013_2573" x="-273.809" y="-273.809" width="772.037" height="772.037" filterUnits="userSpaceOnUse" color-interpolation-filters="sRGB">
<feFlood flood-opacity="0" result="BackgroundImageFix"/>
<feBlend mode="normal" in="SourceGraphic" in2="BackgroundImageFix" result="shape"/>
<feColorMatrix in="SourceAlpha" type="matrix" values="0 0 0 0 0 0 0 0 0 0 0 0 0 0 0 0 0 0 127 0" result="hardAlpha"/>
<feOffset dx="5.47619" dy="10.9524"/>
<feGaussianBlur stdDeviation="21.9048"/>
<feComposite in2="hardAlpha" operator="arithmetic" k2="-1" k3="1"/>
<feColorMatrix type="matrix" values="0 0 0 0 0.972549 0 0 0 0 0.972549 0 0 0 0 0.972549 0 0 0 0.06 0"/>
<feBlend mode="normal" in2="shape" result="effect1_innerShadow_4013_2573"/>
</filter>
</defs>
</svg>
