<svg width="225" height="225" viewBox="0 0 225 225" fill="none" xmlns="http://www.w3.org/2000/svg">
<g filter="url(#filter0_i_2031_2478)">
<rect x="224.418" y="142.275" width="164.286" height="164.286" rx="82.1429" transform="rotate(150 224.418 142.275)" fill="#F8F8F8" fill-opacity="0.01"/>
<rect x="221.613" y="141.524" width="160.179" height="160.179" rx="80.0893" transform="rotate(150 221.613 141.524)" stroke="#F8F8F8" stroke-opacity="0.1" stroke-width="4.10714"/>
<path d="M112.418 84.0277C108.808 83.6164 105.236 87.8325 103.678 93.8861C105.314 90.3335 107.605 88.1422 109.875 88.4007C113.539 88.8177 115.757 95.4597 114.829 103.236C114.477 106.19 113.721 108.882 112.719 111.063C115.494 109.022 117.771 104.466 118.425 98.9824C119.353 91.2065 116.664 84.5111 112.418 84.0277Z" fill="#F8F8F8"/>
<path d="M113.211 139.987C116.834 140.268 120.245 135.926 121.574 129.821C120.073 133.43 117.866 135.702 115.588 135.525C111.911 135.24 109.444 128.682 110.078 120.878C110.319 117.914 110.973 115.196 111.892 112.98C109.196 115.12 107.092 119.755 106.645 125.258C106.011 133.062 108.95 139.657 113.211 139.987Z" fill="#F8F8F8"/>
<path d="M140.857 111.845C141.262 108.316 136.932 104.844 130.729 103.348C134.372 104.931 136.624 107.16 136.37 109.379C135.958 112.96 129.169 115.155 121.205 114.281C118.18 113.95 115.421 113.222 113.185 112.252C115.285 114.954 119.959 117.16 125.574 117.776C133.538 118.65 140.38 115.994 140.857 111.845V111.845Z" fill="#F8F8F8"/>
<path d="M84.0118 112.945C83.7397 116.486 88.1978 119.8 94.4535 121.072C90.7529 119.621 88.4182 117.474 88.5892 115.248C88.8657 111.655 95.5674 109.217 103.559 109.803C106.595 110.026 109.379 110.654 111.651 111.542C109.449 108.918 104.696 106.881 99.0609 106.468C91.0694 105.882 84.3317 108.781 84.0118 112.945Z" fill="#F8F8F8"/>
<path d="M132.869 92.3965C130.642 89.5903 125.06 90.0506 119.544 93.2025C123.286 91.8562 126.492 91.9203 127.892 93.684C130.153 96.5317 126.852 102.729 120.519 107.527C118.114 109.349 115.617 110.707 113.321 111.535C116.756 112.042 121.681 110.44 126.146 107.057C132.478 102.259 135.489 95.6953 132.869 92.396V92.3965Z" fill="#F8F8F8"/>
<path d="M92.5272 132.13C94.859 134.854 100.42 134.194 105.813 130.846C102.124 132.326 98.9179 132.377 97.4526 130.664C95.0863 127.9 98.1515 121.588 104.299 116.565C106.634 114.658 109.079 113.211 111.341 112.301C107.89 111.918 103.03 113.696 98.6946 117.237C92.5469 122.259 89.7858 128.927 92.5277 132.13L92.5272 132.13Z" fill="#F8F8F8"/>
<path d="M132.451 131.708C135.313 129.52 134.819 124.069 131.57 118.694C132.963 122.344 132.911 125.476 131.112 126.851C128.207 129.071 121.848 125.873 116.911 119.707C115.035 117.364 113.635 114.931 112.778 112.691C112.274 116.048 113.934 120.853 117.415 125.201C122.353 131.367 129.085 134.28 132.451 131.708Z" fill="#F8F8F8"/>
<path d="M91.8461 92.8283C89.0677 95.1179 89.7671 100.548 93.2168 105.802C91.6864 102.205 91.6204 99.073 93.3671 97.6338C96.1869 95.3105 102.661 98.2785 107.828 104.263C109.79 106.536 111.281 108.917 112.222 111.124C112.599 107.751 110.76 103.01 107.117 98.7899C101.95 92.8052 95.1129 90.1362 91.8461 92.8279V92.8283Z" fill="#F8F8F8"/>
</g>
<defs>
<filter id="filter0_i_2031_2478" x="-273.809" y="-273.809" width="772.037" height="772.037" filterUnits="userSpaceOnUse" color-interpolation-filters="sRGB">
<feFlood flood-opacity="0" result="BackgroundImageFix"/>
<feBlend mode="normal" in="SourceGraphic" in2="BackgroundImageFix" result="shape"/>
<feColorMatrix in="SourceAlpha" type="matrix" values="0 0 0 0 0 0 0 0 0 0 0 0 0 0 0 0 0 0 127 0" result="hardAlpha"/>
<feOffset dx="5.47619" dy="10.9524"/>
<feGaussianBlur stdDeviation="21.9048"/>
<feComposite in2="hardAlpha" operator="arithmetic" k2="-1" k3="1"/>
<feColorMatrix type="matrix" values="0 0 0 0 0.972549 0 0 0 0 0.972549 0 0 0 0 0.972549 0 0 0 0.06 0"/>
<feBlend mode="normal" in2="shape" result="effect1_innerShadow_2031_2478"/>
</filter>
</defs>
</svg>
