<svg width="39" height="39" viewBox="0 0 39 39" fill="none" xmlns="http://www.w3.org/2000/svg">
<path d="M19.1175 0.0551336C16.6944 -0.227377 14.2967 2.66918 13.251 6.82811C14.3493 4.38741 15.8872 2.88189 17.4102 3.05954C19.8695 3.34602 21.3581 7.9092 20.7355 13.2518C20.499 15.2813 19.9919 17.1308 19.319 18.6291C21.1815 17.2271 22.7101 14.0966 23.1491 10.3294C23.7717 4.98716 21.9668 0.387266 19.1175 0.0551336Z" fill="url(#paint0_linear_194_1422)"/>
<path d="M19.6493 38.5011C22.0814 38.694 24.3706 35.7114 25.2628 31.5167C24.2552 33.9961 22.7738 35.5572 21.2451 35.4358C18.7773 35.24 17.1213 30.7347 17.5467 25.3729C17.7084 23.3362 18.1471 21.4691 18.7644 19.947C16.9549 21.4168 15.5423 24.6012 15.2423 28.382C14.8168 33.7437 16.7898 38.2742 19.6493 38.5011Z" fill="url(#paint1_linear_194_1422)"/>
<path d="M38.2057 19.1667C38.478 16.7422 35.5715 14.3568 31.4079 13.3286C33.8533 14.4163 35.3651 15.948 35.1941 17.472C34.9178 19.9322 30.3609 21.4404 25.0161 20.8403C22.9856 20.6124 21.134 20.1128 19.6328 19.4463C21.0427 21.3028 24.1794 22.8182 27.9484 23.2413C33.2936 23.8414 37.8858 22.017 38.2057 19.1664V19.1667Z" fill="url(#paint2_linear_194_1422)"/>
<path d="M0.0528467 19.9221C-0.12976 22.3548 2.86241 24.6318 7.06103 25.5058C4.57732 24.5087 3.01028 23.0337 3.12507 21.5047C3.31065 19.0358 7.80866 17.3609 13.1724 17.7639C15.2098 17.917 17.0786 18.3481 18.6033 18.9588C17.1259 17.1555 13.9356 15.7562 10.1534 15.4724C4.7897 15.0698 0.267542 17.0619 0.0528467 19.9221Z" fill="url(#paint3_linear_194_1422)"/>
<path d="M32.8458 5.80448C31.3509 3.87652 27.6041 4.19278 23.9024 6.35825C26.4139 5.43331 28.5655 5.47731 29.5053 6.68906C31.0224 8.64546 28.8069 12.9033 24.5567 16.1995C22.942 17.4516 21.2665 18.3845 19.7256 18.9531C22.0307 19.3011 25.3361 18.2009 28.3329 15.8766C32.5831 12.5804 34.6037 8.07085 32.8458 5.80415V5.80448Z" fill="url(#paint4_linear_194_1422)"/>
<path d="M5.76772 33.103C7.33278 34.9744 11.0653 34.5209 14.6847 32.2204C12.2089 33.2373 10.057 33.2724 9.07349 32.096C7.48528 30.1968 9.54258 25.8603 13.6688 22.4096C15.2361 21.0989 16.8766 20.1049 18.3953 19.48C16.079 19.217 12.8166 20.438 9.90713 22.8711C5.78095 26.3214 3.92776 30.9025 5.76805 33.1027L5.76772 33.103Z" fill="url(#paint5_linear_194_1422)"/>
<path d="M32.5612 32.8133C34.4825 31.3101 34.1507 27.5646 31.9697 23.8722C32.9052 26.3797 32.8701 28.5316 31.6624 29.4764C29.7126 31.0017 25.4451 28.8042 22.1311 24.5678C20.872 22.9585 19.9322 21.2869 19.3573 19.7483C19.0192 22.0547 20.133 25.3555 22.4698 28.3427C25.7839 32.579 30.3021 34.5804 32.5612 32.8133Z" fill="url(#paint6_linear_194_1422)"/>
<path d="M5.30877 6.10182C3.444 7.67482 3.91342 11.4053 6.22875 15.0151C5.20159 12.5437 5.15726 10.3921 6.32965 9.40329C8.2222 7.80714 12.5674 9.84625 16.0352 13.9575C17.3525 15.5193 18.3532 17.1555 18.9847 18.6716C19.2378 16.3542 18.0032 13.0968 15.5579 10.1976C12.09 6.08594 7.50137 4.25227 5.30877 6.10149V6.10182Z" fill="url(#paint7_linear_194_1422)"/>
<defs>
<linearGradient id="paint0_linear_194_1422" x1="18.2615" y1="0.0361328" x2="18.2615" y2="18.6291" gradientUnits="userSpaceOnUse">
<stop stop-color="white"/>
<stop offset="1" stop-color="#B1B1B1"/>
</linearGradient>
<linearGradient id="paint1_linear_194_1422" x1="20.2237" y1="19.947" x2="20.2237" y2="38.5099" gradientUnits="userSpaceOnUse">
<stop stop-color="white"/>
<stop offset="1" stop-color="#B1B1B1"/>
</linearGradient>
<linearGradient id="paint2_linear_194_1422" x1="28.9281" y1="13.3286" x2="28.9281" y2="23.3555" gradientUnits="userSpaceOnUse">
<stop stop-color="white"/>
<stop offset="1" stop-color="#B1B1B1"/>
</linearGradient>
<linearGradient id="paint3_linear_194_1422" x1="9.3241" y1="15.4207" x2="9.3241" y2="25.5058" gradientUnits="userSpaceOnUse">
<stop stop-color="white"/>
<stop offset="1" stop-color="#B1B1B1"/>
</linearGradient>
<linearGradient id="paint4_linear_194_1422" x1="26.6029" y1="4.52905" x2="26.6029" y2="19.0162" gradientUnits="userSpaceOnUse">
<stop stop-color="white"/>
<stop offset="1" stop-color="#B1B1B1"/>
</linearGradient>
<linearGradient id="paint5_linear_194_1422" x1="11.726" y1="19.4448" x2="11.726" y2="34.266" gradientUnits="userSpaceOnUse">
<stop stop-color="white"/>
<stop offset="1" stop-color="#B1B1B1"/>
</linearGradient>
<linearGradient id="paint6_linear_194_1422" x1="26.5605" y1="19.7483" x2="26.5605" y2="33.4561" gradientUnits="userSpaceOnUse">
<stop stop-color="white"/>
<stop offset="1" stop-color="#B1B1B1"/>
</linearGradient>
<linearGradient id="paint7_linear_194_1422" x1="11.5877" y1="5.3811" x2="11.5877" y2="18.6716" gradientUnits="userSpaceOnUse">
<stop stop-color="white"/>
<stop offset="1" stop-color="#B1B1B1"/>
</linearGradient>
</defs>
</svg>
