<svg width="17" height="17" viewBox="0 0 17 17" fill="none" xmlns="http://www.w3.org/2000/svg">
<path d="M13.1542 4.11723C12.2464 3.69401 11.2634 3.38683 10.2395 3.20935C10.2215 3.20961 10.2043 3.21697 10.1917 3.22983C10.0688 3.45509 9.92546 3.74862 9.82989 3.97388C8.74384 3.81016 7.63938 3.81016 6.55333 3.97388C6.45776 3.74179 6.31441 3.45509 6.18472 3.22983C6.17789 3.21618 6.15741 3.20935 6.13693 3.20935C5.11301 3.38683 4.13687 3.69401 3.22216 4.11723C3.21534 4.11723 3.20851 4.12406 3.20168 4.13088C1.34497 6.90913 0.833005 9.61229 1.08557 12.2881C1.08557 12.3018 1.0924 12.3155 1.10605 12.3223C2.33476 13.2233 3.51569 13.7694 4.68296 14.1312C4.70344 14.138 4.72392 14.1312 4.73074 14.1176C5.00379 13.7421 5.24953 13.3462 5.46114 12.9298C5.4748 12.9025 5.46114 12.8752 5.43384 12.8684C5.04475 12.7182 4.67614 12.5407 4.31435 12.3359C4.28704 12.3223 4.28704 12.2813 4.30752 12.2608C4.38261 12.2062 4.4577 12.1448 4.53279 12.0902C4.54644 12.0765 4.56692 12.0765 4.58057 12.0834C6.92877 13.1551 9.46128 13.1551 11.7822 12.0834C11.7958 12.0765 11.8163 12.0765 11.83 12.0902C11.905 12.1516 11.9801 12.2062 12.0552 12.2677C12.0825 12.2881 12.0825 12.3291 12.0484 12.3428C11.6934 12.5544 11.318 12.725 10.9289 12.8752C10.9016 12.882 10.8948 12.9162 10.9016 12.9366C11.12 13.353 11.3658 13.7489 11.632 14.1244C11.6525 14.1312 11.673 14.138 11.6934 14.1312C12.8675 13.7694 14.0485 13.2233 15.2772 12.3223C15.2908 12.3155 15.2976 12.3018 15.2976 12.2881C15.598 9.1959 14.7993 6.51321 13.1815 4.13088C13.1747 4.12406 13.1679 4.11723 13.1542 4.11723ZM5.8161 10.6567C5.11301 10.6567 4.52596 10.0082 4.52596 9.20955C4.52596 8.41089 5.09936 7.7624 5.8161 7.7624C6.53968 7.7624 7.11308 8.41771 7.10625 9.20955C7.10625 10.0082 6.53285 10.6567 5.8161 10.6567ZM10.5739 10.6567C9.87085 10.6567 9.2838 10.0082 9.2838 9.20955C9.2838 8.41089 9.85719 7.7624 10.5739 7.7624C11.2975 7.7624 11.8709 8.41771 11.8641 9.20955C11.8641 10.0082 11.2975 10.6567 10.5739 10.6567Z" fill="white"/>
</svg>
