<svg width="15" height="13" viewBox="0 0 15 13" fill="none" xmlns="http://www.w3.org/2000/svg">
<path d="M3.05999 9.80776L1.80628 11.0558C1.75287 11.1087 1.71047 11.1718 1.68154 11.2412C1.65261 11.3107 1.63771 11.3851 1.63771 11.4604C1.63771 11.5356 1.65261 11.6101 1.68154 11.6795C1.71047 11.749 1.75287 11.812 1.80628 11.865C1.85926 11.9184 1.92228 11.9608 1.99173 11.9897C2.06117 12.0187 2.13566 12.0336 2.21089 12.0336C2.28611 12.0336 2.3606 12.0187 2.43004 11.9897C2.49949 11.9608 2.56252 11.9184 2.61549 11.865L4.35929 10.1155L6.33103 8.14375L12.8731 1.60736C12.9804 1.50005 13.0407 1.35451 13.0407 1.20275C13.0407 1.051 12.9804 0.905456 12.8731 0.798148C12.7658 0.690839 12.6203 0.630554 12.4685 0.630554C12.3168 0.630554 12.1712 0.690839 12.0639 0.798148L10.605 2.26271C8.86381 1.39357 6.84929 1.24916 5.00189 1.86105C3.15448 2.47294 1.62447 3.79134 0.746325 5.52805C0.619709 5.77697 0.553711 6.05229 0.553711 6.33157C0.553711 6.61084 0.619709 6.88616 0.746325 7.13508C1.28944 8.20039 2.08348 9.11763 3.05999 9.80776ZM5.90933 6.33157C5.90933 6.144 5.94637 5.95827 6.01832 5.78505C6.09027 5.61183 6.19572 5.45452 6.32862 5.32215C6.46152 5.18979 6.61924 5.08496 6.79275 5.0137C6.96626 4.94244 7.15213 4.90615 7.3397 4.9069C7.51705 4.90702 7.69285 4.93986 7.85828 5.00377L6.01191 6.85015C5.94799 6.68472 5.91515 6.50891 5.91503 6.33157H5.90933ZM1.75499 6.04663C2.28026 5.01732 3.07984 4.15323 4.06539 3.54983C5.05094 2.94643 6.1841 2.62721 7.3397 2.62742C8.16718 2.62952 8.98619 2.7941 9.75024 3.11181L8.70168 4.16607C8.29491 3.90618 7.82241 3.76779 7.3397 3.76716C6.66004 3.76867 6.00865 4.03933 5.52805 4.51992C5.04746 5.00051 4.7768 5.65191 4.77529 6.33157C4.77592 6.81427 4.91431 7.28677 5.1742 7.69355L3.8863 8.97575C2.98582 8.3862 2.25349 7.57336 1.76069 6.6165C1.71067 6.52987 1.68434 6.4316 1.68434 6.33157C1.68434 6.23153 1.71067 6.13326 1.76069 6.04663H1.75499ZM12.9985 4.12618C12.9752 4.10715 12.9504 4.09 12.9244 4.07489L12.8275 4.0122C12.795 3.9975 12.7604 3.98788 12.725 3.98371C12.6891 3.97776 12.6525 3.97776 12.6167 3.98371H12.5141C12.4783 3.97776 12.4417 3.97776 12.4058 3.98371C12.37 3.99731 12.3356 4.0145 12.3032 4.035C12.2773 4.04809 12.2525 4.06334 12.2292 4.08059L6.13158 10.1554C6.13158 10.1554 6.13158 10.1953 6.09169 10.2124C6.06441 10.2433 6.04141 10.2778 6.0233 10.3149C6.0068 10.3492 5.99529 10.3857 5.98911 10.4232C5.98911 10.4232 5.98911 10.4688 5.98911 10.4916C5.98856 10.5011 5.98856 10.5106 5.98911 10.5201C5.98326 10.5617 5.98326 10.6039 5.98911 10.6455C5.98587 10.6777 5.98587 10.7101 5.98911 10.7423C6.00195 10.7757 6.01719 10.8081 6.0347 10.8392L6.09739 10.9304C6.09739 10.9304 6.09739 10.9304 6.09739 10.9589C6.09739 10.9874 6.13728 10.9874 6.15437 11.0045L6.25125 11.0672C6.28815 11.0819 6.32629 11.0934 6.36522 11.1014C6.36522 11.1014 6.40511 11.1014 6.43361 11.1014H6.49629C6.77586 11.1415 7.05742 11.1662 7.3397 11.1754C8.7042 11.1745 10.0419 10.7967 11.2054 10.0838C12.3688 9.37084 13.3127 8.35043 13.9331 7.13508C14.0597 6.88616 14.1257 6.61084 14.1257 6.33157C14.1257 6.05229 14.0597 5.77697 13.9331 5.52805C13.6856 5.03557 13.3856 4.57128 13.0384 4.14327L12.9985 4.12618ZM12.9187 6.6165C12.4391 7.55856 11.7277 8.36306 10.8514 8.95426C9.97504 9.54545 8.96266 9.90389 7.90957 9.99582L12.5312 5.37989C12.6803 5.59205 12.8137 5.8149 12.9301 6.04663C12.9784 6.13426 13.0028 6.23306 13.0008 6.33309C12.9988 6.43313 12.9705 6.53087 12.9187 6.6165Z" fill="white"/>
<path d="M3.05999 9.80776L1.80628 11.0558C1.75287 11.1087 1.71047 11.1718 1.68154 11.2412C1.65261 11.3107 1.63771 11.3851 1.63771 11.4604C1.63771 11.5356 1.65261 11.6101 1.68154 11.6795C1.71047 11.749 1.75287 11.812 1.80628 11.865C1.85926 11.9184 1.92228 11.9608 1.99173 11.9897C2.06117 12.0187 2.13566 12.0336 2.21089 12.0336C2.28611 12.0336 2.3606 12.0187 2.43004 11.9897C2.49949 11.9608 2.56252 11.9184 2.61549 11.865L4.35929 10.1155L6.33103 8.14375L12.8731 1.60736C12.9804 1.50005 13.0407 1.35451 13.0407 1.20275C13.0407 1.051 12.9804 0.905456 12.8731 0.798148C12.7658 0.690839 12.6203 0.630554 12.4685 0.630554C12.3168 0.630554 12.1712 0.690839 12.0639 0.798148L10.605 2.26271C8.86381 1.39357 6.84929 1.24916 5.00189 1.86105C3.15448 2.47294 1.62447 3.79134 0.746325 5.52805C0.619709 5.77697 0.553711 6.05229 0.553711 6.33157C0.553711 6.61084 0.619709 6.88616 0.746325 7.13508C1.28944 8.20039 2.08348 9.11763 3.05999 9.80776ZM5.90933 6.33157C5.90933 6.144 5.94637 5.95827 6.01832 5.78505C6.09027 5.61183 6.19572 5.45452 6.32862 5.32215C6.46152 5.18979 6.61924 5.08496 6.79275 5.0137C6.96626 4.94244 7.15213 4.90615 7.3397 4.9069C7.51705 4.90702 7.69285 4.93986 7.85828 5.00377L6.01191 6.85015C5.94799 6.68472 5.91515 6.50891 5.91503 6.33157H5.90933ZM1.75499 6.04663C2.28026 5.01732 3.07984 4.15323 4.06539 3.54983C5.05094 2.94643 6.1841 2.62721 7.3397 2.62742C8.16718 2.62952 8.98619 2.7941 9.75024 3.11181L8.70168 4.16607C8.29491 3.90618 7.82241 3.76779 7.3397 3.76716C6.66004 3.76867 6.00865 4.03933 5.52805 4.51992C5.04746 5.00051 4.7768 5.65191 4.77529 6.33157C4.77592 6.81427 4.91431 7.28677 5.1742 7.69355L3.8863 8.97575C2.98582 8.3862 2.25349 7.57336 1.76069 6.6165C1.71067 6.52987 1.68434 6.4316 1.68434 6.33157C1.68434 6.23153 1.71067 6.13326 1.76069 6.04663H1.75499ZM12.9985 4.12618C12.9752 4.10715 12.9504 4.09 12.9244 4.07489L12.8275 4.0122C12.795 3.9975 12.7604 3.98788 12.725 3.98371C12.6891 3.97776 12.6525 3.97776 12.6167 3.98371H12.5141C12.4783 3.97776 12.4417 3.97776 12.4058 3.98371C12.37 3.99731 12.3356 4.0145 12.3032 4.035C12.2773 4.04809 12.2525 4.06334 12.2292 4.08059L6.13158 10.1554C6.13158 10.1554 6.13158 10.1953 6.09169 10.2124C6.06441 10.2433 6.04141 10.2778 6.0233 10.3149C6.0068 10.3492 5.99529 10.3857 5.98911 10.4232C5.98911 10.4232 5.98911 10.4688 5.98911 10.4916C5.98856 10.5011 5.98856 10.5106 5.98911 10.5201C5.98326 10.5617 5.98326 10.6039 5.98911 10.6455C5.98587 10.6777 5.98587 10.7101 5.98911 10.7423C6.00195 10.7757 6.01719 10.8081 6.0347 10.8392L6.09739 10.9304C6.09739 10.9304 6.09739 10.9304 6.09739 10.9589C6.09739 10.9874 6.13728 10.9874 6.15437 11.0045L6.25125 11.0672C6.28815 11.0819 6.32629 11.0934 6.36522 11.1014C6.36522 11.1014 6.40511 11.1014 6.43361 11.1014H6.49629C6.77586 11.1415 7.05742 11.1662 7.3397 11.1754C8.7042 11.1745 10.0419 10.7967 11.2054 10.0838C12.3688 9.37084 13.3127 8.35043 13.9331 7.13508C14.0597 6.88616 14.1257 6.61084 14.1257 6.33157C14.1257 6.05229 14.0597 5.77697 13.9331 5.52805C13.6856 5.03557 13.3856 4.57128 13.0384 4.14327L12.9985 4.12618ZM12.9187 6.6165C12.4391 7.55856 11.7277 8.36306 10.8514 8.95426C9.97504 9.54545 8.96266 9.90389 7.90957 9.99582L12.5312 5.37989C12.6803 5.59205 12.8137 5.8149 12.9301 6.04663C12.9784 6.13426 13.0028 6.23306 13.0008 6.33309C12.9988 6.43313 12.9705 6.53087 12.9187 6.6165Z" fill="black" fill-opacity="0.2"/>
</svg>
