<svg width="318" height="34" viewBox="0 0 318 34" fill="none" xmlns="http://www.w3.org/2000/svg">
<g filter="url(#filter0_i_2001_1593)">
<path d="M149 7.59938C149 3.40236 152.402 0 156.599 0H317.798V25.8379C317.798 30.0349 314.396 33.4373 310.199 33.4373H156.599C152.402 33.4373 149 30.0349 149 25.8379V7.59938Z" fill="#101010"/>
<path d="M160.789 18.5995V13.0085H164.549V13.6357H161.497V15.7237H164.197V16.3509H161.497V18.5995H160.789ZM164.625 16.5803C164.625 16.2208 164.677 15.9073 164.782 15.6396C164.886 15.3719 165.029 15.1501 165.21 14.9742C165.391 14.7957 165.605 14.6644 165.853 14.5803C166.1 14.4936 166.37 14.4502 166.663 14.4502C166.977 14.4502 167.259 14.5038 167.509 14.6109C167.758 14.7179 167.97 14.8722 168.143 15.0736C168.319 15.2724 168.448 15.5185 168.53 15.8117C168.593 16.036 168.624 16.2846 168.621 16.5574C168.621 16.6415 168.619 16.7269 168.614 16.8136H165.34C165.381 17.247 165.523 17.567 165.765 17.7735C166.009 17.98 166.307 18.0832 166.656 18.0832C166.87 18.0832 167.07 18.0373 167.256 17.9456C167.445 17.8538 167.584 17.7225 167.673 17.5517H168.426C168.375 17.7403 168.293 17.906 168.178 18.0488C168.066 18.1916 167.931 18.3114 167.772 18.4083C167.617 18.5052 167.444 18.5791 167.252 18.6301C167.064 18.6836 166.867 18.7104 166.663 18.7104C166.37 18.7104 166.1 18.667 165.853 18.5804C165.605 18.4937 165.391 18.3624 165.21 18.1865C165.029 18.008 164.886 17.7862 164.782 17.5211C164.677 17.2534 164.625 16.9398 164.625 16.5803ZM165.363 16.1864H167.883C167.853 15.9825 167.798 15.8104 167.719 15.6702C167.642 15.5299 167.548 15.4152 167.436 15.326C167.324 15.2368 167.2 15.173 167.065 15.1348C166.932 15.094 166.796 15.0736 166.656 15.0736C166.327 15.0736 166.046 15.1654 165.814 15.3489C165.582 15.5325 165.432 15.8117 165.363 16.1864ZM168.862 15.1845V14.5573H169.857V13.4789H170.56V14.5573H171.635V15.1845H170.56V18.5995H169.857V15.1845H168.862ZM171.86 16.5803C171.86 16.2208 171.913 15.9073 172.017 15.6396C172.122 15.3719 172.265 15.1501 172.446 14.9742C172.627 14.7957 172.841 14.6644 173.088 14.5803C173.335 14.4936 173.606 14.4502 173.899 14.4502C174.128 14.4502 174.346 14.4821 174.553 14.5459C174.759 14.607 174.944 14.6975 175.107 14.8174C175.273 14.9372 175.408 15.0851 175.513 15.261C175.617 15.4343 175.682 15.6332 175.708 15.8575H174.996C174.981 15.7377 174.939 15.6294 174.87 15.5325C174.801 15.4356 174.716 15.354 174.614 15.2877C174.512 15.2189 174.398 15.1666 174.274 15.131C174.149 15.0927 174.021 15.0736 173.891 15.0736C173.702 15.0736 173.527 15.1042 173.363 15.1654C173.203 15.2266 173.064 15.3196 172.947 15.4445C172.829 15.5695 172.736 15.7262 172.667 15.9149C172.601 16.1036 172.568 16.3254 172.568 16.5803C172.568 16.8353 172.601 17.0571 172.667 17.2457C172.736 17.4318 172.829 17.5886 172.947 17.7161C173.064 17.841 173.203 17.9341 173.363 17.9953C173.527 18.0539 173.702 18.0832 173.891 18.0832C174.021 18.0832 174.149 18.0654 174.274 18.0297C174.398 17.9914 174.511 17.9405 174.61 17.8767C174.71 17.8104 174.792 17.7288 174.859 17.632C174.927 17.5351 174.973 17.4242 174.996 17.2993H175.708C175.682 17.5236 175.617 17.7237 175.513 17.8997C175.408 18.073 175.273 18.2209 175.107 18.3433C174.944 18.4631 174.759 18.5536 174.553 18.6148C174.346 18.6785 174.128 18.7104 173.899 18.7104C173.606 18.7104 173.335 18.667 173.088 18.5804C172.841 18.4937 172.627 18.3624 172.446 18.1865C172.265 18.008 172.122 17.7862 172.017 17.5211C171.913 17.2534 171.86 16.9398 171.86 16.5803ZM176.254 18.5995V13.0085H176.962V15.0812H177.038C177.189 14.862 177.381 14.7026 177.616 14.6032C177.853 14.5012 178.118 14.4502 178.411 14.4502C178.959 14.4502 179.389 14.6109 179.7 14.9321C180.014 15.2508 180.17 15.7454 180.17 16.4159V18.5995H179.467V16.4159C179.467 15.957 179.356 15.6192 179.134 15.4025C178.912 15.1832 178.605 15.0736 178.212 15.0736C177.83 15.0736 177.528 15.1679 177.306 15.3566C177.087 15.5452 176.972 15.8512 176.962 16.2744V18.5995H176.254ZM183.062 18.5995V16.4159C183.062 15.7479 183.207 15.2533 183.497 14.9321C183.788 14.6109 184.188 14.4502 184.698 14.4502C185.027 14.4502 185.311 14.5114 185.551 14.6338C185.793 14.7562 185.982 14.9499 186.117 15.2151H186.19C186.32 14.9499 186.506 14.7562 186.748 14.6338C186.99 14.5114 187.278 14.4502 187.612 14.4502C188.125 14.4502 188.525 14.6109 188.813 14.9321C189.104 15.2508 189.249 15.7454 189.249 16.4159V18.5995H188.545V16.4159C188.545 15.957 188.455 15.6192 188.274 15.4025C188.095 15.1832 187.847 15.0736 187.528 15.0736C187.21 15.0736 186.96 15.1717 186.779 15.3681C186.6 15.5644 186.511 15.8869 186.511 16.3356V18.5995H185.803V16.3356C185.803 15.8869 185.713 15.5644 185.532 15.3681C185.354 15.1717 185.105 15.0736 184.786 15.0736C184.468 15.0736 184.218 15.1819 184.037 15.3986C183.858 15.6153 183.769 15.9544 183.769 16.4159V18.5995H183.062ZM189.872 16.5803C189.872 16.2208 189.925 15.9073 190.029 15.6396C190.134 15.3719 190.277 15.1501 190.458 14.9742C190.639 14.7957 190.853 14.6644 191.1 14.5803C191.347 14.4936 191.618 14.4502 191.911 14.4502C192.224 14.4502 192.506 14.5038 192.756 14.6109C193.006 14.7179 193.217 14.8722 193.391 15.0736C193.567 15.2724 193.695 15.5185 193.777 15.8117C193.841 16.036 193.871 16.2846 193.869 16.5574C193.869 16.6415 193.866 16.7269 193.861 16.8136H190.588C190.628 17.247 190.77 17.567 191.012 17.7735C191.257 17.98 191.554 18.0832 191.903 18.0832C192.117 18.0832 192.317 18.0373 192.503 17.9456C192.692 17.8538 192.831 17.7225 192.92 17.5517H193.674C193.623 17.7403 193.54 17.906 193.425 18.0488C193.313 18.1916 193.178 18.3114 193.02 18.4083C192.864 18.5052 192.691 18.5791 192.5 18.6301C192.311 18.6836 192.115 18.7104 191.911 18.7104C191.618 18.7104 191.347 18.667 191.1 18.5804C190.853 18.4937 190.639 18.3624 190.458 18.1865C190.277 18.008 190.134 17.7862 190.029 17.5211C189.925 17.2534 189.872 16.9398 189.872 16.5803ZM190.61 16.1864H193.131C193.1 15.9825 193.045 15.8104 192.966 15.6702C192.89 15.5299 192.795 15.4152 192.683 15.326C192.571 15.2368 192.447 15.173 192.312 15.1348C192.18 15.094 192.043 15.0736 191.903 15.0736C191.574 15.0736 191.294 15.1654 191.062 15.3489C190.83 15.5325 190.679 15.8117 190.61 16.1864ZM196.458 16.5803C196.458 16.2208 196.51 15.9073 196.614 15.6396C196.719 15.3719 196.86 15.1501 197.039 14.9742C197.217 14.7957 197.423 14.6644 197.655 14.5803C197.887 14.4936 198.13 14.4502 198.385 14.4502C198.683 14.4502 198.954 14.5076 199.196 14.6223C199.438 14.7371 199.648 14.9142 199.827 15.1539H199.907L199.984 14.5573H200.611V18.5995H199.984L199.907 18.0029H199.827C199.648 18.2375 199.438 18.4147 199.196 18.5345C198.954 18.6518 198.683 18.7104 198.385 18.7104C198.13 18.7104 197.887 18.667 197.655 18.5804C197.423 18.4937 197.217 18.3624 197.039 18.1865C196.86 18.008 196.719 17.7862 196.614 17.5211C196.51 17.2534 196.458 16.9398 196.458 16.5803ZM197.165 16.5803C197.165 17.0928 197.293 17.4714 197.548 17.7161C197.803 17.9608 198.134 18.0832 198.542 18.0832C198.741 18.0832 198.923 18.0539 199.089 17.9953C199.257 17.9341 199.401 17.841 199.521 17.7161C199.641 17.5886 199.735 17.4318 199.804 17.2457C199.873 17.0571 199.907 16.8353 199.907 16.5803C199.907 16.3254 199.873 16.1036 199.804 15.9149C199.735 15.7262 199.641 15.5695 199.521 15.4445C199.401 15.3196 199.257 15.2266 199.089 15.1654C198.923 15.1042 198.741 15.0736 198.542 15.0736C198.134 15.0736 197.803 15.1972 197.548 15.4445C197.293 15.6893 197.165 16.0679 197.165 16.5803ZM203.349 16.5803C203.349 16.2208 203.401 15.9073 203.506 15.6396C203.61 15.3719 203.753 15.1501 203.934 14.9742C204.115 14.7957 204.329 14.6644 204.576 14.5803C204.824 14.4936 205.094 14.4502 205.387 14.4502C205.617 14.4502 205.835 14.4821 206.041 14.5459C206.248 14.607 206.432 14.6975 206.596 14.8174C206.761 14.9372 206.896 15.0851 207.001 15.261C207.105 15.4343 207.17 15.6332 207.196 15.8575H206.485C206.469 15.7377 206.427 15.6294 206.358 15.5325C206.29 15.4356 206.204 15.354 206.102 15.2877C206 15.2189 205.887 15.1666 205.762 15.131C205.637 15.0927 205.51 15.0736 205.379 15.0736C205.191 15.0736 205.015 15.1042 204.852 15.1654C204.691 15.2266 204.552 15.3196 204.435 15.4445C204.318 15.5695 204.225 15.7262 204.156 15.9149C204.089 16.1036 204.056 16.3254 204.056 16.5803C204.056 16.8353 204.089 17.0571 204.156 17.2457C204.225 17.4318 204.318 17.5886 204.435 17.7161C204.552 17.841 204.691 17.9341 204.852 17.9953C205.015 18.0539 205.191 18.0832 205.379 18.0832C205.51 18.0832 205.637 18.0654 205.762 18.0297C205.887 17.9914 205.999 17.9405 206.098 17.8767C206.198 17.8104 206.281 17.7288 206.347 17.632C206.416 17.5351 206.462 17.4242 206.485 17.2993H207.196C207.17 17.5236 207.105 17.7237 207.001 17.8997C206.896 18.073 206.761 18.2209 206.596 18.3433C206.432 18.4631 206.248 18.5536 206.041 18.6148C205.835 18.6785 205.617 18.7104 205.387 18.7104C205.094 18.7104 204.824 18.667 204.576 18.5804C204.329 18.4937 204.115 18.3624 203.934 18.1865C203.753 18.008 203.61 17.7862 203.506 17.5211C203.401 17.2534 203.349 16.9398 203.349 16.5803ZM207.743 18.5995V13.0085H208.45V15.0812H208.527C208.677 14.862 208.87 14.7026 209.104 14.6032C209.341 14.5012 209.606 14.4502 209.9 14.4502C210.448 14.4502 210.877 14.6109 211.188 14.9321C211.502 15.2508 211.659 15.7454 211.659 16.4159V18.5995H210.955V16.4159C210.955 15.957 210.844 15.6192 210.622 15.4025C210.401 15.1832 210.093 15.0736 209.701 15.0736C209.318 15.0736 209.016 15.1679 208.794 15.3566C208.575 15.5452 208.461 15.8512 208.45 16.2744V18.5995H207.743ZM212.282 16.5803C212.282 16.2208 212.334 15.9073 212.439 15.6396C212.543 15.3719 212.685 15.1501 212.863 14.9742C213.042 14.7957 213.247 14.6644 213.479 14.5803C213.711 14.4936 213.955 14.4502 214.21 14.4502C214.508 14.4502 214.778 14.5076 215.02 14.6223C215.262 14.7371 215.473 14.9142 215.651 15.1539H215.732L215.808 14.5573H216.435V18.5995H215.808L215.732 18.0029H215.651C215.473 18.2375 215.262 18.4147 215.02 18.5345C214.778 18.6518 214.508 18.7104 214.21 18.7104C213.955 18.7104 213.711 18.667 213.479 18.5804C213.247 18.4937 213.042 18.3624 212.863 18.1865C212.685 18.008 212.543 17.7862 212.439 17.5211C212.334 17.2534 212.282 16.9398 212.282 16.5803ZM212.99 16.5803C212.99 17.0928 213.117 17.4714 213.372 17.7161C213.627 17.9608 213.958 18.0832 214.366 18.0832C214.565 18.0832 214.747 18.0539 214.913 17.9953C215.081 17.9341 215.225 17.841 215.345 17.7161C215.465 17.5886 215.559 17.4318 215.628 17.2457C215.697 17.0571 215.732 16.8353 215.732 16.5803C215.732 16.3254 215.697 16.1036 215.628 15.9149C215.559 15.7262 215.465 15.5695 215.345 15.4445C215.225 15.3196 215.081 15.2266 214.913 15.1654C214.747 15.1042 214.565 15.0736 214.366 15.0736C213.958 15.0736 213.627 15.1972 213.372 15.4445C213.117 15.6893 212.99 16.0679 212.99 16.5803ZM217.219 18.5995V14.5573H217.846L217.927 15.1921H218.003C218.154 14.9729 218.35 14.8123 218.592 14.7103C218.837 14.6083 219.163 14.5573 219.571 14.5573V15.2151C219.444 15.2023 219.324 15.196 219.212 15.196C218.816 15.196 218.519 15.2775 218.321 15.4407C218.066 15.6498 217.934 15.9633 217.927 16.3815V18.5995H217.219ZM219.724 15.1845V14.5573H220.718V13.4789H221.422V14.5573H222.497V15.1845H221.422V18.5995H220.718V15.1845H219.724ZM224.917 15.1845V14.5573H225.621V14.2437C225.621 13.9939 225.649 13.7836 225.705 13.6127C225.764 13.4394 225.845 13.3004 225.95 13.1959C226.054 13.0914 226.177 13.0162 226.317 12.9703C226.46 12.9218 226.616 12.8976 226.787 12.8976C226.907 12.8976 227.028 12.9015 227.151 12.9091C227.275 12.9167 227.406 12.9308 227.541 12.9512V13.5095C227.352 13.4942 227.184 13.4802 227.036 13.4674C227.005 13.4674 226.975 13.4674 226.944 13.4674C226.834 13.4674 226.739 13.4827 226.657 13.5133C226.553 13.5567 226.472 13.6344 226.416 13.7466C226.363 13.8588 226.333 14.0245 226.328 14.2437V14.5573H227.541V15.1845H226.328V18.5995H225.621V15.1845H224.917ZM227.935 18.5995V14.5573H228.562L228.642 15.1921H228.718C228.869 14.9729 229.065 14.8123 229.307 14.7103C229.552 14.6083 229.878 14.5573 230.286 14.5573V15.2151C230.159 15.2023 230.039 15.196 229.927 15.196C229.532 15.196 229.235 15.2775 229.036 15.4407C228.781 15.6498 228.65 15.9633 228.642 16.3815V18.5995H227.935ZM230.401 16.5803C230.401 16.2208 230.453 15.9073 230.558 15.6396C230.662 15.3719 230.809 15.1501 230.998 14.9742C231.186 14.7957 231.409 14.6644 231.667 14.5803C231.927 14.4936 232.21 14.4502 232.516 14.4502C232.824 14.4502 233.107 14.4936 233.365 14.5803C233.625 14.6644 233.848 14.7957 234.034 14.9742C234.223 15.1501 234.369 15.3719 234.474 15.6396C234.578 15.9073 234.631 16.2208 234.631 16.5803C234.631 16.9398 234.578 17.2534 234.474 17.5211C234.369 17.7862 234.223 18.008 234.034 18.1865C233.848 18.3624 233.625 18.4937 233.365 18.5804C233.107 18.667 232.824 18.7104 232.516 18.7104C232.207 18.7104 231.924 18.667 231.667 18.5804C231.409 18.4937 231.186 18.3624 230.998 18.1865C230.809 18.008 230.662 17.7862 230.558 17.5211C230.453 17.2534 230.401 16.9398 230.401 16.5803ZM231.109 16.5803C231.109 16.8353 231.142 17.0571 231.208 17.2457C231.277 17.4318 231.374 17.5886 231.499 17.7161C231.624 17.841 231.771 17.9341 231.942 17.9953C232.116 18.0539 232.304 18.0832 232.508 18.0832C232.717 18.0832 232.909 18.0539 233.082 17.9953C233.258 17.9341 233.408 17.841 233.533 17.7161C233.661 17.5886 233.757 17.4318 233.824 17.2457C233.893 17.0571 233.927 16.8353 233.927 16.5803C233.927 16.3254 233.893 16.1036 233.824 15.9149C233.757 15.7262 233.661 15.5695 233.533 15.4445C233.408 15.3196 233.258 15.2266 233.082 15.1654C232.909 15.1042 232.717 15.0736 232.508 15.0736C232.304 15.0736 232.116 15.1042 231.942 15.1654C231.771 15.2266 231.624 15.3196 231.499 15.4445C231.374 15.5695 231.277 15.7262 231.208 15.9149C231.142 16.101 231.109 16.3228 231.109 16.5803ZM235.254 18.5995V16.4159C235.254 15.7479 235.399 15.2533 235.69 14.9321C235.981 14.6109 236.381 14.4502 236.891 14.4502C237.22 14.4502 237.504 14.5114 237.744 14.6338C237.986 14.7562 238.174 14.9499 238.31 15.2151H238.382C238.512 14.9499 238.698 14.7562 238.941 14.6338C239.183 14.5114 239.471 14.4502 239.805 14.4502C240.317 14.4502 240.718 14.6109 241.006 14.9321C241.296 15.2508 241.442 15.7454 241.442 16.4159V18.5995H240.738V16.4159C240.738 15.957 240.647 15.6192 240.466 15.4025C240.288 15.1832 240.039 15.0736 239.721 15.0736C239.402 15.0736 239.152 15.1717 238.971 15.3681C238.793 15.5644 238.703 15.8869 238.703 16.3356V18.5995H237.996V16.3356C237.996 15.8869 237.905 15.5644 237.724 15.3681C237.546 15.1717 237.297 15.0736 236.979 15.0736C236.66 15.0736 236.41 15.1819 236.229 15.3986C236.051 15.6153 235.962 15.9544 235.962 16.4159V18.5995H235.254ZM244.176 16.5803C244.176 16.2208 244.228 15.9073 244.333 15.6396C244.437 15.3719 244.579 15.1501 244.757 14.9742C244.936 14.7957 245.141 14.6644 245.373 14.5803C245.605 14.4936 245.848 14.4502 246.103 14.4502C246.402 14.4502 246.672 14.5076 246.914 14.6223C247.156 14.7371 247.367 14.9142 247.545 15.1539H247.625V13.0085H248.329V18.5995H247.702L247.625 18.0029H247.545C247.367 18.2375 247.156 18.4147 246.914 18.5345C246.672 18.6518 246.402 18.7104 246.103 18.7104C245.848 18.7104 245.605 18.667 245.373 18.5804C245.141 18.4937 244.936 18.3624 244.757 18.1865C244.579 18.008 244.437 17.7862 244.333 17.5211C244.228 17.2534 244.176 16.9398 244.176 16.5803ZM244.883 16.5803C244.883 17.0928 245.011 17.4714 245.266 17.7161C245.521 17.9608 245.852 18.0832 246.26 18.0832C246.459 18.0832 246.641 18.0539 246.807 17.9953C246.975 17.9341 247.119 17.841 247.239 17.7161C247.359 17.5886 247.453 17.4318 247.522 17.2457C247.591 17.0571 247.625 16.8353 247.625 16.5803C247.625 16.3254 247.591 16.1036 247.522 15.9149C247.453 15.7262 247.359 15.5695 247.239 15.4445C247.119 15.3196 246.975 15.2266 246.807 15.1654C246.641 15.1042 246.459 15.0736 246.26 15.0736C245.852 15.0736 245.521 15.1972 245.266 15.4445C245.011 15.6893 244.883 16.0679 244.883 16.5803ZM248.956 16.5803C248.956 16.2208 249.008 15.9073 249.113 15.6396C249.217 15.3719 249.36 15.1501 249.541 14.9742C249.722 14.7957 249.936 14.6644 250.184 14.5803C250.431 14.4936 250.701 14.4502 250.994 14.4502C251.308 14.4502 251.59 14.5038 251.84 14.6109C252.089 14.7179 252.301 14.8722 252.474 15.0736C252.65 15.2724 252.779 15.5185 252.861 15.8117C252.924 16.036 252.955 16.2846 252.952 16.5574C252.952 16.6415 252.95 16.7269 252.945 16.8136H249.671C249.712 17.247 249.853 17.567 250.096 17.7735C250.34 17.98 250.637 18.0832 250.987 18.0832C251.201 18.0832 251.401 18.0373 251.587 17.9456C251.776 17.8538 251.915 17.7225 252.004 17.5517H252.757C252.706 17.7403 252.623 17.906 252.509 18.0488C252.397 18.1916 252.261 18.3114 252.103 18.4083C251.948 18.5052 251.775 18.5791 251.583 18.6301C251.395 18.6836 251.198 18.7104 250.994 18.7104C250.701 18.7104 250.431 18.667 250.184 18.5804C249.936 18.4937 249.722 18.3624 249.541 18.1865C249.36 18.008 249.217 17.7862 249.113 17.5211C249.008 17.2534 248.956 16.9398 248.956 16.5803ZM249.694 16.1864H252.214C252.184 15.9825 252.129 15.8104 252.05 15.6702C251.973 15.5299 251.879 15.4152 251.767 15.326C251.655 15.2368 251.531 15.173 251.396 15.1348C251.263 15.094 251.127 15.0736 250.987 15.0736C250.658 15.0736 250.377 15.1654 250.145 15.3489C249.913 15.5325 249.763 15.8117 249.694 16.1864ZM253.036 18.5995L254.635 16.588L253.036 14.5573H253.897L255.025 16.0296H255.105L256.249 14.5573H257.071L255.472 16.565L257.071 18.5995H256.207L255.082 17.1272H255.002L253.859 18.5995H253.036ZM257.147 17.4025H257.855C257.855 17.4153 257.854 17.4267 257.851 17.4369C257.849 17.6307 257.926 17.7913 258.084 17.9188C258.248 18.0539 258.528 18.1215 258.926 18.1215C259.295 18.1215 259.567 18.0603 259.74 17.9379C259.914 17.8155 260 17.6549 260 17.4561C260 17.3056 259.932 17.1947 259.794 17.1234C259.659 17.052 259.488 16.9972 259.281 16.9589C259.077 16.9207 258.854 16.8863 258.612 16.8557C258.373 16.8225 258.149 16.7664 257.943 16.6874C257.736 16.6058 257.566 16.4911 257.43 16.3432C257.295 16.1928 257.228 15.9786 257.228 15.7008C257.228 15.5223 257.262 15.3566 257.331 15.2036C257.402 15.0506 257.508 14.9181 257.648 14.8059C257.791 14.6937 257.97 14.607 258.184 14.5459C258.398 14.4821 258.645 14.4502 258.926 14.4502C259.229 14.4502 259.49 14.4859 259.71 14.5573C259.929 14.6262 260.107 14.7192 260.245 14.8365C260.385 14.9538 260.486 15.0914 260.547 15.2495C260.603 15.3974 260.63 15.5529 260.628 15.7161C260.628 15.7288 260.628 15.7428 260.628 15.7581H259.92C259.92 15.7454 259.92 15.7326 259.92 15.7199C259.92 15.5287 259.847 15.3693 259.702 15.2419C259.547 15.1042 259.288 15.0353 258.926 15.0353C258.592 15.0353 258.342 15.0965 258.176 15.2189C258.013 15.3413 257.931 15.5019 257.931 15.7008C257.931 15.8614 257.999 15.9774 258.134 16.0488C258.272 16.1201 258.444 16.175 258.65 16.2132C258.857 16.2489 259.08 16.282 259.32 16.3126C259.559 16.3432 259.782 16.398 259.989 16.4771C260.195 16.5561 260.366 16.6695 260.501 16.8174C260.636 16.9653 260.704 17.1782 260.704 17.4561C260.704 17.6345 260.668 17.8002 260.597 17.9532C260.528 18.1062 260.42 18.24 260.272 18.3547C260.127 18.4669 259.942 18.5536 259.717 18.6148C259.493 18.6785 259.229 18.7104 258.926 18.7104C258.602 18.7104 258.327 18.6747 258.1 18.6033C257.873 18.5319 257.688 18.4376 257.545 18.3203C257.402 18.2005 257.298 18.0616 257.232 17.9035C257.173 17.7658 257.144 17.6218 257.144 17.4714C257.144 17.4484 257.145 17.4255 257.147 17.4025ZM261.171 16.5803C261.171 16.2208 261.223 15.9073 261.327 15.6396C261.432 15.3719 261.575 15.1501 261.756 14.9742C261.937 14.7957 262.151 14.6644 262.398 14.5803C262.645 14.4936 262.916 14.4502 263.209 14.4502C263.438 14.4502 263.656 14.4821 263.863 14.5459C264.069 14.607 264.254 14.6975 264.417 14.8174C264.583 14.9372 264.718 15.0851 264.823 15.261C264.927 15.4343 264.992 15.6332 265.018 15.8575H264.306C264.291 15.7377 264.249 15.6294 264.18 15.5325C264.111 15.4356 264.026 15.354 263.924 15.2877C263.822 15.2189 263.709 15.1666 263.584 15.131C263.459 15.0927 263.331 15.0736 263.201 15.0736C263.013 15.0736 262.837 15.1042 262.673 15.1654C262.513 15.2266 262.374 15.3196 262.257 15.4445C262.139 15.5695 262.046 15.7262 261.977 15.9149C261.911 16.1036 261.878 16.3254 261.878 16.5803C261.878 16.8353 261.911 17.0571 261.977 17.2457C262.046 17.4318 262.139 17.5886 262.257 17.7161C262.374 17.841 262.513 17.9341 262.673 17.9953C262.837 18.0539 263.013 18.0832 263.201 18.0832C263.331 18.0832 263.459 18.0654 263.584 18.0297C263.709 17.9914 263.821 17.9405 263.92 17.8767C264.02 17.8104 264.102 17.7288 264.169 17.632C264.238 17.5351 264.283 17.4242 264.306 17.2993H265.018C264.992 17.5236 264.927 17.7237 264.823 17.8997C264.718 18.073 264.583 18.2209 264.417 18.3433C264.254 18.4631 264.069 18.5536 263.863 18.6148C263.656 18.6785 263.438 18.7104 263.209 18.7104C262.916 18.7104 262.645 18.667 262.398 18.5804C262.151 18.4937 261.937 18.3624 261.756 18.1865C261.575 18.008 261.432 17.7862 261.327 17.5211C261.223 17.2534 261.171 16.9398 261.171 16.5803ZM265.565 18.5995V14.5573H266.192L266.272 15.1921H266.348C266.499 14.9729 266.695 14.8123 266.937 14.7103C267.182 14.6083 267.508 14.5573 267.916 14.5573V15.2151C267.789 15.2023 267.669 15.196 267.557 15.196C267.162 15.196 266.865 15.2775 266.666 15.4407C266.411 15.6498 266.28 15.9633 266.272 16.3815V18.5995H265.565ZM268.031 16.5803C268.031 16.2208 268.083 15.9073 268.188 15.6396C268.292 15.3719 268.435 15.1501 268.616 14.9742C268.797 14.7957 269.011 14.6644 269.259 14.5803C269.506 14.4936 269.776 14.4502 270.069 14.4502C270.383 14.4502 270.665 14.5038 270.915 14.6109C271.164 14.7179 271.376 14.8722 271.549 15.0736C271.725 15.2724 271.854 15.5185 271.936 15.8117C271.999 16.036 272.03 16.2846 272.027 16.5574C272.027 16.6415 272.025 16.7269 272.02 16.8136H268.746C268.787 17.247 268.929 17.567 269.171 17.7735C269.415 17.98 269.712 18.0832 270.062 18.0832C270.276 18.0832 270.476 18.0373 270.662 17.9456C270.851 17.8538 270.99 17.7225 271.079 17.5517H271.832C271.781 17.7403 271.699 17.906 271.584 18.0488C271.472 18.1916 271.336 18.3114 271.178 18.4083C271.023 18.5052 270.85 18.5791 270.658 18.6301C270.47 18.6836 270.273 18.7104 270.069 18.7104C269.776 18.7104 269.506 18.667 269.259 18.5804C269.011 18.4937 268.797 18.3624 268.616 18.1865C268.435 18.008 268.292 17.7862 268.188 17.5211C268.083 17.2534 268.031 16.9398 268.031 16.5803ZM268.769 16.1864H271.289C271.259 15.9825 271.204 15.8104 271.125 15.6702C271.048 15.5299 270.954 15.4152 270.842 15.326C270.73 15.2368 270.606 15.173 270.471 15.1348C270.338 15.094 270.202 15.0736 270.062 15.0736C269.733 15.0736 269.452 15.1654 269.22 15.3489C268.988 15.5325 268.838 15.8117 268.769 16.1864ZM272.505 16.5803C272.505 16.2208 272.558 15.9073 272.662 15.6396C272.767 15.3719 272.91 15.1501 273.091 14.9742C273.272 14.7957 273.486 14.6644 273.733 14.5803C273.98 14.4936 274.251 14.4502 274.544 14.4502C274.857 14.4502 275.139 14.5038 275.389 14.6109C275.639 14.7179 275.85 14.8722 276.024 15.0736C276.2 15.2724 276.328 15.5185 276.41 15.8117C276.474 16.036 276.504 16.2846 276.502 16.5574C276.502 16.6415 276.499 16.7269 276.494 16.8136H273.221C273.261 17.247 273.403 17.567 273.645 17.7735C273.89 17.98 274.187 18.0832 274.536 18.0832C274.75 18.0832 274.95 18.0373 275.136 17.9456C275.325 17.8538 275.464 17.7225 275.553 17.5517H276.307C276.256 17.7403 276.173 17.906 276.058 18.0488C275.946 18.1916 275.811 18.3114 275.653 18.4083C275.497 18.5052 275.324 18.5791 275.133 18.6301C274.944 18.6836 274.748 18.7104 274.544 18.7104C274.251 18.7104 273.98 18.667 273.733 18.5804C273.486 18.4937 273.272 18.3624 273.091 18.1865C272.91 18.008 272.767 17.7862 272.662 17.5211C272.558 17.2534 272.505 16.9398 272.505 16.5803ZM273.243 16.1864H275.764C275.733 15.9825 275.678 15.8104 275.599 15.6702C275.523 15.5299 275.428 15.4152 275.316 15.326C275.204 15.2368 275.08 15.173 274.945 15.1348C274.813 15.094 274.676 15.0736 274.536 15.0736C274.207 15.0736 273.927 15.1654 273.695 15.3489C273.463 15.5325 273.312 15.8117 273.243 16.1864ZM277.137 18.5995V16.4159C277.137 15.753 277.311 15.2597 277.66 14.9359C278.01 14.6121 278.488 14.4502 279.094 14.4502C279.398 14.4502 279.671 14.4872 279.913 14.5611C280.158 14.6325 280.363 14.7447 280.529 14.8977C280.697 15.0481 280.826 15.2419 280.915 15.479C281.007 15.7161 281.052 16.0016 281.052 16.3356V18.5995H280.349V16.3356C280.349 15.8869 280.238 15.5644 280.016 15.3681C279.794 15.1717 279.487 15.0736 279.094 15.0736C278.702 15.0736 278.395 15.1819 278.173 15.3986C277.954 15.6153 277.844 15.9544 277.844 16.4159V18.5995H277.137ZM281.676 16.5803C281.676 16.2208 281.728 15.9073 281.833 15.6396C281.937 15.3719 282.08 15.1501 282.261 14.9742C282.442 14.7957 282.656 14.6644 282.903 14.5803C283.151 14.4936 283.421 14.4502 283.714 14.4502C284.028 14.4502 284.309 14.5038 284.559 14.6109C284.809 14.7179 285.021 14.8722 285.194 15.0736C285.37 15.2724 285.499 15.5185 285.58 15.8117C285.644 16.036 285.675 16.2846 285.672 16.5574C285.672 16.6415 285.67 16.7269 285.664 16.8136H282.391C282.432 17.247 282.573 17.567 282.815 17.7735C283.06 17.98 283.357 18.0832 283.706 18.0832C283.921 18.0832 284.121 18.0373 284.307 17.9456C284.496 17.8538 284.634 17.7225 284.724 17.5517H285.477C285.426 17.7403 285.343 17.906 285.228 18.0488C285.116 18.1916 284.981 18.3114 284.823 18.4083C284.668 18.5052 284.494 18.5791 284.303 18.6301C284.114 18.6836 283.918 18.7104 283.714 18.7104C283.421 18.7104 283.151 18.667 282.903 18.5804C282.656 18.4937 282.442 18.3624 282.261 18.1865C282.08 18.008 281.937 17.7862 281.833 17.5211C281.728 17.2534 281.676 16.9398 281.676 16.5803ZM282.414 16.1864H284.934C284.903 15.9825 284.849 15.8104 284.77 15.6702C284.693 15.5299 284.599 15.4152 284.487 15.326C284.374 15.2368 284.251 15.173 284.116 15.1348C283.983 15.094 283.847 15.0736 283.706 15.0736C283.378 15.0736 283.097 15.1654 282.865 15.3489C282.633 15.5325 282.483 15.8117 282.414 16.1864ZM286.307 18.5995V14.5573H286.934L287.014 15.1921H287.091C287.241 14.9729 287.438 14.8123 287.68 14.7103C287.925 14.6083 288.251 14.5573 288.659 14.5573V15.2151C288.531 15.2023 288.411 15.196 288.299 15.196C287.904 15.196 287.607 15.2775 287.408 15.4407C287.153 15.6498 287.022 15.9633 287.014 16.3815V18.5995H286.307ZM288.575 18.1138C288.575 17.9583 288.626 17.8296 288.728 17.7276C288.83 17.6256 288.96 17.5746 289.118 17.5746C289.273 17.5746 289.402 17.6256 289.504 17.7276C289.606 17.8296 289.657 17.9583 289.657 18.1138C289.657 18.2693 289.606 18.3981 289.504 18.5001C289.402 18.602 289.273 18.653 289.118 18.653C288.962 18.653 288.832 18.602 288.728 18.5001C288.626 18.3981 288.575 18.2693 288.575 18.1138ZM289.967 16.5803C289.967 16.2208 290.019 15.9073 290.123 15.6396C290.228 15.3719 290.371 15.1501 290.552 14.9742C290.733 14.7957 290.947 14.6644 291.194 14.5803C291.442 14.4936 291.712 14.4502 292.005 14.4502C292.234 14.4502 292.452 14.4821 292.659 14.5459C292.865 14.607 293.05 14.6975 293.213 14.8174C293.379 14.9372 293.514 15.0851 293.619 15.261C293.723 15.4343 293.788 15.6332 293.814 15.8575H293.102C293.087 15.7377 293.045 15.6294 292.976 15.5325C292.907 15.4356 292.822 15.354 292.72 15.2877C292.618 15.2189 292.505 15.1666 292.38 15.131C292.255 15.0927 292.127 15.0736 291.997 15.0736C291.809 15.0736 291.633 15.1042 291.47 15.1654C291.309 15.2266 291.17 15.3196 291.053 15.4445C290.935 15.5695 290.842 15.7262 290.774 15.9149C290.707 16.1036 290.674 16.3254 290.674 16.5803C290.674 16.8353 290.707 17.0571 290.774 17.2457C290.842 17.4318 290.935 17.5886 291.053 17.7161C291.17 17.841 291.309 17.9341 291.47 17.9953C291.633 18.0539 291.809 18.0832 291.997 18.0832C292.127 18.0832 292.255 18.0654 292.38 18.0297C292.505 17.9914 292.617 17.9405 292.716 17.8767C292.816 17.8104 292.899 17.7288 292.965 17.632C293.034 17.5351 293.08 17.4242 293.102 17.2993H293.814C293.788 17.5236 293.723 17.7237 293.619 17.8997C293.514 18.073 293.379 18.2209 293.213 18.3433C293.05 18.4631 292.865 18.5536 292.659 18.6148C292.452 18.6785 292.234 18.7104 292.005 18.7104C291.712 18.7104 291.442 18.667 291.194 18.5804C290.947 18.4937 290.733 18.3624 290.552 18.1865C290.371 18.008 290.228 17.7862 290.123 17.5211C290.019 17.2534 289.967 16.9398 289.967 16.5803ZM294.204 16.5803C294.204 16.2208 294.256 15.9073 294.361 15.6396C294.465 15.3719 294.612 15.1501 294.8 14.9742C294.989 14.7957 295.212 14.6644 295.47 14.5803C295.73 14.4936 296.013 14.4502 296.319 14.4502C296.627 14.4502 296.91 14.4936 297.168 14.5803C297.428 14.6644 297.651 14.7957 297.837 14.9742C298.025 15.1501 298.172 15.3719 298.277 15.6396C298.381 15.9073 298.433 16.2208 298.433 16.5803C298.433 16.9398 298.381 17.2534 298.277 17.5211C298.172 17.7862 298.025 18.008 297.837 18.1865C297.651 18.3624 297.428 18.4937 297.168 18.5804C296.91 18.667 296.627 18.7104 296.319 18.7104C296.01 18.7104 295.727 18.667 295.47 18.5804C295.212 18.4937 294.989 18.3624 294.8 18.1865C294.612 18.008 294.465 17.7862 294.361 17.5211C294.256 17.2534 294.204 16.9398 294.204 16.5803ZM294.911 16.5803C294.911 16.8353 294.944 17.0571 295.011 17.2457C295.08 17.4318 295.176 17.5886 295.301 17.7161C295.426 17.841 295.574 17.9341 295.745 17.9953C295.918 18.0539 296.107 18.0832 296.311 18.0832C296.52 18.0832 296.711 18.0539 296.885 17.9953C297.061 17.9341 297.211 17.841 297.336 17.7161C297.463 17.5886 297.56 17.4318 297.627 17.2457C297.695 17.0571 297.73 16.8353 297.73 16.5803C297.73 16.3254 297.695 16.1036 297.627 15.9149C297.56 15.7262 297.463 15.5695 297.336 15.4445C297.211 15.3196 297.061 15.2266 296.885 15.1654C296.711 15.1042 296.52 15.0736 296.311 15.0736C296.107 15.0736 295.918 15.1042 295.745 15.1654C295.574 15.2266 295.426 15.3196 295.301 15.4445C295.176 15.5695 295.08 15.7262 295.011 15.9149C294.944 16.101 294.911 16.3228 294.911 16.5803ZM299.057 18.5995V16.4159C299.057 15.7479 299.202 15.2533 299.493 14.9321C299.783 14.6109 300.184 14.4502 300.693 14.4502C301.022 14.4502 301.307 14.5114 301.546 14.6338C301.788 14.7562 301.977 14.9499 302.112 15.2151H302.185C302.315 14.9499 302.501 14.7562 302.743 14.6338C302.985 14.5114 303.274 14.4502 303.608 14.4502C304.12 14.4502 304.52 14.6109 304.808 14.9321C305.099 15.2508 305.244 15.7454 305.244 16.4159V18.5995H304.541V16.4159C304.541 15.957 304.45 15.6192 304.269 15.4025C304.091 15.1832 303.842 15.0736 303.523 15.0736C303.205 15.0736 302.955 15.1717 302.774 15.3681C302.595 15.5644 302.506 15.8869 302.506 16.3356V18.5995H301.799V16.3356C301.799 15.8869 301.708 15.5644 301.527 15.3681C301.349 15.1717 301.1 15.0736 300.781 15.0736C300.463 15.0736 300.213 15.1819 300.032 15.3986C299.853 15.6153 299.764 15.9544 299.764 16.4159V18.5995H299.057Z" fill="white"/>
<path d="M243.943 19.7697H305.634V20.1598H243.943V19.7697Z" fill="white"/>
</g>
<defs>
<filter id="filter0_i_2001_1593" x="149" y="0" width="168.798" height="33.4373" filterUnits="userSpaceOnUse" color-interpolation-filters="sRGB">
<feFlood flood-opacity="0" result="BackgroundImageFix"/>
<feBlend mode="normal" in="SourceGraphic" in2="BackgroundImageFix" result="shape"/>
<feColorMatrix in="SourceAlpha" type="matrix" values="0 0 0 0 0 0 0 0 0 0 0 0 0 0 0 0 0 0 127 0" result="hardAlpha"/>
<feOffset/>
<feGaussianBlur stdDeviation="1.03011"/>
<feComposite in2="hardAlpha" operator="arithmetic" k2="-1" k3="1"/>
<feColorMatrix type="matrix" values="0 0 0 0 1 0 0 0 0 1 0 0 0 0 1 0 0 0 0.1 0"/>
<feBlend mode="normal" in2="shape" result="effect1_innerShadow_2001_1593"/>
</filter>
</defs>
</svg>
