<svg width="317" height="34" viewBox="0 0 317 34" fill="none" xmlns="http://www.w3.org/2000/svg">
<g filter="url(#filter0_i_2001_1590)">
<path d="M142 7.59938C142 3.40236 145.402 0 149.599 0H316.798V25.8379C316.798 30.0349 313.396 33.4373 309.199 33.4373H149.599C145.402 33.4373 142 30.0349 142 25.8379V7.59938Z" fill="#101010"/>
<path d="M153.789 18.5994V13.0084H154.497V15.4903H157.824V13.0084H158.528V18.5994H157.824V16.1175H154.497V18.5994H153.789ZM159.155 16.5802C159.155 16.2207 159.207 15.9071 159.312 15.6394C159.416 15.3718 159.559 15.1499 159.74 14.974C159.921 14.7956 160.135 14.6643 160.382 14.5801C160.63 14.4935 160.9 14.4501 161.193 14.4501C161.507 14.4501 161.788 14.5037 162.038 14.6107C162.288 14.7178 162.5 14.8721 162.673 15.0735C162.849 15.2723 162.978 15.5183 163.059 15.8115C163.123 16.0359 163.154 16.2845 163.151 16.5573C163.151 16.6414 163.149 16.7268 163.143 16.8135H159.87C159.911 17.2469 160.052 17.5668 160.294 17.7733C160.539 17.9798 160.836 18.0831 161.185 18.0831C161.4 18.0831 161.6 18.0372 161.786 17.9454C161.975 17.8536 162.113 17.7224 162.203 17.5515H162.956C162.905 17.7402 162.822 17.9059 162.707 18.0487C162.595 18.1915 162.46 18.3113 162.302 18.4082C162.147 18.505 161.973 18.579 161.782 18.63C161.593 18.6835 161.397 18.7103 161.193 18.7103C160.9 18.7103 160.63 18.6669 160.382 18.5802C160.135 18.4936 159.921 18.3623 159.74 18.1864C159.559 18.0079 159.416 17.7861 159.312 17.5209C159.207 17.2533 159.155 16.9397 159.155 16.5802ZM159.893 16.1863H162.413C162.382 15.9823 162.328 15.8103 162.249 15.67C162.172 15.5298 162.078 15.4151 161.966 15.3259C161.853 15.2366 161.73 15.1729 161.595 15.1347C161.462 15.0939 161.326 15.0735 161.185 15.0735C160.857 15.0735 160.576 15.1652 160.344 15.3488C160.112 15.5324 159.962 15.8115 159.893 16.1863ZM163.786 18.5994V13.0084H164.493V18.5994H163.786ZM165.277 18.5994V13.0084H165.985V18.5994H165.277ZM166.612 16.5802C166.612 16.2207 166.664 15.9071 166.769 15.6394C166.873 15.3718 167.02 15.1499 167.209 14.974C167.397 14.7956 167.62 14.6643 167.878 14.5801C168.138 14.4935 168.421 14.4501 168.727 14.4501C169.035 14.4501 169.318 14.4935 169.576 14.5801C169.836 14.6643 170.059 14.7956 170.245 14.974C170.434 15.1499 170.58 15.3718 170.685 15.6394C170.789 15.9071 170.842 16.2207 170.842 16.5802C170.842 16.9397 170.789 17.2533 170.685 17.5209C170.58 17.7861 170.434 18.0079 170.245 18.1864C170.059 18.3623 169.836 18.4936 169.576 18.5802C169.318 18.6669 169.035 18.7103 168.727 18.7103C168.418 18.7103 168.135 18.6669 167.878 18.5802C167.62 18.4936 167.397 18.3623 167.209 18.1864C167.02 18.0079 166.873 17.7861 166.769 17.5209C166.664 17.2533 166.612 16.9397 166.612 16.5802ZM167.319 16.5802C167.319 16.8351 167.353 17.0569 167.419 17.2456C167.488 17.4317 167.585 17.5885 167.71 17.716C167.834 17.8409 167.982 17.934 168.153 17.9951C168.326 18.0538 168.515 18.0831 168.719 18.0831C168.928 18.0831 169.119 18.0538 169.293 17.9951C169.469 17.934 169.619 17.8409 169.744 17.716C169.871 17.5885 169.968 17.4317 170.035 17.2456C170.103 17.0569 170.138 16.8351 170.138 16.5802C170.138 16.3252 170.103 16.1034 170.035 15.9148C169.968 15.7261 169.871 15.5693 169.744 15.4444C169.619 15.3195 169.469 15.2264 169.293 15.1652C169.119 15.1041 168.928 15.0735 168.719 15.0735C168.515 15.0735 168.326 15.1041 168.153 15.1652C167.982 15.2264 167.834 15.3195 167.71 15.4444C167.585 15.5693 167.488 15.7261 167.419 15.9148C167.353 16.1009 167.319 16.3227 167.319 16.5802ZM171.388 18.1137C171.388 17.9582 171.439 17.8294 171.541 17.7275C171.643 17.6255 171.772 17.5745 171.928 17.5745C172.083 17.5745 172.212 17.6255 172.314 17.7275C172.418 17.8294 172.471 17.9582 172.471 18.1137C172.471 18.2692 172.42 18.398 172.318 18.4999C172.216 18.6019 172.086 18.6529 171.928 18.6529C171.772 18.6529 171.643 18.6019 171.541 18.4999C171.439 18.398 171.388 18.2692 171.388 18.1137ZM171.427 13.0084H172.429L172.234 17.0888H171.622L171.427 13.0084ZM174.735 13.0084H175.526L176.773 17.4865H176.849L178.096 13.0084H178.918L180.161 17.4865H180.241L181.484 13.0084H182.245L180.601 18.5994H179.779L178.532 14.1212H178.455L177.209 18.5994H176.387L174.735 13.0084ZM182.479 18.5994V13.0084H183.186V15.0811H183.262C183.413 14.8619 183.605 14.7025 183.84 14.6031C184.077 14.5011 184.342 14.4501 184.635 14.4501C185.183 14.4501 185.613 14.6107 185.924 14.932C186.238 15.2507 186.394 15.7452 186.394 16.4158V18.5994H185.691V16.4158C185.691 15.9569 185.58 15.619 185.358 15.4023C185.136 15.1831 184.829 15.0735 184.437 15.0735C184.054 15.0735 183.752 15.1678 183.53 15.3565C183.311 15.5451 183.196 15.8511 183.186 16.2743V18.5994H182.479ZM187.018 16.5802C187.018 16.2207 187.07 15.9071 187.175 15.6394C187.279 15.3718 187.421 15.1499 187.599 14.974C187.778 14.7956 187.983 14.6643 188.215 14.5801C188.447 14.4935 188.69 14.4501 188.945 14.4501C189.244 14.4501 189.514 14.5075 189.756 14.6222C189.998 14.7369 190.208 14.9141 190.387 15.1538H190.467L190.544 14.5572H191.171V18.5994H190.544L190.467 18.0028H190.387C190.208 18.2373 189.998 18.4145 189.756 18.5344C189.514 18.6516 189.244 18.7103 188.945 18.7103C188.69 18.7103 188.447 18.6669 188.215 18.5802C187.983 18.4936 187.778 18.3623 187.599 18.1864C187.421 18.0079 187.279 17.7861 187.175 17.5209C187.07 17.2533 187.018 16.9397 187.018 16.5802ZM187.725 16.5802C187.725 17.0926 187.853 17.4712 188.108 17.716C188.363 17.9607 188.694 18.0831 189.102 18.0831C189.301 18.0831 189.483 18.0538 189.649 17.9951C189.817 17.934 189.961 17.8409 190.081 17.716C190.201 17.5885 190.295 17.4317 190.364 17.2456C190.433 17.0569 190.467 16.8351 190.467 16.5802C190.467 16.3252 190.433 16.1034 190.364 15.9148C190.295 15.7261 190.201 15.5693 190.081 15.4444C189.961 15.3195 189.817 15.2264 189.649 15.1652C189.483 15.1041 189.301 15.0735 189.102 15.0735C188.694 15.0735 188.363 15.1971 188.108 15.4444C187.853 15.6892 187.725 16.0678 187.725 16.5802ZM191.722 15.1844V14.5572H192.716V13.4788H193.42V14.5572H194.494V15.1844H193.42V18.5994H192.716V15.1844H191.722ZM194.804 14.2589L195.014 12.3009H195.909L195.343 14.2589H194.804ZM196.441 17.4024H197.148C197.148 17.4151 197.147 17.4266 197.144 17.4368C197.142 17.6306 197.219 17.7912 197.378 17.9187C197.541 18.0538 197.821 18.1213 198.219 18.1213C198.589 18.1213 198.86 18.0602 199.033 17.9378C199.207 17.8154 199.293 17.6548 199.293 17.4559C199.293 17.3055 199.225 17.1946 199.087 17.1232C198.952 17.0518 198.781 16.997 198.575 16.9588C198.371 16.9205 198.147 16.8861 197.905 16.8555C197.666 16.8224 197.443 16.7663 197.236 16.6873C197.03 16.6057 196.859 16.491 196.724 16.3431C196.588 16.1927 196.521 15.9785 196.521 15.7006C196.521 15.5222 196.555 15.3565 196.624 15.2035C196.696 15.0505 196.801 14.9179 196.942 14.8058C197.084 14.6936 197.263 14.6069 197.477 14.5457C197.691 14.482 197.938 14.4501 198.219 14.4501C198.522 14.4501 198.784 14.4858 199.003 14.5572C199.222 14.626 199.401 14.7191 199.538 14.8364C199.678 14.9536 199.779 15.0913 199.84 15.2494C199.896 15.3972 199.923 15.5528 199.921 15.7159C199.921 15.7287 199.921 15.7427 199.921 15.758H199.213C199.213 15.7452 199.213 15.7325 199.213 15.7198C199.213 15.5285 199.141 15.3692 198.995 15.2417C198.84 15.1041 198.581 15.0352 198.219 15.0352C197.885 15.0352 197.635 15.0964 197.469 15.2188C197.306 15.3412 197.225 15.5018 197.225 15.7006C197.225 15.8612 197.292 15.9772 197.427 16.0486C197.565 16.12 197.737 16.1748 197.944 16.2131C198.15 16.2488 198.373 16.2819 198.613 16.3125C198.852 16.3431 199.075 16.3979 199.282 16.4769C199.489 16.556 199.659 16.6694 199.794 16.8173C199.93 16.9652 199.997 17.178 199.997 17.4559C199.997 17.6344 199.961 17.8001 199.89 17.9531C199.821 18.106 199.713 18.2399 199.565 18.3546C199.42 18.4668 199.235 18.5535 199.01 18.6147C198.786 18.6784 198.522 18.7103 198.219 18.7103C197.895 18.7103 197.62 18.6746 197.393 18.6032C197.166 18.5318 196.981 18.4375 196.838 18.3202C196.696 18.2004 196.591 18.0614 196.525 17.9034C196.466 17.7657 196.437 17.6216 196.437 17.4712C196.437 17.4483 196.438 17.4253 196.441 17.4024ZM202.498 15.1844V14.5572H203.492V13.4788H204.196V14.5572H205.271V15.1844H204.196V18.5994H203.492V15.1844H202.498ZM205.814 18.5994V13.0084H206.521V15.0811H206.598C206.748 14.8619 206.941 14.7025 207.175 14.6031C207.412 14.5011 207.677 14.4501 207.971 14.4501C208.519 14.4501 208.948 14.6107 209.259 14.932C209.573 15.2507 209.73 15.7452 209.73 16.4158V18.5994H209.026V16.4158C209.026 15.9569 208.915 15.619 208.693 15.4023C208.472 15.1831 208.164 15.0735 207.772 15.0735C207.389 15.0735 207.087 15.1678 206.865 15.3565C206.646 15.5451 206.531 15.8511 206.521 16.2743V18.5994H205.814ZM210.353 16.5802C210.353 16.2207 210.405 15.9071 210.51 15.6394C210.614 15.3718 210.757 15.1499 210.938 14.974C211.119 14.7956 211.333 14.6643 211.581 14.5801C211.828 14.4935 212.098 14.4501 212.391 14.4501C212.705 14.4501 212.987 14.5037 213.236 14.6107C213.486 14.7178 213.698 14.8721 213.871 15.0735C214.047 15.2723 214.176 15.5183 214.258 15.8115C214.321 16.0359 214.352 16.2845 214.349 16.5573C214.349 16.6414 214.347 16.7268 214.342 16.8135H211.068C211.109 17.2469 211.25 17.5668 211.493 17.7733C211.737 17.9798 212.034 18.0831 212.384 18.0831C212.598 18.0831 212.798 18.0372 212.984 17.9454C213.173 17.8536 213.312 17.7224 213.401 17.5515H214.154C214.103 17.7402 214.02 17.9059 213.906 18.0487C213.794 18.1915 213.658 18.3113 213.5 18.4082C213.345 18.505 213.171 18.579 212.98 18.63C212.792 18.6835 212.595 18.7103 212.391 18.7103C212.098 18.7103 211.828 18.6669 211.581 18.5802C211.333 18.4936 211.119 18.3623 210.938 18.1864C210.757 18.0079 210.614 17.7861 210.51 17.5209C210.405 17.2533 210.353 16.9397 210.353 16.5802ZM211.091 16.1863H213.611C213.581 15.9823 213.526 15.8103 213.447 15.67C213.37 15.5298 213.276 15.4151 213.164 15.3259C213.052 15.2366 212.928 15.1729 212.793 15.1347C212.66 15.0939 212.524 15.0735 212.384 15.0735C212.055 15.0735 211.774 15.1652 211.542 15.3488C211.31 15.5324 211.16 15.8115 211.091 16.1863ZM217.095 20.087V14.5572H217.722L217.803 15.1538H217.879C218.057 14.9192 218.268 14.7433 218.51 14.626C218.752 14.5088 219.022 14.4501 219.321 14.4501C219.576 14.4501 219.819 14.4935 220.051 14.5801C220.286 14.6643 220.491 14.7956 220.667 14.974C220.845 15.1499 220.987 15.3718 221.091 15.6394C221.196 15.9046 221.248 16.2182 221.248 16.5802C221.248 16.9397 221.196 17.2533 221.091 17.5209C220.987 17.7861 220.845 18.0079 220.667 18.1864C220.491 18.3623 220.286 18.4936 220.051 18.5802C219.819 18.6669 219.576 18.7103 219.321 18.7103C219.022 18.7103 218.752 18.6529 218.51 18.5382C218.268 18.4235 218.057 18.245 217.879 18.0028H217.803V20.087H217.095ZM217.803 16.5802C217.803 16.8351 217.836 17.0569 217.902 17.2456C217.971 17.4317 218.065 17.5885 218.185 17.716C218.305 17.8409 218.448 17.934 218.613 17.9951C218.782 18.0538 218.965 18.0831 219.164 18.0831C219.572 18.0831 219.903 17.9607 220.158 17.716C220.416 17.4712 220.544 17.0926 220.544 16.5802C220.544 16.0678 220.416 15.6892 220.158 15.4444C219.903 15.1971 219.572 15.0735 219.164 15.0735C218.965 15.0735 218.782 15.1041 218.613 15.1652C218.448 15.2264 218.305 15.3195 218.185 15.4444C218.065 15.5693 217.971 15.7261 217.902 15.9148C217.836 16.1009 217.803 16.3227 217.803 16.5802ZM221.875 18.5994V14.5572H222.502L222.583 15.192H222.659C222.81 14.9728 223.006 14.8121 223.248 14.7102C223.493 14.6082 223.819 14.5572 224.227 14.5572V15.215C224.1 15.2022 223.98 15.1958 223.868 15.1958C223.473 15.1958 223.176 15.2774 222.977 15.4406C222.722 15.6496 222.59 15.9632 222.583 16.3813V18.5994H221.875ZM224.537 13.4367C224.537 13.3118 224.576 13.2098 224.655 13.1308C224.737 13.0492 224.842 13.0084 224.969 13.0084C225.094 13.0084 225.196 13.0492 225.275 13.1308C225.357 13.2098 225.397 13.3118 225.397 13.4367C225.397 13.5616 225.357 13.6649 225.275 13.7465C225.196 13.8281 225.094 13.8688 224.969 13.8688C224.844 13.8688 224.741 13.8281 224.659 13.7465C224.578 13.6649 224.537 13.5616 224.537 13.4367ZM224.613 18.5994V14.5572H225.321V18.5994H224.613ZM225.948 16.5802C225.948 16.2207 226 15.9071 226.105 15.6394C226.209 15.3718 226.352 15.1499 226.533 14.974C226.714 14.7956 226.928 14.6643 227.176 14.5801C227.423 14.4935 227.693 14.4501 227.986 14.4501C228.216 14.4501 228.434 14.482 228.64 14.5457C228.847 14.6069 229.032 14.6974 229.195 14.8172C229.36 14.9371 229.496 15.0849 229.6 15.2609C229.705 15.4342 229.77 15.6331 229.795 15.8574H229.084C229.069 15.7376 229.027 15.6292 228.958 15.5324C228.889 15.4355 228.803 15.3539 228.701 15.2876C228.599 15.2188 228.486 15.1665 228.361 15.1308C228.236 15.0926 228.109 15.0735 227.979 15.0735C227.79 15.0735 227.614 15.1041 227.451 15.1652C227.29 15.2264 227.151 15.3195 227.034 15.4444C226.917 15.5693 226.824 15.7261 226.755 15.9148C226.689 16.1034 226.656 16.3252 226.656 16.5802C226.656 16.8351 226.689 17.0569 226.755 17.2456C226.824 17.4317 226.917 17.5885 227.034 17.716C227.151 17.8409 227.29 17.934 227.451 17.9951C227.614 18.0538 227.79 18.0831 227.979 18.0831C228.109 18.0831 228.236 18.0653 228.361 18.0296C228.486 17.9913 228.598 17.9403 228.698 17.8766C228.797 17.8103 228.88 17.7287 228.946 17.6318C229.015 17.535 229.061 17.4241 229.084 17.2991H229.795C229.77 17.5235 229.705 17.7236 229.6 17.8995C229.496 18.0729 229.36 18.2208 229.195 18.3431C229.032 18.463 228.847 18.5535 228.64 18.6147C228.434 18.6784 228.216 18.7103 227.986 18.7103C227.693 18.7103 227.423 18.6669 227.176 18.5802C226.928 18.4936 226.714 18.3623 226.533 18.1864C226.352 18.0079 226.209 17.7861 226.105 17.5209C226 17.2533 225.948 16.9397 225.948 16.5802ZM230.185 16.5802C230.185 16.2207 230.238 15.9071 230.342 15.6394C230.447 15.3718 230.589 15.1499 230.77 14.974C230.951 14.7956 231.166 14.6643 231.413 14.5801C231.66 14.4935 231.93 14.4501 232.224 14.4501C232.537 14.4501 232.819 14.5037 233.069 14.6107C233.319 14.7178 233.53 14.8721 233.703 15.0735C233.879 15.2723 234.008 15.5183 234.09 15.8115C234.153 16.0359 234.184 16.2845 234.182 16.5573C234.182 16.6414 234.179 16.7268 234.174 16.8135H230.9C230.941 17.2469 231.083 17.5668 231.325 17.7733C231.57 17.9798 231.867 18.0831 232.216 18.0831C232.43 18.0831 232.63 18.0372 232.816 17.9454C233.005 17.8536 233.144 17.7224 233.233 17.5515H233.986C233.935 17.7402 233.853 17.9059 233.738 18.0487C233.626 18.1915 233.491 18.3113 233.333 18.4082C233.177 18.505 233.004 18.579 232.812 18.63C232.624 18.6835 232.427 18.7103 232.224 18.7103C231.93 18.7103 231.66 18.6669 231.413 18.5802C231.166 18.4936 230.951 18.3623 230.77 18.1864C230.589 18.0079 230.447 17.7861 230.342 17.5209C230.238 17.2533 230.185 16.9397 230.185 16.5802ZM230.923 16.1863H233.443C233.413 15.9823 233.358 15.8103 233.279 15.67C233.203 15.5298 233.108 15.4151 232.996 15.3259C232.884 15.2366 232.76 15.1729 232.625 15.1347C232.492 15.0939 232.356 15.0735 232.216 15.0735C231.887 15.0735 231.607 15.1652 231.375 15.3488C231.143 15.5324 230.992 15.8115 230.923 16.1863ZM236.77 16.5802C236.77 16.2207 236.823 15.9071 236.927 15.6394C237.032 15.3718 237.178 15.1499 237.367 14.974C237.556 14.7956 237.779 14.6643 238.036 14.5801C238.296 14.4935 238.579 14.4501 238.885 14.4501C239.194 14.4501 239.477 14.4935 239.734 14.5801C239.994 14.6643 240.217 14.7956 240.403 14.974C240.592 15.1499 240.739 15.3718 240.843 15.6394C240.948 15.9071 241 16.2207 241 16.5802C241 16.9397 240.948 17.2533 240.843 17.5209C240.739 17.7861 240.592 18.0079 240.403 18.1864C240.217 18.3623 239.994 18.4936 239.734 18.5802C239.477 18.6669 239.194 18.7103 238.885 18.7103C238.577 18.7103 238.294 18.6669 238.036 18.5802C237.779 18.4936 237.556 18.3623 237.367 18.1864C237.178 18.0079 237.032 17.7861 236.927 17.5209C236.823 17.2533 236.77 16.9397 236.77 16.5802ZM237.478 16.5802C237.478 16.8351 237.511 17.0569 237.577 17.2456C237.646 17.4317 237.743 17.5885 237.868 17.716C237.993 17.8409 238.141 17.934 238.312 17.9951C238.485 18.0538 238.674 18.0831 238.878 18.0831C239.087 18.0831 239.278 18.0538 239.451 17.9951C239.627 17.934 239.778 17.8409 239.902 17.716C240.03 17.5885 240.127 17.4317 240.193 17.2456C240.262 17.0569 240.296 16.8351 240.296 16.5802C240.296 16.3252 240.262 16.1034 240.193 15.9148C240.127 15.7261 240.03 15.5693 239.902 15.4444C239.778 15.3195 239.627 15.2264 239.451 15.1652C239.278 15.1041 239.087 15.0735 238.878 15.0735C238.674 15.0735 238.485 15.1041 238.312 15.1652C238.141 15.2264 237.993 15.3195 237.868 15.4444C237.743 15.5693 237.646 15.7261 237.577 15.9148C237.511 16.1009 237.478 16.3227 237.478 16.5802ZM241.39 15.1844V14.5572H242.094V14.2436C242.094 13.9938 242.122 13.7834 242.178 13.6126C242.237 13.4393 242.318 13.3003 242.423 13.1958C242.527 13.0913 242.65 13.0161 242.79 12.9702C242.933 12.9217 243.089 12.8975 243.26 12.8975C243.38 12.8975 243.501 12.9013 243.623 12.909C243.748 12.9166 243.878 12.9306 244.013 12.951V13.5094C243.825 13.4941 243.657 13.4801 243.509 13.4673C243.478 13.4673 243.448 13.4673 243.417 13.4673C243.307 13.4673 243.212 13.4826 243.13 13.5132C243.026 13.5565 242.945 13.6343 242.889 13.7465C242.836 13.8586 242.806 14.0244 242.801 14.2436V14.5572H244.013V15.1844H242.801V18.5994H242.094V15.1844H241.39ZM246.369 16.9397H247.077C247.066 17.0901 247.082 17.2341 247.123 17.3718C247.163 17.5069 247.235 17.6255 247.337 17.7275C247.439 17.8294 247.571 17.9148 247.734 17.9837C247.9 18.05 248.102 18.0933 248.339 18.1137V16.0678C248.109 16.0219 247.885 15.9671 247.666 15.9033C247.449 15.837 247.256 15.7452 247.088 15.628C246.922 15.5107 246.787 15.3616 246.683 15.1805C246.578 14.9995 246.526 14.7714 246.526 14.496C246.526 14.2921 246.563 14.0996 246.637 13.9186C246.711 13.735 246.822 13.5718 246.97 13.4291C247.12 13.2837 247.309 13.1652 247.536 13.0734C247.762 12.9816 248.03 12.9255 248.339 12.9052V11.9262H248.901V12.9052C249.23 12.9306 249.51 12.9931 249.742 13.0925C249.974 13.192 250.163 13.322 250.308 13.4826C250.456 13.6407 250.559 13.8217 250.618 14.0256C250.679 14.2296 250.707 14.4463 250.702 14.6758H249.998C250.003 14.5253 249.987 14.3838 249.949 14.2513C249.913 14.1161 249.852 13.9976 249.765 13.8956C249.681 13.7936 249.566 13.7095 249.421 13.6432C249.278 13.5744 249.105 13.5272 248.901 13.5017V15.5438C249.135 15.5897 249.37 15.642 249.604 15.7006C249.839 15.7593 250.049 15.8447 250.235 15.9569C250.422 16.069 250.572 16.2169 250.687 16.4005C250.801 16.5815 250.859 16.8186 250.859 17.1118C250.859 17.3157 250.819 17.5107 250.74 17.6969C250.664 17.8804 250.544 18.0436 250.381 18.1864C250.22 18.3266 250.016 18.4426 249.769 18.5344C249.524 18.6236 249.235 18.6797 248.901 18.7026V19.6816H248.339V18.7026C247.979 18.6822 247.672 18.6223 247.417 18.5229C247.165 18.4235 246.958 18.296 246.798 18.1405C246.639 17.9824 246.526 17.8001 246.457 17.5936C246.388 17.3871 246.359 17.1691 246.369 16.9397ZM247.233 14.496C247.233 14.6413 247.262 14.7663 247.318 14.8708C247.376 14.9753 247.455 15.0633 247.555 15.1347C247.654 15.2035 247.77 15.2621 247.903 15.3106C248.035 15.3565 248.181 15.3985 248.339 15.4368V13.5017C247.951 13.5425 247.669 13.656 247.494 13.8421C247.32 14.0282 247.233 14.2462 247.233 14.496ZM248.901 18.1137C249.329 18.0729 249.645 17.9582 249.849 17.7695C250.053 17.5809 250.155 17.3616 250.155 17.1118C250.155 16.9664 250.121 16.8428 250.052 16.7408C249.983 16.6388 249.893 16.5522 249.78 16.4808C249.668 16.4094 249.537 16.3507 249.386 16.3049C249.236 16.259 249.074 16.2169 248.901 16.1787V18.1137ZM251.092 13.6356V13.0084H255.555V13.6356H253.677V18.5994H252.974V13.6356H251.092ZM255.949 18.5994V13.0084H258.136C258.511 13.0084 258.827 13.0505 259.085 13.1346C259.345 13.2162 259.552 13.3296 259.708 13.475C259.866 13.6177 259.978 13.786 260.044 13.9797C260.113 14.171 260.148 14.3762 260.148 14.5954C260.148 14.9192 260.067 15.2124 259.907 15.475C259.749 15.7351 259.477 15.9275 259.092 16.0525V16.1328C259.281 16.1787 259.438 16.2449 259.563 16.3316C259.688 16.4183 259.791 16.5177 259.872 16.6299C259.957 16.7421 260.024 16.8696 260.075 17.0123C260.129 17.1525 260.177 17.303 260.22 17.4636L260.484 18.5994H259.765L259.505 17.5018C259.48 17.3616 259.442 17.2265 259.391 17.0965C259.342 16.9664 259.269 16.8517 259.173 16.7523C259.076 16.6529 258.944 16.5738 258.779 16.5152C258.616 16.454 258.409 16.4234 258.159 16.4234H256.656V18.5994H255.949ZM256.656 15.7962H258.136C258.381 15.7962 258.586 15.7682 258.752 15.7121C258.92 15.6535 259.055 15.5744 259.157 15.475C259.259 15.3756 259.332 15.2609 259.375 15.1308C259.421 15.0008 259.444 14.8619 259.444 14.714C259.444 14.5687 259.421 14.4297 259.375 14.2972C259.332 14.162 259.259 14.0473 259.157 13.953C259.055 13.8561 258.92 13.7796 258.752 13.7235C258.586 13.6649 258.381 13.6356 258.136 13.6356H256.656V15.7962ZM261.111 16.4999V13.0084H261.819V16.4999C261.819 17.048 261.964 17.4496 262.255 17.7045C262.548 17.9569 262.959 18.0831 263.486 18.0831C264.014 18.0831 264.422 17.9569 264.71 17.7045C265.001 17.4496 265.146 17.048 265.146 16.4999V13.0084H265.85V16.4999C265.85 17.2673 265.644 17.8282 265.234 18.1825C264.826 18.5344 264.243 18.7103 263.486 18.7103C263.111 18.7103 262.778 18.6669 262.484 18.5802C262.191 18.4936 261.943 18.361 261.739 18.1825C261.535 18.0015 261.379 17.7733 261.272 17.498C261.165 17.2201 261.111 16.8874 261.111 16.4999ZM266.634 18.5994V13.0084H267.731L269.605 17.7236H269.681L271.555 13.0084H272.573V18.5994H271.865V14.1748H271.789L269.987 18.5994H269.219L267.418 14.1748H267.341V18.5994H266.634ZM273.356 18.5994V13.0084H275.479C275.872 13.0084 276.202 13.0556 276.469 13.1499C276.74 13.2417 276.955 13.3692 277.116 13.5323C277.279 13.6929 277.395 13.8829 277.464 14.1021C277.535 14.3214 277.571 14.5547 277.571 14.8019C277.571 15.0467 277.535 15.2761 277.464 15.4903C277.395 15.7045 277.279 15.8944 277.116 16.0601C276.955 16.2233 276.74 16.352 276.469 16.4463C276.202 16.5407 275.872 16.5878 275.479 16.5878H274.064V18.5994H273.356ZM274.064 15.9607H275.479C275.739 15.9607 275.958 15.9301 276.137 15.8689C276.315 15.8052 276.458 15.721 276.565 15.6165C276.672 15.512 276.749 15.3896 276.794 15.2494C276.843 15.1066 276.867 14.9575 276.867 14.8019C276.867 14.6413 276.843 14.4909 276.794 14.3507C276.749 14.2079 276.672 14.0843 276.565 13.9797C276.458 13.8752 276.315 13.7924 276.137 13.7312C275.961 13.6674 275.741 13.6356 275.479 13.6356H274.064V15.9607ZM280.076 15.1844V14.5572H281.07V13.4788H281.774V14.5572H282.848V15.1844H281.774V18.5994H281.07V15.1844H280.076ZM283.074 16.5802C283.074 16.2207 283.126 15.9071 283.231 15.6394C283.335 15.3718 283.482 15.1499 283.67 14.974C283.859 14.7956 284.082 14.6643 284.34 14.5801C284.6 14.4935 284.883 14.4501 285.189 14.4501C285.497 14.4501 285.78 14.4935 286.037 14.5801C286.298 14.6643 286.521 14.7956 286.707 14.974C286.895 15.1499 287.042 15.3718 287.146 15.6394C287.251 15.9071 287.303 16.2207 287.303 16.5802C287.303 16.9397 287.251 17.2533 287.146 17.5209C287.042 17.7861 286.895 18.0079 286.707 18.1864C286.521 18.3623 286.298 18.4936 286.037 18.5802C285.78 18.6669 285.497 18.7103 285.189 18.7103C284.88 18.7103 284.597 18.6669 284.34 18.5802C284.082 18.4936 283.859 18.3623 283.67 18.1864C283.482 18.0079 283.335 17.7861 283.231 17.5209C283.126 17.2533 283.074 16.9397 283.074 16.5802ZM283.781 16.5802C283.781 16.8351 283.814 17.0569 283.881 17.2456C283.949 17.4317 284.046 17.5885 284.171 17.716C284.296 17.8409 284.444 17.934 284.615 17.9951C284.788 18.0538 284.977 18.0831 285.181 18.0831C285.39 18.0831 285.581 18.0538 285.754 17.9951C285.93 17.934 286.081 17.8409 286.206 17.716C286.333 17.5885 286.43 17.4317 286.496 17.2456C286.565 17.0569 286.6 16.8351 286.6 16.5802C286.6 16.3252 286.565 16.1034 286.496 15.9148C286.43 15.7261 286.333 15.5693 286.206 15.4444C286.081 15.3195 285.93 15.2264 285.754 15.1652C285.581 15.1041 285.39 15.0735 285.181 15.0735C284.977 15.0735 284.788 15.1041 284.615 15.1652C284.444 15.2264 284.296 15.3195 284.171 15.4444C284.046 15.5693 283.949 15.7261 283.881 15.9148C283.814 16.1009 283.781 16.3227 283.781 16.5802ZM287.77 16.5802C287.77 16.2207 287.822 15.9071 287.927 15.6394C288.031 15.3718 288.173 15.1499 288.351 14.974C288.53 14.7956 288.735 14.6643 288.967 14.5801C289.199 14.4935 289.442 14.4501 289.697 14.4501C289.996 14.4501 290.266 14.5075 290.508 14.6222C290.75 14.7369 290.96 14.9141 291.139 15.1538H291.219V13.0084H291.923V18.5994H291.296L291.219 18.0028H291.139C290.96 18.2373 290.75 18.4145 290.508 18.5344C290.266 18.6516 289.996 18.7103 289.697 18.7103C289.442 18.7103 289.199 18.6669 288.967 18.5802C288.735 18.4936 288.53 18.3623 288.351 18.1864C288.173 18.0079 288.031 17.7861 287.927 17.5209C287.822 17.2533 287.77 16.9397 287.77 16.5802ZM288.477 16.5802C288.477 17.0926 288.605 17.4712 288.86 17.716C289.115 17.9607 289.446 18.0831 289.854 18.0831C290.053 18.0831 290.235 18.0538 290.401 17.9951C290.569 17.934 290.713 17.8409 290.833 17.716C290.953 17.5885 291.047 17.4317 291.116 17.2456C291.185 17.0569 291.219 16.8351 291.219 16.5802C291.219 16.3252 291.185 16.1034 291.116 15.9148C291.047 15.7261 290.953 15.5693 290.833 15.4444C290.713 15.3195 290.569 15.2264 290.401 15.1652C290.235 15.1041 290.053 15.0735 289.854 15.0735C289.446 15.0735 289.115 15.1971 288.86 15.4444C288.605 15.6892 288.477 16.0678 288.477 16.5802ZM292.55 16.5802C292.55 16.2207 292.602 15.9071 292.707 15.6394C292.811 15.3718 292.953 15.1499 293.131 14.974C293.31 14.7956 293.515 14.6643 293.747 14.5801C293.979 14.4935 294.223 14.4501 294.477 14.4501C294.776 14.4501 295.046 14.5075 295.288 14.6222C295.53 14.7369 295.741 14.9141 295.919 15.1538H295.999L296.076 14.5572H296.703V18.5994H296.076L295.999 18.0028H295.919C295.741 18.2373 295.53 18.4145 295.288 18.5344C295.046 18.6516 294.776 18.7103 294.477 18.7103C294.223 18.7103 293.979 18.6669 293.747 18.5802C293.515 18.4936 293.31 18.3623 293.131 18.1864C292.953 18.0079 292.811 17.7861 292.707 17.5209C292.602 17.2533 292.55 16.9397 292.55 16.5802ZM293.258 16.5802C293.258 17.0926 293.385 17.4712 293.64 17.716C293.895 17.9607 294.226 18.0831 294.634 18.0831C294.833 18.0831 295.015 18.0538 295.181 17.9951C295.349 17.934 295.493 17.8409 295.613 17.716C295.733 17.5885 295.827 17.4317 295.896 17.2456C295.965 17.0569 295.999 16.8351 295.999 16.5802C295.999 16.3252 295.965 16.1034 295.896 15.9148C295.827 15.7261 295.733 15.5693 295.613 15.4444C295.493 15.3195 295.349 15.2264 295.181 15.1652C295.015 15.1041 294.833 15.0735 294.634 15.0735C294.226 15.0735 293.895 15.1971 293.64 15.4444C293.385 15.6892 293.258 16.0678 293.258 16.5802ZM296.94 14.5572H297.717L299.024 17.8001H299.093L300.401 14.5572H301.177L298.845 20.087H298.068L298.673 18.6529L296.94 14.5572ZM301.35 14.8249C301.324 14.5903 301.337 14.3583 301.388 14.1289C301.441 13.8969 301.539 13.6904 301.682 13.5094C301.825 13.3258 302.015 13.1779 302.252 13.0658C302.492 12.9536 302.789 12.8975 303.143 12.8975C303.745 12.8975 304.206 13.0428 304.527 13.3335C304.851 13.6216 305.013 14.032 305.013 14.5648C305.013 14.7382 304.981 14.9129 304.917 15.0888C304.856 15.2621 304.761 15.4253 304.631 15.5783C304.501 15.7287 304.337 15.8638 304.141 15.9836C303.945 16.1034 303.714 16.1952 303.449 16.259L303.411 17.0888H302.799L302.738 15.7656C303.016 15.7503 303.253 15.7057 303.449 15.6318C303.648 15.5579 303.811 15.4661 303.938 15.3565C304.066 15.2468 304.159 15.1232 304.218 14.9855C304.279 14.8478 304.309 14.7076 304.309 14.5648C304.309 14.2411 304.211 13.9874 304.015 13.8038C303.821 13.6177 303.533 13.5247 303.151 13.5247C302.977 13.5247 302.819 13.5514 302.677 13.605C302.534 13.656 302.413 13.7337 302.313 13.8383C302.214 13.9428 302.139 14.0779 302.088 14.2436C302.039 14.4068 302.023 14.6005 302.038 14.8249H301.35ZM302.562 18.1137C302.562 17.9582 302.613 17.8294 302.715 17.7275C302.817 17.6255 302.947 17.5745 303.105 17.5745C303.26 17.5745 303.389 17.6255 303.491 17.7275C303.593 17.8294 303.644 17.9582 303.644 18.1137C303.644 18.2692 303.593 18.398 303.491 18.4999C303.389 18.6019 303.26 18.6529 303.105 18.6529C302.949 18.6529 302.819 18.6019 302.715 18.4999C302.613 18.398 302.562 18.2692 302.562 18.1137Z" fill="white"/>
</g>
<defs>
<filter id="filter0_i_2001_1590" x="124.341" y="-17.659" width="210.116" height="68.7553" filterUnits="userSpaceOnUse" color-interpolation-filters="sRGB">
<feFlood flood-opacity="0" result="BackgroundImageFix"/>
<feBlend mode="normal" in="SourceGraphic" in2="BackgroundImageFix" result="shape"/>
<feColorMatrix in="SourceAlpha" type="matrix" values="0 0 0 0 0 0 0 0 0 0 0 0 0 0 0 0 0 0 127 0" result="hardAlpha"/>
<feOffset/>
<feGaussianBlur stdDeviation="1.03011"/>
<feComposite in2="hardAlpha" operator="arithmetic" k2="-1" k3="1"/>
<feColorMatrix type="matrix" values="0 0 0 0 1 0 0 0 0 1 0 0 0 0 1 0 0 0 0.1 0"/>
<feBlend mode="normal" in2="shape" result="effect1_innerShadow_2001_1590"/>
</filter>
</defs>
</svg>
